<?xml version="1.0" encoding="UTF-8"?>
<svg version="1.1" xmlns="http://www.w3.org/2000/svg" width="512" height="512">
<path d="M0 0 C0.93529037 -0.0049649 1.87058075 -0.00992981 2.83421326 -0.01504517 C5.93342827 -0.02966912 9.03259207 -0.03646969 12.13183594 -0.04199219 C14.28554282 -0.04774407 16.43924969 -0.05350179 18.59295654 -0.05926514 C23.11226643 -0.06977621 27.63155852 -0.07561798 32.15087891 -0.07910156 C37.93570226 -0.08458221 43.72028976 -0.10860075 49.50503922 -0.13707352 C53.95577679 -0.15571896 58.40645781 -0.16090655 62.85723114 -0.16243744 C64.98943113 -0.16546089 67.12163019 -0.17347901 69.25379181 -0.18662262 C72.24099023 -0.20372041 75.22761594 -0.20179346 78.21484375 -0.1953125 C79.09198532 -0.20452728 79.96912689 -0.21374207 80.87284851 -0.22323608 C87.07806453 -0.18116734 91.95167139 0.75027097 96.87792969 4.82519531 C102.24330915 11.10356476 106.95580013 17.79132252 111.66308594 24.56738281 C114.82363444 29.11671578 118.05329238 33.61322156 121.30371094 38.09863281 C121.84342529 38.8442749 122.38313965 39.58991699 122.93920898 40.3581543 C124.03421796 41.87065071 125.12951446 43.38293901 126.22509766 44.89501953 C128.94269267 48.64758081 131.65415566 52.40456701 134.36621094 56.16113281 C135.44951455 57.66115427 136.5328479 59.16115427 137.61621094 60.66113281 C170.11621094 105.66113281 170.11621094 105.66113281 171.74169922 107.91186523 C172.82333362 109.40947535 173.90503917 110.90703408 174.98681641 112.40454102 C177.72173389 116.19068468 180.45534813 119.97775736 183.18652344 123.76660156 C183.7341333 124.52585937 184.28174316 125.28511719 184.84594727 126.06738281 C185.93220745 127.57354324 187.01799185 129.08004693 188.10327148 130.58691406 C190.75412157 134.26150435 193.42249797 137.92102843 196.12792969 141.55566406 C196.64210449 142.24829346 197.1562793 142.94092285 197.68603516 143.65454102 C198.65876285 144.96217087 199.63546551 146.26685607 200.61669922 147.56811523 C203.86621094 151.93964198 203.86621094 151.93964198 203.86621094 154.16113281 C223.66621094 154.16113281 243.46621094 154.16113281 263.86621094 154.16113281 C264.52621094 152.51113281 265.18621094 150.86113281 265.86621094 149.16113281 C267.03613281 147.34692383 267.03613281 147.34692383 268.33496094 145.66503906 C268.81827881 145.03162598 269.30159668 144.39821289 269.79956055 143.74560547 C270.31655518 143.07835449 270.8335498 142.41110352 271.36621094 141.72363281 C272.46254738 140.28580914 273.55757955 138.84699012 274.65136719 137.40722656 C275.19680176 136.69034668 275.74223633 135.9734668 276.30419922 135.23486328 C278.523343 132.28872273 280.6714166 129.29547243 282.80371094 126.28613281 C283.61874156 125.13764312 284.43384749 123.98920686 285.24902344 122.84082031 C285.66829102 122.25010742 286.08755859 121.65939453 286.51953125 121.05078125 C289.05569244 117.49206341 291.61826316 113.95239575 294.17871094 110.41113281 C294.72648193 109.6533252 295.27425293 108.89551758 295.83862305 108.11474609 C296.95660087 106.56828356 298.07468416 105.02189727 299.19287109 103.47558594 C301.91884232 99.70520262 304.64242628 95.93309588 307.36621094 92.16113281 C308.44953238 90.66112423 309.53286572 89.16112423 310.61621094 87.66113281 C311.15246094 86.91863281 311.68871094 86.17613281 312.24121094 85.41113281 C327.67871094 64.03613281 327.67871094 64.03613281 343.11621094 42.66113281 C343.65286377 41.91790771 344.1895166 41.17468262 344.74243164 40.40893555 C345.82105374 38.91579562 346.9003136 37.42311619 347.98022461 35.9309082 C350.76616829 32.07956513 353.53907125 28.21975776 356.29199219 24.34472656 C372.02806049 2.2425702 372.02806049 2.2425702 379.86621094 0.16113281 C383.02014947 -0.12783133 386.15908773 -0.13268161 389.32470703 -0.12939453 C390.72589027 -0.13947037 390.72589027 -0.13947037 392.15538025 -0.14974976 C395.23352423 -0.16869772 398.31144982 -0.17265224 401.38964844 -0.17480469 C403.53667286 -0.18123445 405.6836964 -0.18796294 407.83071899 -0.19497681 C412.32792187 -0.20694129 416.82504796 -0.21065844 421.32226562 -0.20947266 C427.07449548 -0.20926943 432.8262315 -0.23657953 438.57834435 -0.27101707 C443.01197556 -0.2932931 447.44548802 -0.29730999 451.87916946 -0.2962532 C453.99938281 -0.29860779 456.1195995 -0.30742322 458.23975754 -0.32291794 C461.20982878 -0.34259327 464.17883608 -0.33673369 467.14892578 -0.32470703 C468.45217552 -0.34156555 468.45217552 -0.34156555 469.78175354 -0.35876465 C475.59705171 -0.29916239 480.00565051 0.8895997 484.86621094 4.16113281 C489.57442733 9.11079619 490.0150436 13.15014767 490.01338196 19.73262024 C490.01705865 20.51090862 490.02073533 21.289197 490.02452344 22.09106988 C490.03556452 24.70728564 490.03940481 27.32346169 490.04321289 29.93969727 C490.04947715 31.81215542 490.05612391 33.68461233 490.06312561 35.55706787 C490.08053703 40.65010154 490.09108747 45.74312582 490.09933114 50.83618188 C490.10448033 54.01708848 490.11055606 57.19799217 490.11684227 60.37889671 C490.13589358 70.32825936 490.15012562 80.27761457 490.15845424 90.22699195 C490.16823157 101.71764176 490.19456432 113.20809918 490.23495513 124.69868118 C490.26509406 133.57689527 490.27992095 142.45505414 490.28323525 151.33331841 C490.28558799 156.63764139 490.29457779 161.94175882 490.31969643 167.24602699 C490.34294364 172.23568215 490.34722385 177.22499593 490.33693504 182.21469116 C490.33643878 184.04566265 490.34278581 185.87665076 490.35649109 187.70757103 C490.37416282 190.20835581 490.36712776 192.70790913 490.35395813 195.20869446 C490.370412 196.29416603 490.370412 196.29416603 490.38719827 197.40156633 C490.32312828 202.44468441 489.00670677 205.26417023 485.86621094 209.16113281 C480.72979625 213.68606956 477.67821962 214.30809987 470.98436356 214.29535389 C469.74264373 214.29888223 469.74264373 214.29888223 468.47583866 214.30248186 C465.67180679 214.30919628 462.867821 214.30871291 460.06378174 214.30830383 C458.04517888 214.31160094 456.02657669 214.31532618 454.00797534 214.31944531 C448.43730556 214.32949085 442.86664656 214.3331862 437.29596901 214.33583462 C431.29719202 214.33973011 425.29842362 214.34930892 419.2996521 214.35804749 C405.48673514 214.3768975 391.67381753 214.38707097 377.86089138 214.39550817 C371.037794 214.39971235 364.2146975 214.40493464 357.39160086 214.41019269 C334.04394306 214.42808402 310.69628501 214.44308098 287.34862137 214.45051289 C285.88240935 214.45098765 284.41619733 214.45146353 282.94998531 214.45194055 C281.85930097 214.45229511 281.85930097 214.45229511 280.7465826 214.45265684 C277.06250037 214.45385806 273.37841815 214.4550735 269.69433594 214.45629883 C268.96321334 214.45653898 268.23209075 214.45677913 267.47881293 214.45702656 C243.76820714 214.46492142 220.05765134 214.48835651 196.34706739 214.52085477 C171.28989288 214.55513612 146.23274762 214.57486245 121.17554927 214.57815713 C118.42595973 214.57857468 115.67637022 214.57905424 112.9267807 214.57958031 C111.91121141 214.57976509 111.91121141 214.57976509 110.87512556 214.57995362 C99.9694516 214.58228774 89.0638356 214.59795952 78.15818232 214.61842215 C67.2004387 214.63865665 56.24275539 214.64383473 45.28499511 214.63465152 C39.34608506 214.63009196 33.40736361 214.63208899 27.46847916 214.65141296 C22.03529513 214.66893933 16.60243876 214.66813294 11.16925177 214.65251567 C9.20016947 214.65012352 7.23106509 214.65454559 5.26201668 214.66634432 C2.59141653 214.68135989 -0.07800708 214.67186283 -2.74857712 214.65611744 C-3.51837261 214.66633965 -4.2881681 214.67656185 -5.08129072 214.68709382 C-10.24686507 214.62033199 -13.14788261 213.40577502 -17.13378906 210.16113281 C-21.53625005 205.16374467 -22.28259895 202.22873212 -22.28096008 195.71662903 C-22.28463677 194.93990064 -22.28831346 194.16317225 -22.29210156 193.36290663 C-22.30316281 190.7459188 -22.30698638 188.12897063 -22.31079102 185.51196289 C-22.31705388 183.64127475 -22.32370052 181.77058786 -22.33070374 179.89990234 C-22.34813122 174.80674233 -22.35867051 169.71359171 -22.36690927 164.62040925 C-22.37205629 161.43933273 -22.37813219 158.25825913 -22.38442039 155.07718468 C-22.40347835 145.12728261 -22.41770754 135.17738799 -22.42603236 125.22747117 C-22.4358045 113.73682125 -22.46212093 102.24636398 -22.50253326 90.75578195 C-22.5326847 81.87842164 -22.54750037 73.00111657 -22.55081338 64.12370604 C-22.5531652 58.81989517 -22.56214269 53.51628996 -22.58727455 48.21253395 C-22.61054285 43.22124745 -22.61479344 38.23030219 -22.60451317 33.23897552 C-22.60401738 31.40842492 -22.61035055 29.57785759 -22.62406921 27.74735832 C-22.64177368 25.24468203 -22.63468964 22.74323228 -22.62153625 20.24055481 C-22.6325055 19.51913781 -22.64347475 18.79772082 -22.65477639 18.0544427 C-22.58558007 12.58678812 -21.1582414 9.56077607 -18.13378906 5.16113281 C-12.09595884 0.47873386 -7.42828485 0.00938027 0 0 Z M-4.13378906 18.16113281 C-4.13378906 76.90113281 -4.13378906 135.64113281 -4.13378906 196.16113281 C152.94621094 196.16113281 310.02621094 196.16113281 471.86621094 196.16113281 C471.86621094 137.42113281 471.86621094 78.68113281 471.86621094 18.16113281 C442.82621094 18.16113281 413.78621094 18.16113281 383.86621094 18.16113281 C376.31173523 27.9145734 376.31173523 27.9145734 369.05371094 37.84863281 C368.22087007 39.02476294 367.38750929 40.20052503 366.55371094 41.37597656 C365.90595703 42.29032471 365.90595703 42.29032471 365.24511719 43.22314453 C362.70043482 46.79957666 360.12588895 50.35445128 357.55371094 53.91113281 C357.00610107 54.66869873 356.45849121 55.42626465 355.89428711 56.20678711 C354.7761556 57.75350034 353.65790953 59.30013076 352.53955078 60.84667969 C349.81357955 64.61706301 347.08999559 68.38916975 344.36621094 72.16113281 C343.28288949 73.6611414 342.19955615 75.16114139 341.11621094 76.66113281 C340.57996094 77.40363281 340.04371094 78.14613281 339.49121094 78.91113281 C308.61621094 121.66113281 308.61621094 121.66113281 306.99047852 123.91210938 C305.90953903 125.40881982 304.82864693 126.90556449 303.74780273 128.40234375 C301.00323554 132.20295918 298.25779128 136.00293579 295.51074219 139.80175781 C294.95837891 140.56609131 294.40601563 141.3304248 293.83691406 142.11791992 C292.74168442 143.63256833 291.64535086 145.14641918 290.54785156 146.65942383 C287.99686188 150.18182976 285.47041769 153.71634637 283.00292969 157.29785156 C282.5558667 157.94141602 282.10880371 158.58498047 281.64819336 159.24804688 C280.82365017 160.43830347 280.00673389 161.63389933 279.19946289 162.8359375 C275.92136322 167.54950732 272.48407219 170.0702415 266.86621094 171.16113281 C264.73409667 171.26299883 262.5991078 171.30950887 260.46459961 171.32226562 C259.16612595 171.33187317 257.86765228 171.34148071 256.52983093 171.35137939 C255.11461565 171.35622794 253.69939831 171.36050663 252.28417969 171.36425781 C250.82692972 171.37001434 249.36967976 171.375772 247.91242981 171.38153076 C244.85852711 171.39202456 241.8046506 171.39787771 238.75073242 171.40136719 C234.8502938 171.40684633 230.95020523 171.43086848 227.04987621 171.45933914 C224.03944407 171.4780251 221.02909522 171.48317429 218.01861 171.48470306 C216.58138428 171.48771707 215.14415959 171.49570304 213.7069912 171.50888824 C197.88678792 171.64366199 197.88678792 171.64366199 191.20996094 165.86035156 C188.72896888 163.00307571 186.53170803 160.07726477 184.36621094 156.97363281 C183.48791023 155.7245089 182.60897204 154.47583305 181.72949219 153.22753906 C181.26623535 152.5677002 180.80297852 151.90786133 180.32568359 151.22802734 C177.76462174 147.60107022 175.15738642 144.00755702 172.55371094 140.41113281 C171.44297696 138.87471561 170.33230042 137.33825688 169.22167969 135.80175781 C168.66657715 135.03412109 168.11147461 134.26648438 167.53955078 133.47558594 C164.81357955 129.70520262 162.08999559 125.93309588 159.36621094 122.16113281 C158.28288949 120.66112423 157.19955615 119.16112423 156.11621094 117.66113281 C110.61621094 54.66113281 110.61621094 54.66113281 108.98901367 52.40795898 C107.91317117 50.91841806 106.83716392 49.42899611 105.76098633 47.93969727 C102.93663236 44.03066799 100.11575811 40.11918767 97.29980469 36.20410156 C96.71457031 35.39134766 96.12933594 34.57859375 95.52636719 33.74121094 C94.40941816 32.18989285 93.29347047 30.63785312 92.17871094 29.08496094 C91.67210938 28.38177734 91.16550781 27.67859375 90.64355469 26.95410156 C90.20261475 26.34074951 89.7616748 25.72739746 89.30737305 25.09545898 C87.55200049 22.73939991 85.70161848 20.45539224 83.86621094 18.16113281 C54.82621094 18.16113281 25.78621094 18.16113281 -4.13378906 18.16113281 Z " fill="#000000" transform="translate(22.1337890625,297.8388671875)"/>
<path d="M0 0 C0.99644531 -0.02835938 1.99289063 -0.05671875 3.01953125 -0.0859375 C10.90120694 1.06084145 16.03821247 6.8012226 21.39427185 12.2210083 C22.19246198 13.01663516 22.99065211 13.81226202 23.81302983 14.63199878 C26.47945405 17.29349097 29.13503059 19.96554599 31.79077148 22.63769531 C33.70163021 24.55107242 35.6147531 26.46217984 37.52778625 28.37338257 C41.64198299 32.48600899 45.75066683 36.60407671 49.85561943 40.72592926 C55.79063776 46.68536587 61.73395805 52.63646604 67.67931379 58.58558759 C77.32586306 68.23869691 86.96569878 77.89848167 96.60131836 87.5625 C105.95944888 96.94818265 115.32073631 106.33069802 124.6862793 115.70898438 C125.55273641 116.57662375 125.55273641 116.57662375 126.43669771 117.46179119 C129.33466141 120.3636701 132.2326872 123.26548698 135.13074386 126.16727304 C159.1592972 150.22690837 183.17695665 174.29739146 207.1875 198.375 C210.24178724 197.0103988 212.33986714 195.46995336 214.69549465 193.10472107 C215.37615409 192.42619363 216.05681353 191.74766619 216.75809902 191.04857731 C217.49788102 190.30092326 218.23766303 189.55326921 218.99986267 188.78295898 C219.7919617 187.99045211 220.58406073 187.19794523 221.40016276 186.381423 C224.0618241 183.71602144 226.71626485 181.04354187 229.37084961 178.37109375 C231.27418332 176.46228655 233.17791908 174.55388888 235.0821991 172.64602661 C239.18641065 168.53262883 243.28710588 164.41575259 247.38560295 160.29666138 C253.315285 154.33745765 259.25190386 148.38520253 265.19053442 142.43491781 C274.83044592 132.7759904 284.46698084 123.1137027 294.1003418 113.44824219 C294.6769475 112.86971855 295.25355321 112.2911949 295.84763182 111.69514024 C302.28136361 105.23985958 308.71428152 98.78376876 315.14630127 92.32678223 C317.47895376 89.98509801 319.81161389 87.64342138 322.14428711 85.30175781 C322.71988634 84.72393692 323.29548557 84.14611603 323.88852721 83.55078542 C333.4827315 73.91987297 343.08274658 64.29477567 352.68734556 54.67422962 C358.61238618 48.73884931 364.53233321 42.79847542 370.44584716 36.85161042 C374.49724004 32.77809899 378.55397837 28.70996358 382.6149854 24.64603686 C384.9586946 22.30027682 387.29900771 19.95129355 389.63447571 17.59732437 C392.16551988 15.04695076 394.70558545 12.50591824 397.24815369 9.96704102 C397.98570497 9.21938697 398.72325625 8.47173292 399.48315758 7.70142269 C400.50805836 6.68363153 400.50805836 6.68363153 401.55366421 5.64527893 C402.4315528 4.76405538 402.4315528 4.76405538 403.32717651 3.86502934 C407.25993927 0.71507616 411.18818166 0.06353692 416.125 0 C417.12402344 -0.02835938 418.12304688 -0.05671875 419.15234375 -0.0859375 C427.23468589 1.1414967 432.88430315 8.73942372 438.375 14.25 C439.27669922 15.13558594 440.17839844 16.02117187 441.10742188 16.93359375 C442.40583008 18.23103516 442.40583008 18.23103516 443.73046875 19.5546875 C444.51446045 20.33569824 445.29845215 21.11670898 446.10620117 21.92138672 C449.58534084 26.02289448 451.61454988 29.9618122 451.5625 35.375 C451.57023437 36.179375 451.57796875 36.98375 451.5859375 37.8125 C450.385475 45.53312155 444.73885712 50.24871804 439.45259094 55.49758911 C438.54912357 56.40644202 437.6456562 57.31529493 436.71481103 58.25168884 C434.21260955 60.76833637 431.70115041 63.27556191 429.18803179 65.78130126 C426.4770083 68.48759329 423.77462307 71.20248803 421.0710907 73.91625977 C415.77529625 79.22924835 410.47135061 84.53402652 405.16433416 89.8358034 C400.85039763 94.14569789 396.53921302 98.4583268 392.22997093 102.77291489 C391.61655699 103.38707725 391.00314305 104.00123961 390.3711408 104.63401296 C389.12497384 105.88171141 387.8788103 107.1294133 386.63265016 108.37711857 C374.94636692 120.07712925 363.25051587 131.76753865 351.5516338 143.45494972 C340.85212306 154.14452936 330.16408957 164.84549972 319.48151527 175.55200244 C308.50981403 186.54809415 297.53074192 197.53677469 286.543513 208.51735198 C280.37625428 214.68111818 274.21189237 220.84771464 268.05513954 227.02197647 C262.81353884 232.27829851 257.56495263 237.52752167 252.30727778 242.76776733 C249.62582135 245.44071063 246.94765342 248.1167399 244.2781105 250.80158615 C241.38196384 253.71412879 238.47051631 256.6108818 235.55732727 259.50637817 C234.71888584 260.35442461 233.88044441 261.20247105 233.01659566 262.07621586 C225.76295108 269.23944885 218.88790934 273.4620524 208.5 273.625 C192.60979234 273.37460885 184.44745496 262.78678935 173.79821777 252.12615967 C172.46444713 250.79684571 172.46444713 250.79684571 171.10373163 249.44067693 C168.66522681 247.01014086 166.22977125 244.57657034 163.7948761 242.14241886 C161.15734198 239.50675285 158.51696803 236.87393405 155.87701416 234.24069214 C150.12283944 228.50002186 144.3723741 222.75564572 138.62273979 217.01042843 C135.03078796 213.42124847 131.43810341 209.83280256 127.84529114 206.24448395 C117.88878696 196.30015459 107.93321687 186.35489219 97.98110199 176.40616989 C97.02837744 175.45377469 97.02837744 175.45377469 96.05640593 174.48213919 C95.41980909 173.84576062 94.78321224 173.20938205 94.12732458 172.55371928 C92.83748877 171.26432693 91.54765141 169.97493613 90.2578125 168.68554688 C89.61801935 168.04597515 88.97822619 167.40640343 88.31904536 166.74745074 C77.92831933 156.3606815 67.53084472 145.9806957 57.13048238 135.60357627 C46.44139421 124.9381834 35.75792273 114.26719139 25.08009195 103.59052777 C19.08893865 97.60029145 13.09538692 91.61249922 7.09562683 85.63088226 C1.99366413 80.54429482 -3.10316146 75.45263008 -8.19330412 70.35421321 C-10.79028649 67.75331727 -13.38965119 65.15492426 -15.99558258 62.5629921 C-18.81822018 59.75538033 -21.62919393 56.93627563 -24.43908691 54.11590576 C-25.68078384 52.88629344 -25.68078384 52.88629344 -26.94756556 51.63184047 C-28.07290838 50.49661287 -28.07290838 50.49661287 -29.22098541 49.33845139 C-30.19595026 48.36438217 -30.19595026 48.36438217 -31.19061136 47.37063479 C-34.13390776 43.74908855 -35.11391538 40.10639702 -35.1875 35.5 C-35.21585938 34.69820312 -35.24421875 33.89640625 -35.2734375 33.0703125 C-33.87507631 24.89345471 -27.4203057 19.54727371 -21.75830078 13.98461914 C-20.30702478 12.55711446 -18.86971851 11.11655857 -17.43359375 9.67382812 C-7.78506528 0.09993665 -7.78506528 0.09993665 0 0 Z M-1.39477539 19.84375 C-2.39238892 20.84921875 -2.39238892 20.84921875 -3.41015625 21.875 C-4.12880859 22.596875 -4.84746094 23.31875 -5.58789062 24.0625 C-6.34263672 24.825625 -7.09738281 25.58875 -7.875 26.375 C-8.63361328 27.138125 -9.39222656 27.90125 -10.17382812 28.6875 C-12.05562505 30.58113213 -13.93505805 32.47705162 -15.8125 34.375 C-14.39598914 37.58945125 -12.69686198 39.74108328 -10.21984291 42.21933937 C-9.46939756 42.97500022 -8.71895221 43.73066106 -7.94576609 44.50922072 C-7.11776637 45.332759 -6.28976665 46.15629728 -5.43667603 47.00479126 C-4.55982568 47.88476158 -3.68297534 48.76473191 -2.77955377 49.671368 C-0.34406039 52.11346587 2.09585201 54.55099105 4.53773785 56.98668718 C7.1698859 59.61431669 9.79628047 62.24768611 12.42341614 64.88032532 C17.57115272 70.03696392 22.72429258 75.18817015 27.87937759 80.33746149 C32.06822815 84.52179875 36.25512675 88.70807982 40.44063187 92.8957634 C41.03590866 93.49134666 41.63118546 94.08692992 42.24450094 94.70056116 C43.45371443 95.91041408 44.66292342 97.1202715 45.87212797 98.33013336 C57.21609767 109.67980873 68.56619411 121.0233412 79.91838653 132.3647912 C89.66293429 142.10040323 99.40222627 151.84124719 109.13769531 161.5859375 C120.438046 172.89698664 131.7416283 184.20479002 143.05040133 195.50741899 C144.25585062 196.71223117 145.46129573 197.91704754 146.6667366 199.12186813 C147.25986749 199.71469047 147.85299837 200.3075128 148.46410292 200.91829944 C152.64744576 205.09991407 156.82846046 209.28384787 161.00858688 213.46867752 C166.10151001 218.56720476 171.1979707 223.66216362 176.299026 228.75255515 C178.90250087 231.35076699 181.50433835 233.9505648 184.10188103 236.55470848 C186.91509105 239.37495941 189.73597749 242.18744937 192.55770874 244.99917603 C193.38124702 245.82717575 194.2047853 246.65517547 195.05327928 247.50826609 C195.80894013 248.25871144 196.56460097 249.00915679 197.34316063 249.78234291 C197.99367657 250.43253415 198.64419251 251.08272538 199.31442106 251.75261939 C202.13533179 254.19597123 204.36256898 255.2674003 208.0625 255.75 C215.64443608 254.84016767 220.96096404 247.87839196 226.07125854 242.73175049 C226.95434885 241.85036903 227.83743916 240.96898757 228.74728978 240.06089759 C231.18957758 237.62306902 233.62560674 235.17907007 236.06063652 232.73399472 C238.69087533 230.09510316 241.32690796 227.46201023 243.9622345 224.82820129 C248.52443335 220.26705013 253.08296176 215.70225717 257.63900375 211.13495636 C264.22624507 204.53144738 270.81901498 197.93348083 277.41313876 191.33684537 C288.11202537 180.63358365 298.80643984 169.92586505 309.49804688 159.21533203 C319.88274492 148.81227044 330.26954558 138.4113156 340.65917969 128.01318359 C341.2998074 127.37203044 341.9404351 126.73087728 342.60047577 126.07029524 C345.81439285 122.85376805 349.0283513 119.6372822 352.24233031 116.4208169 C378.89713674 89.74528369 405.54468761 63.06251228 432.1875 36.375 C430.74445686 33.36090694 429.32158132 31.27027984 426.9296875 28.921875 C426.30449219 28.303125 425.67929687 27.684375 425.03515625 27.046875 C424.38417969 26.41265625 423.73320312 25.7784375 423.0625 25.125 C422.40378906 24.4753125 421.74507813 23.825625 421.06640625 23.15625 C419.44452872 21.55787794 417.81731741 19.96526294 416.1875 18.375 C410.8447683 22.83327499 405.88747129 27.54620205 400.98986816 32.48602295 C399.79386608 33.68603514 399.79386608 33.68603514 398.57370234 34.91029 C395.91458672 37.5794301 393.25908876 40.25214046 390.60351562 42.92480469 C388.69323546 44.84415299 386.78213919 46.76268782 384.87101746 48.68119812 C381.29338794 52.27318463 377.71671529 55.86611949 374.14117014 59.46018085 C367.1184524 66.51924705 360.08947406 73.57204951 353.05822754 80.62261963 C351.9497515 81.73420593 350.84127917 82.84579594 349.7328105 83.95738959 C348.05334889 85.6415766 346.37388368 87.32576002 344.69440374 89.00992875 C338.37253942 95.34949328 332.051372 101.68975222 325.73095703 108.03076172 C325.15358183 108.61001397 324.57620664 109.18926622 323.98133522 109.78607157 C314.61407122 119.18426139 305.25420321 128.58978775 295.89656645 137.99756202 C286.28118307 147.66402514 276.65626782 157.32092484 267.02285337 166.96941876 C261.08469974 172.91753794 255.15435955 178.87323648 249.23382986 184.83889899 C245.17846403 188.92381975 241.11402233 192.9995609 237.04230797 197.06818572 C234.69369242 199.4155826 232.3508747 201.76808619 230.0159359 204.12913322 C227.48371956 206.6884044 224.93660099 209.23185545 222.38513184 211.77191162 C221.65156165 212.52072814 220.91799146 213.26954465 220.16219187 214.04105258 C216.03068204 218.11655535 213.04305707 220.66560983 207.1875 221.375 C203.47985011 220.22985319 201.15956672 218.72094631 198.43596268 215.98981285 C197.72646162 215.28566824 197.01696057 214.58152364 196.28595948 213.85604131 C195.5191252 213.07978639 194.75229092 212.30353146 193.96221924 211.50375366 C192.72567836 210.26999935 192.72567836 210.26999935 191.46415687 209.01132071 C189.18018871 206.7295025 186.90308142 204.44108449 184.62869 202.14972782 C182.17337897 199.67940257 179.7093849 197.21776534 177.24641418 194.75508118 C172.98109999 190.48792956 168.7212594 186.21537628 164.46503448 181.93915939 C158.31065943 175.75597987 152.1475422 169.58157468 145.98215863 163.40937419 C135.97868575 153.39445769 125.98156557 143.37322533 115.98876953 133.34765625 C106.28298728 123.6100829 96.57547263 113.87424449 86.86474609 104.14160156 C86.266239 103.5417409 85.66773191 102.94188023 85.05108824 102.32384197 C78.52224269 95.78036699 71.99269903 89.23758927 65.46232224 82.69564247 C64.8890592 82.12136106 64.31579617 81.54707965 63.72516154 80.95539577 C61.4340861 78.66026915 59.14300317 76.36515003 56.85183057 74.07012041 C50.13393381 67.34087928 43.41824531 60.6094518 36.70646539 53.8741094 C32.50022927 49.65320757 28.29240433 45.43389455 24.08330736 41.21584557 C21.65151569 38.77871491 19.22060868 36.34071678 16.79187202 33.90054131 C14.16511571 31.26219584 11.53537294 28.62686443 8.90484619 25.99227905 C8.12908902 25.21156268 7.35333186 24.43084632 6.5540669 23.62647188 C5.85499683 22.92754276 5.15592677 22.22861365 4.43567276 21.50850487 C3.52442245 20.59424565 3.52442245 20.59424565 2.59476304 19.66151655 C0.59486751 17.83321678 0.61663545 17.97665424 -1.39477539 19.84375 Z " fill="#000000" transform="translate(47.8125,136.625)"/>
<path d="M0 0 C0.81418593 -0.00367669 1.62837185 -0.00735338 2.46723008 -0.01114148 C5.21092741 -0.02220443 7.9545869 -0.02602657 10.69830322 -0.02983093 C12.65928265 -0.03609361 14.62026088 -0.04274024 16.58123779 -0.04974365 C21.9201908 -0.06717156 27.25913483 -0.07771029 32.59810925 -0.08594918 C35.93194676 -0.09109553 39.26578147 -0.09717143 42.599617 -0.10346031 C53.02525407 -0.12251737 63.45088403 -0.13674742 73.87653518 -0.14507228 C85.92072604 -0.15484765 97.96473326 -0.18117291 110.0088594 -0.22157317 C119.31167819 -0.25170979 128.61444428 -0.26653883 137.91731095 -0.26985329 C143.47650938 -0.27220658 149.03551173 -0.28120327 154.5946579 -0.30631447 C159.82478251 -0.3295572 165.05458144 -0.33384366 170.28474426 -0.32355309 C172.20440503 -0.32305669 174.12408161 -0.32940758 176.04369354 -0.34310913 C178.66493755 -0.36077178 181.28500563 -0.35374992 183.90625 -0.34057617 C184.66559837 -0.35154542 185.42494674 -0.36251466 186.20730567 -0.37381631 C191.35275053 -0.31140041 194.2360161 0.92040876 198.20709229 4.14717102 C202.76414454 9.32004114 203.77292282 12.55445538 203.6987915 19.39179993 C202.65753949 27.34440099 198.97218066 34.54751791 195.76959229 41.83467102 C195.00214761 43.62334949 194.23696842 45.41300151 193.47393799 47.2035675 C191.87877194 50.94269042 190.27383289 54.6774051 188.66314697 58.40986633 C186.19886634 64.14126905 183.80675596 69.90094796 181.43365479 75.67060852 C181.05029465 76.60204178 180.66693451 77.53347504 180.2719574 78.49313354 C178.78208789 82.11528462 177.29371954 85.73805165 175.80551147 89.36088562 C174.77956005 91.85467831 173.74964445 94.34679937 172.71881104 96.83857727 C172.42153107 97.56398712 172.1242511 98.28939697 171.81796265 99.03678894 C164.91666482 115.68555891 164.91666482 115.68555891 156.59771729 119.27217102 C152.26498032 120.39029669 148.28256748 120.36444563 143.83209229 120.27217102 C143.00064697 120.26314758 142.16920166 120.25412415 141.31256104 120.24482727 C139.27727891 120.22143322 137.24214665 120.18556827 135.20709229 120.14717102 C135.21354484 120.81493561 135.21999739 121.4827002 135.22664547 122.17070007 C135.38140913 138.43819326 135.49715549 154.70545249 135.56977749 170.97351074 C135.60583292 178.84074891 135.65496605 186.70749491 135.73516846 194.57441711 C135.80506084 201.43333015 135.85012842 208.29188667 135.86571175 215.15114594 C135.8748177 218.78143464 135.8961311 222.41070366 135.94720268 226.04066467 C136.00383179 230.09875715 136.00501388 234.15509071 136.00177002 238.21357727 C136.03952042 240.00785408 136.03952042 240.00785408 136.07803345 241.83837891 C136.02825886 247.59683814 135.72483489 251.27115554 131.8789978 255.72189331 C130.67661809 256.88636576 129.45265442 258.02900823 128.20709229 259.14717102 C127.01760838 260.38577579 125.83487014 261.6309289 124.66192627 262.88520813 C121.38042899 266.25444672 118.07535934 269.6005315 114.76397705 272.94038391 C113.34389342 274.37715324 111.92921444 275.81928343 110.51983643 277.26655579 C108.46795992 279.37309829 106.40020153 281.4628009 104.32818604 283.54951477 C103.70302597 284.19734421 103.07786591 284.84517365 102.4337616 285.51263428 C99.67710989 288.25613905 97.81182267 289.94691388 94.07452393 291.18452454 C89.00418579 291.11847415 85.85896421 289.17593866 82.35064697 285.64717102 C81.63350525 284.9330304 80.91636353 284.21888977 80.17749023 283.48310852 C79.41897766 282.71224915 78.66046509 281.94138977 77.87896729 281.14717102 C77.08935608 280.35568665 76.29974487 279.56420227 75.48620605 278.74873352 C73.82193887 277.07775376 72.16126857 275.40318489 70.50396729 273.72529602 C67.95964382 271.14975386 65.40474488 268.58509491 62.84771729 266.02217102 C61.2325075 264.39779369 59.61790301 262.77281422 58.00396729 261.14717102 C56.85405304 259.99088196 56.85405304 259.99088196 55.6809082 258.81123352 C54.97637512 258.0970929 54.27184204 257.38295227 53.54595947 256.64717102 C52.61260773 255.70357727 52.61260773 255.70357727 51.66040039 254.74092102 C49.00869327 251.83296351 49.0831702 249.76966716 49.08683777 245.93339539 C49.08477577 244.27589012 49.08477577 244.27589012 49.08267212 242.5848999 C49.08806503 240.75826561 49.08806503 240.75826561 49.09356689 238.89472961 C49.09342087 237.61671982 49.09327484 236.33871002 49.09312439 235.02197266 C49.0928368 231.51185848 49.09872737 228.0017783 49.10569835 224.49167204 C49.11193822 220.82545868 49.11253619 217.15924459 49.11372375 213.49302673 C49.1168352 206.54801461 49.12504607 199.60301819 49.13507324 192.65801299 C49.14624018 184.752436 49.1517463 176.84685827 49.15676868 168.94127536 C49.16722883 152.67656472 49.18482466 136.41186987 49.20709229 120.14717102 C48.1822876 120.16602356 47.15748291 120.1848761 46.10162354 120.20429993 C44.74095129 120.21954884 43.3802738 120.23433561 42.01959229 120.24873352 C41.34605713 120.26234924 40.67252197 120.27596497 39.97857666 120.28999329 C31.92594524 120.35382512 25.67100584 117.52660977 19.85601807 112.00068665 C12.70903566 103.96694509 9.37055072 91.12673531 5.33209229 81.27217102 C3.82703757 77.60360274 2.32058169 73.93561488 0.81256104 70.26826477 C0.43215164 69.34236038 0.05174225 68.41645599 -0.3401947 67.4624939 C-2.90748494 61.23496647 -5.55312948 55.04562897 -8.24212646 48.86982727 C-9.28192537 46.45937621 -10.3199163 44.04815588 -11.35717773 41.63661194 C-12.01466054 40.12044172 -12.67965037 38.60750146 -13.35266113 37.09815979 C-17.1575761 28.55777088 -20.35384869 20.71646025 -18.79290771 11.14717102 C-14.67332567 2.6028527 -8.94455159 -0.00214643 0 0 Z M-0.79290771 18.14717102 C5.60461749 34.17709539 5.60461749 34.17709539 12.15240479 50.14326477 C12.57077606 51.14954422 12.98914734 52.15582367 13.42019653 53.19259644 C14.28805811 55.27858422 15.15663421 57.36427489 16.02593994 59.44966125 C17.34048377 62.60481215 18.65081791 65.76169058 19.96099854 68.9186554 C22.35281369 74.67156702 24.76808851 80.41411042 27.20709229 86.14717102 C27.51981079 86.88509888 27.8325293 87.62302673 28.15472412 88.38331604 C28.9474677 90.23893195 29.75992313 92.08609434 30.57427979 93.93232727 C30.99564209 94.89147034 31.41700439 95.8506134 31.85113525 96.83882141 C33.3871544 99.45370456 34.64287121 100.55046624 37.20709229 102.14717102 C39.49639614 102.58521714 39.49639614 102.58521714 41.97802734 102.50793457 C42.93432541 102.51205856 43.89062347 102.51618256 44.87590027 102.52043152 C45.91815262 102.50964569 46.96040497 102.49885986 48.03424072 102.48774719 C49.68834709 102.48840431 49.68834709 102.48840431 51.37586975 102.48907471 C55.02291533 102.48698372 58.66950195 102.46363731 62.31646729 102.44013977 C64.84423573 102.43454494 67.37200742 102.43027431 69.89978027 102.42727661 C75.87441281 102.41699027 81.84884816 102.3933431 87.82340169 102.36322814 C94.62624376 102.3296833 101.42909376 102.31319794 108.23199797 102.29814184 C122.22378734 102.26679338 136.21543078 102.21403343 150.20709229 102.14717102 C151.78293707 98.53332687 153.35720169 94.91879633 154.93121338 91.30415344 C155.37118149 90.29523796 155.8111496 89.28632248 156.26445007 88.2468338 C160.20149963 79.20205509 164.01926832 70.1107512 167.78521729 60.99360657 C168.83742786 58.44675638 169.89313171 55.90137493 170.94927979 53.3561554 C171.65260916 51.6576723 172.35574092 49.95910736 173.05865479 48.26045227 C173.35784821 47.53900528 173.65704163 46.81755829 173.96530151 46.07424927 C177.7936224 36.79698802 181.47919058 27.46692527 185.20709229 18.14717102 C123.82709229 18.14717102 62.44709229 18.14717102 -0.79290771 18.14717102 Z M67.20709229 120.14717102 C66.66174981 135.90057706 66.22128498 151.64631326 65.96360016 167.40645599 C65.84067885 174.72716377 65.67310497 182.04146632 65.39654541 189.35810852 C65.08351673 197.7977023 64.88259345 206.23274415 64.86334229 214.67842102 C64.86102537 215.69487387 64.86102537 215.69487387 64.85866165 216.73186111 C64.87909842 231.86963003 64.95101362 245.60445793 75.89984131 257.06306458 C80.56279845 261.42808211 85.59869357 265.07076657 91.20709229 268.14717102 C101.08709859 263.72736455 111.61099783 253.50339427 117.20709229 244.14717102 C120.69463374 234.76473917 119.79392228 224.70436242 119.35552979 214.87373352 C119.30194635 212.12519995 119.282039 209.37668249 119.26119995 206.62773132 C119.19355219 200.19285943 119.01414768 193.76648378 118.79151118 187.33531034 C118.54320165 179.9987897 118.42406836 172.66180111 118.31421161 165.3221066 C118.0859295 150.25832135 117.68355954 135.20553553 117.20709229 120.14717102 C100.70709229 120.14717102 84.20709229 120.14717102 67.20709229 120.14717102 Z " fill="#000000" transform="translate(163.79290771484375,-0.1471710205078125)"/>
<path d="M0 0 C3.23613354 1.74253345 3.82395315 2.47185944 5 6 C5.09974337 7.43383808 5.14608236 8.87175381 5.15821838 10.30900574 C5.1680072 11.18820175 5.17779602 12.06739777 5.18788147 12.97323608 C5.19651466 14.41577255 5.19651466 14.41577255 5.20532227 15.88745117 C5.21522186 16.90226059 5.22512146 17.91707001 5.23532104 18.96263123 C5.26695209 22.32271986 5.29169991 25.68282264 5.31640625 29.04296875 C5.33697438 31.37039053 5.35797082 33.69780857 5.37937927 36.02522278 C5.43461442 42.15559863 5.48401738 48.28600828 5.53222656 54.41644287 C5.58243101 60.67023735 5.6381226 66.92398267 5.69335938 73.17773438 C5.80095862 85.45178093 5.90239971 97.72587015 6 110 C6.50789063 109.02417969 7.01578125 108.04835938 7.5390625 107.04296875 C8.23349225 105.75733529 8.92885436 104.47220514 9.625 103.1875 C9.95628906 102.54490234 10.28757813 101.90230469 10.62890625 101.24023438 C13.04332398 96.8441719 15.104235 94.75409762 20 93 C23.6496701 93.0729934 25.40029125 93.54616635 28.3125 95.75 C30.2914054 98.38854054 30.92317956 99.69672089 31 103 C29.13277719 107.81775306 26.85817448 112.18029559 24.234375 116.640625 C23.87788879 117.24831726 23.52140259 117.85600952 23.15411377 118.4821167 C22.40303312 119.76054749 21.64997362 121.03781761 20.89501953 122.31396484 C19.76257645 124.22873535 18.63663211 126.14720452 17.51171875 128.06640625 C15.36284468 131.72409943 13.18652833 135.36472264 11 139 C10.36255859 140.06669922 9.72511719 141.13339844 9.06835938 142.23242188 C8.47345703 143.20244141 7.87855469 144.17246094 7.265625 145.171875 C6.75290039 146.01331055 6.24017578 146.85474609 5.71191406 147.72167969 C3.03851729 151.27960021 0.48398267 153.71583311 -3.9375 154.5625 C-8.4745249 153.7291689 -11.49342156 150.99723337 -14.22070312 147.38174438 C-15.3829653 145.57117702 -16.46709284 143.73315866 -17.53125 141.86328125 C-17.93025513 141.18379929 -18.32926025 140.50431732 -18.74035645 139.804245 C-20.00434433 137.64640575 -21.25244759 135.47987439 -22.5 133.3125 C-23.33617942 131.87763686 -24.17341097 130.44338632 -25.01171875 129.00976562 C-26.62243087 126.25344739 -28.2258187 123.49306825 -29.82446289 120.72973633 C-32.12029065 116.77294215 -34.49930753 112.86938446 -36.91772461 108.98632812 C-38.569935 105.95398349 -39.06731424 103.43302621 -39 100 C-37.70080758 96.75201894 -36.69052626 95.41058318 -33.6875 93.625 C-30.21238489 92.81683369 -28.39875572 92.82083985 -25 94 C-21.18705501 97.26132604 -18.69631478 101.38348991 -16.31640625 105.75 C-15.8788501 106.54921875 -15.44129395 107.3484375 -14.99047852 108.171875 C-14.66362061 108.77515625 -14.3367627 109.3784375 -14 110 C-13.99857498 108.69565506 -13.99714996 107.39131012 -13.99568176 106.04743958 C-13.9790191 93.7608443 -13.93626753 81.47458053 -13.86790943 69.1881609 C-13.83360502 62.87140457 -13.80852401 56.554891 -13.80444336 50.23803711 C-13.80016793 44.14295079 -13.77176701 38.04841239 -13.72656822 31.95349693 C-13.71356919 29.62710447 -13.709294 27.30064651 -13.71384621 24.97422218 C-13.71873482 21.71764435 -13.6927348 18.46267864 -13.65942383 15.20629883 C-13.66804947 14.24244766 -13.67667511 13.2785965 -13.68556213 12.28553772 C-13.60619619 7.66317744 -13.50598919 5.65099229 -10.58988953 1.8992157 C-6.62276073 -1.00995599 -4.82198445 -0.61231549 0 0 Z " fill="#000000" transform="translate(115,0)"/>
<path d="M0 0 C0.639375 -0.01289063 1.27875 -0.02578125 1.9375 -0.0390625 C5.37886167 1.06895167 6.78308957 2.77941829 9 5.625 C9.74622887 9.02283118 9.69045911 12.36333659 9.65942383 15.83129883 C9.66990753 16.85615387 9.68039124 17.88100891 9.69119263 18.93692017 C9.71995652 22.31893132 9.71364917 25.69991962 9.70703125 29.08203125 C9.72014539 31.42902409 9.73544873 33.77600564 9.75285339 36.12297058 C9.79274895 42.29615212 9.80289685 48.46903872 9.80688477 54.64233398 C9.8162075 60.94328789 9.85361574 67.24406788 9.88867188 73.54492188 C9.95329435 85.90493976 9.98649631 98.26482797 10 110.625 C10.54269531 109.72136719 11.08539063 108.81773438 11.64453125 107.88671875 C12.36696261 106.69517612 13.08963136 105.5037774 13.8125 104.3125 C14.16892578 103.71759766 14.52535156 103.12269531 14.89257812 102.50976562 C19.44906519 95.02709421 19.44906519 95.02709421 24.375 93.75 C28.44485353 93.60966022 29.89861178 94.05527833 33 96.625 C35.05740965 99.24352137 35.00928547 100.50202553 34.75561523 103.86157227 C33.94191269 107.91431048 32.64932248 110.55228896 30.53515625 114.08984375 C30.18599152 114.68110046 29.83682678 115.27235718 29.4770813 115.88153076 C28.3504139 117.78233986 27.20729211 119.67256134 26.0625 121.5625 C25.28289442 122.86586455 24.50400675 124.16965877 23.72583008 125.47387695 C21.83465783 128.63621971 19.92885882 131.78944793 18.01843262 134.94018555 C16.59697774 137.29172818 15.19398526 139.65417863 13.7890625 142.015625 C12.92355948 143.44893519 12.05654893 144.881337 11.1875 146.3125 C10.81052979 146.94599365 10.43355957 147.5794873 10.04516602 148.23217773 C8.08530415 151.39285384 6.59326611 153.43944173 3 154.625 C-1.09727823 155.24849886 -2.5446754 154.9542777 -5.94384766 152.49609375 C-9.04060108 149.79186295 -10.98318661 146.83257409 -13.0234375 143.25 C-13.54824203 142.34133179 -13.54824203 142.34133179 -14.08364868 141.41430664 C-15.19183351 139.49063477 -16.28391094 137.55840982 -17.375 135.625 C-18.45783002 133.73004746 -19.54399446 131.83704548 -20.63116455 129.94458008 C-21.34980661 128.69196312 -22.06592323 127.43789382 -22.77947998 126.18237305 C-24.55143721 123.07767292 -26.36446772 120.01469788 -28.28613281 117 C-28.65388824 116.42064697 -29.02164368 115.84129395 -29.40054321 115.24438477 C-30.41010079 113.66638377 -31.43239875 112.09655425 -32.45556641 110.52734375 C-34.09595299 107.44468241 -34.75477302 105.09814062 -35 101.625 C-33.6260627 98.74627423 -32.25010563 96.87510563 -30 94.625 C-26.5930124 93.64075914 -24.77584709 93.25426294 -21.53125 94.8046875 C-18.74745793 96.80661204 -17.21362916 98.72148676 -15.3125 101.5625 C-14.44044922 102.84447266 -14.44044922 102.84447266 -13.55078125 104.15234375 C-12.22141802 106.27195816 -11.09775297 108.38171407 -10 110.625 C-9.99857498 109.32065506 -9.99714996 108.01631012 -9.99568176 106.67243958 C-9.9790191 94.3858443 -9.93626753 82.09958053 -9.86790943 69.8131609 C-9.83360502 63.49640457 -9.80852401 57.179891 -9.80444336 50.86303711 C-9.80016793 44.76795079 -9.77176701 38.67341239 -9.72656822 32.57849693 C-9.71356919 30.25210447 -9.709294 27.92564651 -9.71384621 25.59922218 C-9.71873482 22.34264435 -9.6927348 19.08767864 -9.65942383 15.83129883 C-9.66804947 14.86744766 -9.67667511 13.9035965 -9.68556213 12.91053772 C-9.60619142 8.28789922 -9.5083437 6.27749976 -6.58769226 2.52861023 C-4.08961398 0.69092364 -3.03937977 -0.06127782 0 0 Z " fill="#000000" transform="translate(401,-0.625)"/>
</svg>
