<?xml version="1.0" encoding="UTF-8"?>
<svg version="1.1" xmlns="http://www.w3.org/2000/svg" width="512" height="512">
<path d="M0 0 C1.65254093 1.51354216 3.29856625 3.03423381 4.9375 4.5625 C6.04738281 5.59117188 6.04738281 5.59117188 7.1796875 6.640625 C26.57672418 25.27834708 26.57672418 25.27834708 28.3359375 34.6953125 C28.27372415 39.9834473 28.27372415 39.9834473 26.8125 42.5 C24.11073836 44.03099826 22.04314495 44.4382742 18.9375 44.5625 C14.47218217 42.47820253 12.22886234 39.63751589 9.375 35.6875 C-9.09465559 10.82233962 -33.77128371 -8.15737351 -63.0625 -18.4375 C-63.70687012 -18.66421387 -64.35124023 -18.89092773 -65.01513672 -19.12451172 C-104.82838607 -32.87318373 -147.73907777 -29.52383059 -185.64990234 -11.62695312 C-207.19566015 -1.00451516 -224.07321027 15.38596584 -240.8125 32.25 C-242.01017802 33.45271165 -243.2080936 34.65518679 -244.40625 35.85742188 C-247.29439879 38.756409 -250.17936185 41.65852993 -253.0625 44.5625 C-252.38896484 44.39121582 -251.71542969 44.21993164 -251.02148438 44.04345703 C-202.31021419 31.74942309 -153.30489258 33.80163093 -109.0625 59.5 C-97.75493098 66.29218344 -87.61861606 74.48131139 -78.0625 83.5625 C-77.5571875 84.04058105 -77.051875 84.51866211 -76.53125 85.01123047 C-64.67615865 96.29992773 -55.26301806 108.33609519 -47.0625 122.5625 C-46.40507812 123.67753906 -45.74765625 124.79257813 -45.0703125 125.94140625 C-22.02867607 166.15362757 -19.6357532 214.46293203 -31.0625 258.5625 C-31.72302908 260.8975782 -32.3885443 263.23126157 -33.0625 265.5625 C-28.44342416 261.04674844 -23.84162516 256.51387596 -19.25024414 251.9699707 C-17.69374695 250.43331169 -16.13364737 248.9002911 -14.56958008 247.37133789 C14.26291975 219.16905664 38.50442215 181.73710202 39.12774658 139.86917114 C39.13199646 139.19304779 39.13624634 138.51692444 39.140625 137.8203125 C39.14632507 137.09367401 39.15202515 136.36703552 39.15789795 135.61837769 C39.16729519 134.0838158 39.17386079 132.54923421 39.17773438 131.01464844 C39.1873295 128.72812941 39.21835565 126.44255456 39.25 124.15625 C39.35459684 109.83150927 37.20628927 96.35461337 32.8125 82.6875 C32.54824219 81.83542969 32.28398437 80.98335938 32.01171875 80.10546875 C31.01825974 76.91328826 29.99471954 73.73415862 28.9375 70.5625 C28.5906398 66.74703778 28.40383105 64.42971204 30.4375 61.125 C33.43921997 59.24892502 35.46554752 59.04887342 38.9375 58.93359375 C42.13073436 59.93771627 43.131535 61.7916545 44.9375 64.5625 C46.13889578 67.21185205 47.05403668 69.91777184 47.9375 72.6875 C48.19168701 73.46722168 48.44587402 74.24694336 48.70776367 75.05029297 C53.06398896 88.8608347 56.05040577 103.26064756 56.140625 117.76953125 C56.14768463 118.5282402 56.15474426 119.28694916 56.16201782 120.06864929 C56.38948933 151.68941081 56.38948933 151.68941081 52.9375 165.5625 C52.63948486 166.80410889 52.63948486 166.80410889 52.33544922 168.07080078 C49.19118952 180.86216741 44.75387281 192.75770519 38.9375 204.5625 C38.45410156 205.55588379 38.45410156 205.55588379 37.9609375 206.56933594 C33.18895495 216.27333704 27.37738804 224.89618226 20.9375 233.5625 C20.2775 234.5525 19.6175 235.5425 18.9375 236.5625 C19.52980219 236.55881283 20.12210438 236.55512566 20.73235512 236.55132675 C35.15490549 236.46292849 49.57743165 236.39676748 64.00019264 236.35525131 C70.97499963 236.33463989 77.94962561 236.3065468 84.92431641 236.26074219 C91.65461086 236.21656372 98.38467836 236.19336559 105.11512375 236.18299103 C107.68357682 236.17559715 110.25201954 236.16115882 112.82039261 236.13957977 C116.41645853 236.11056635 120.01174613 236.10654331 123.60791016 236.10839844 C124.67102417 236.09401733 125.73413818 236.07963623 126.82946777 236.06481934 C132.84869262 236.09844526 136.36059309 236.5292158 140.9375 240.5625 C142.88956925 243.39980996 143.30698648 245.89739611 143.4375 249.3125 C143.4890625 250.11171875 143.540625 250.9109375 143.59375 251.734375 C141.36982417 261.31843633 130.10185897 269.66870984 123.33203125 276.3984375 C122.00221332 277.72706153 120.67276683 279.05605741 119.34367371 280.38540649 C116.57049953 283.15702375 113.79402011 285.92527048 111.01489258 288.69091797 C107.45209923 292.23664784 103.89599901 295.78899979 100.34210682 299.34364891 C97.60323918 302.0822449 94.86177557 304.81822938 92.11942101 307.55333328 C90.80669104 308.86288225 89.49456483 310.17303671 88.18305397 311.48380661 C86.35476206 313.30993318 84.52321751 315.13273131 82.69067383 316.95458984 C81.87942551 317.76651794 81.87942551 317.76651794 81.05178833 318.59484863 C75.17106803 324.42543689 75.17106803 324.42543689 70 325 C66.7127486 324.90295937 66.07144941 324.67031294 63.375 322.5 C61.41395665 318.49265055 61.567225 316.81756447 62.9375 312.5625 C68.27350713 305.23484126 75.36200832 299.00903376 81.77734375 292.625 C82.91099143 291.49322136 84.04441559 290.3612188 85.17762756 289.22900391 C88.13613851 286.27427989 91.09764181 283.32257347 94.05981445 280.371521 C97.09184725 277.34978529 100.12099067 274.32515606 103.15039062 271.30078125 C109.07662967 265.38521195 115.00603842 259.47283271 120.9375 253.5625 C103.12724269 250.92040854 85.29022656 249.15340726 67.3125 248.1875 C66.64679631 248.15101113 65.98109262 248.11452226 65.29521608 248.07692766 C32.3913224 246.33376545 3.66754747 248.14532385 -21.91913414 270.87139988 C-30.57956635 278.69652447 -38.60912737 287.04258375 -46.375 295.75 C-46.82228738 296.25120393 -47.26957476 296.75240786 -47.7304163 297.26879978 C-55.75551385 306.28882618 -63.63497157 315.43880524 -71.03800964 324.97889709 C-84.78926822 342.64135127 -101.06824448 354.64132632 -121.0625 364.5625 C-104.32936344 364.63258768 -87.5962745 364.68548695 -70.86302662 364.71793652 C-63.09344894 364.73340403 -55.32396249 364.75449127 -47.55444336 364.78881836 C-40.78235952 364.81872433 -34.01034173 364.83807585 -27.23819369 364.84476548 C-23.65252071 364.84867574 -20.06703673 364.85786278 -16.48142433 364.87969017 C-12.47817228 364.90386217 -8.47524861 364.90446923 -4.47192383 364.90307617 C-3.28365494 364.913862 -2.09538605 364.92464783 -0.87110901 364.9357605 C0.22119019 364.93163651 1.31348938 364.92751251 2.43888855 364.92326355 C3.38556994 364.92602893 4.33225134 364.92879431 5.30762005 364.93164349 C11.25420428 364.09695032 14.96646931 359.78389638 18.97265625 355.65234375 C19.53319199 355.08423477 20.09372772 354.51612579 20.67124939 353.93080139 C22.45242974 352.12530479 24.22697401 350.31350274 26 348.5 C28.33925912 346.10749667 30.68508413 343.72172133 33.03515625 341.33984375 C33.83373802 340.51636696 33.83373802 340.51636696 34.64845276 339.67625427 C39.55274206 334.70769204 39.55274206 334.70769204 42.9375 333.5625 C46.28955511 333.73892395 48.91141301 333.99980713 51.875 335.625 C53.7513456 339.04657139 53.96184816 341.88875753 52.9375 345.5625 C50.87882793 348.70866268 48.31263575 351.25841237 45.63378906 353.88378906 C43.6067131 355.88985906 41.6293324 357.94051553 39.6484375 359.9921875 C38.07953598 361.60033609 36.50920908 363.20709524 34.9375 364.8125 C33.81722412 365.96564697 33.81722412 365.96564697 32.67431641 367.14208984 C24.02882896 375.83287127 15.964902 381.73862821 3.40924692 381.83464891 C2.59320789 381.83086958 1.77716886 381.82709026 0.93640137 381.82319641 C0.05235044 381.82702196 -0.83170049 381.83084751 -1.74254084 381.83478898 C-4.6936561 381.84507574 -7.64457521 381.84113484 -10.59570312 381.8371582 C-12.71702758 381.84150751 -14.83835046 381.84669139 -16.95967102 381.85264587 C-22.71889931 381.86603507 -28.47806196 381.86661377 -34.23730278 381.86408257 C-39.0595135 381.86301112 -43.88171104 381.86790159 -48.70391893 381.872688 C-60.100637 381.88378655 -71.49732212 381.88422101 -82.89404297 381.87817383 C-94.60159392 381.87215628 -106.30902402 381.88438762 -118.01655436 381.9057439 C-128.09935722 381.92345173 -138.18212197 381.9293462 -148.26493979 381.92610615 C-154.27224604 381.92430502 -160.27946641 381.92680969 -166.28675842 381.94082069 C-171.95362176 381.95354159 -177.62029987 381.95132241 -183.28716087 381.93840981 C-185.34803014 381.93607375 -187.408913 381.93866949 -189.46976662 381.94703293 C-230.60072678 382.10168177 -270.65405454 371.83494645 -303.0625 345.5625 C-303.5894043 345.13710938 -304.11630859 344.71171875 -304.65917969 344.2734375 C-340.06021379 315.5324199 -363.32500774 275.2077503 -368.85108948 229.70663452 C-369.19489381 226.21975631 -369.26392834 222.7440218 -369.30078125 219.2421875 C-369.3105751 218.46939453 -369.32036896 217.69660156 -369.33045959 216.90039062 C-369.49958063 200.09900009 -369.44414013 183.90764052 -365.0625 167.5625 C-364.82692383 166.66853516 -364.59134766 165.77457031 -364.34863281 164.85351562 C-358.63522336 143.62801279 -358.63522336 143.62801279 -353.25 137.5 C-349.90502818 136.06644065 -347.52671751 136.68069918 -344.0625 137.5625 C-341.68502238 139.14748508 -341.18960118 140.12294371 -340.39770508 142.86157227 C-340.01236546 145.96646095 -340.48109998 147.61431786 -341.57421875 150.52734375 C-341.91831787 151.48108887 -342.26241699 152.43483398 -342.61694336 153.41748047 C-342.99085205 154.43471191 -343.36476074 155.45194336 -343.75 156.5 C-349.78279358 173.76839632 -352.99039514 191.25634776 -353.0625 209.5625 C-353.06652832 210.22958984 -353.07055664 210.89667969 -353.07470703 211.58398438 C-352.90357366 252.69626072 -334.6900674 292.17350608 -305.79296875 320.88720703 C-275.04090745 350.65874267 -234.41051891 365.26635705 -191.9296875 364.77734375 C-149.06011801 363.63802373 -111.66918293 344.47081088 -81.85595703 314.46118164 C-72.13630403 304.17126312 -64.37327425 292.18104623 -58.0625 279.5625 C-57.53897949 278.52536865 -57.53897949 278.52536865 -57.00488281 277.46728516 C-49.16679314 261.67190905 -43.67793001 244.16864224 -42.0625 226.5625 C-41.99691895 225.86044434 -41.93133789 225.15838867 -41.86376953 224.43505859 C-38.27473701 183.37205103 -49.97511668 141.65392631 -76.52148438 109.8125 C-79.57962014 106.27457486 -82.79289337 102.90652864 -86.0625 99.5625 C-86.79855469 98.77617187 -87.53460938 97.98984375 -88.29296875 97.1796875 C-113.47011832 70.85603749 -152.20375218 54.17817612 -188.51953125 53.359375 C-228.01041363 52.93526139 -266.93928107 62.66000259 -297.0625 89.5625 C-297.92359375 90.3153125 -298.7846875 91.068125 -299.671875 91.84375 C-302.16693786 94.05150259 -304.62249648 96.29415502 -307.0625 98.5625 C-308.07763672 99.49642578 -308.07763672 99.49642578 -309.11328125 100.44921875 C-314.34352969 105.44887507 -318.63799139 111.02809897 -322.9609375 116.8046875 C-325.0625 119.5625 -325.0625 119.5625 -327.0625 121.5625 C-333.9898743 122.23289106 -333.9898743 122.23289106 -337.5625 120 C-339.10718129 117.48989291 -339.88783401 115.64216072 -339.69140625 112.6640625 C-334.78496564 96.26862741 -312.72115161 80.04338546 -300.99972963 68.299541 C-299.52488009 66.82172658 -298.05060501 65.34334128 -296.57648849 63.86479568 C-291.938331 59.21303262 -287.29822689 54.56322468 -282.65520823 49.91631353 C-277.34191453 44.59853692 -272.03523773 39.27427183 -266.73418677 33.94429147 C-262.60158339 29.78993806 -258.46310314 25.64149734 -254.32027566 21.49733984 C-251.86107434 19.03710124 -249.40425293 16.57460456 -246.95360184 14.10584641 C-234.58552708 1.65155256 -222.44814277 -9.99858951 -207.3125 -19.0625 C-206.55646484 -19.51778076 -205.80042969 -19.97306152 -205.02148438 -20.44213867 C-139.64154658 -59.11711642 -56.58997787 -50.22469531 0 0 Z " fill="#000000" transform="translate(369.0625,87.4375)"/>
<path d="M0 0 C1.57494004 1.3186159 3.13721477 2.65248386 4.6875 4 C6.04101562 5.15435547 6.04101562 5.15435547 7.421875 6.33203125 C13.92996017 12.04008938 19.42627904 18.13796227 24.6875 25 C25.33074219 25.79277344 25.97398437 26.58554688 26.63671875 27.40234375 C49.87632431 57.24143162 57.33847279 96.08666579 53.2265625 133.109375 C52.64011665 137.13648892 51.73378563 141.06961345 50.6875 145 C50.38948486 146.16716553 50.38948486 146.16716553 50.08544922 147.35791016 C45.81907019 163.75550626 39.52083734 179.11884397 29.6875 193 C28.99527344 193.98871094 28.30304688 194.97742188 27.58984375 195.99609375 C5.38657953 226.28001173 -27.22131162 247.21766329 -64.48217773 253.21411133 C-70.41094735 254.08182296 -76.326649 254.73247593 -82.3125 255 C-83.66601562 255.061875 -83.66601562 255.061875 -85.046875 255.125 C-122.95519393 255.9627529 -159.31357168 241.69157123 -186.64453125 215.5703125 C-187.96517578 214.29800781 -187.96517578 214.29800781 -189.3125 213 C-190.01761719 212.35804688 -190.72273438 211.71609375 -191.44921875 211.0546875 C-211.13901405 192.60299292 -222.91773187 166.02501206 -228.3125 140 C-228.53808594 138.96875 -228.76367188 137.9375 -228.99609375 136.875 C-235.26618174 102.28141111 -227.74673803 63.96385704 -208.2265625 34.68359375 C-200.23805698 23.48338295 -191.94186582 12.81554744 -181.3125 4 C-180.62027344 3.39671875 -179.92804688 2.7934375 -179.21484375 2.171875 C-128.55097863 -40.58390826 -51.77812068 -40.44401238 0 0 Z M-184.52246094 29.96191406 C-188.6385991 34.64842817 -192.06507981 39.6747813 -195.3125 45 C-196.22515625 46.40378906 -196.22515625 46.40378906 -197.15625 47.8359375 C-213.445199 73.91254445 -218.87449139 108.15529515 -212.27734375 138.10546875 C-211.96268375 139.40534904 -211.64109378 140.7035719 -211.3125 142 C-211.15152832 142.64662598 -210.99055664 143.29325195 -210.82470703 143.95947266 C-202.38605988 176.60349964 -180.96424939 204.35245495 -152.25195312 221.87011719 C-123.06817703 238.87194445 -88.32485844 243.12702715 -55.75 234.8125 C-24.88246141 226.46510751 1.43280664 206.8673778 18.6875 180 C19.39648438 178.90171875 20.10546875 177.8034375 20.8359375 176.671875 C28.96394427 163.280906 34.14078876 148.43698814 36.6875 133 C36.86925781 131.98808594 37.05101562 130.97617187 37.23828125 129.93359375 C41.16961695 95.50876722 32.96316283 61.72787921 11.34619141 34.44873047 C10.13692499 32.95741121 8.91252119 31.47840505 7.6875 30 C7.01976562 29.17886719 6.35203125 28.35773438 5.6640625 27.51171875 C-14.90676684 3.2045551 -46.93737338 -11.38160662 -78.3125 -14 C-119.75540896 -16.28418511 -156.51731017 -0.51714084 -184.52246094 29.96191406 Z " fill="#000000" transform="translate(260.3125,184)"/>
<path d="M0 0 C27.00782539 -0.90909931 55.23223441 8.05563013 75.47265625 26.15625 C76.28863281 26.84203125 77.10460937 27.5278125 77.9453125 28.234375 C97.93925216 45.41618404 110.06813999 68.3312086 114.47265625 94.15625 C114.74722656 95.75726563 114.74722656 95.75726563 115.02734375 97.390625 C118.63119888 127.86532979 110.74103248 158.21705711 91.73828125 182.390625 C90.61679687 183.75960937 90.61679687 183.75960937 89.47265625 185.15625 C88.786875 186.00703125 88.10109375 186.8578125 87.39453125 187.734375 C71.30417899 206.68523432 45.93927597 221.23958753 20.97265625 223.46875 C16.75021399 223.09174623 15.20740429 222.38822496 12.47265625 219.15625 C11.84765625 215.71875 11.84765625 215.71875 12.47265625 212.15625 C16.42450741 207.04208968 20.21184603 206.09385288 26.22265625 204.84375 C41.2423658 201.27763809 53.57380959 194.97661222 65.47265625 185.15625 C66.52453125 184.3725 67.57640625 183.58875 68.66015625 182.78125 C80.06790956 172.13401358 88.03284818 158.67112248 93.47265625 144.15625 C92.86679687 144.16422607 92.2609375 144.17220215 91.63671875 144.18041992 C68.8168816 144.34937449 48.40351184 140.44407779 28.47265625 129.15625 C27.4878125 128.60066406 26.50296875 128.04507813 25.48828125 127.47265625 C6.85790812 116.24597187 -6.9391339 100.53334178 -16.52734375 81.15625 C-17.10355469 79.99222656 -17.67976563 78.82820313 -18.2734375 77.62890625 C-24.97421446 63.04093047 -27.74078766 47.63308232 -27.58984375 31.65625 C-27.58533203 30.7384375 -27.58082031 29.820625 -27.57617188 28.875 C-27.56450701 26.63534609 -27.54813989 24.39583455 -27.52734375 22.15625 C-53.26512913 32.41379074 -73.37520936 49.45840909 -84.52734375 75.15625 C-94.08260061 99.41190203 -94.31723267 126.12400851 -84.3125 150.2421875 C-79.01917693 162.21255303 -71.80737024 171.99797313 -62.52734375 181.15625 C-61.78742188 181.89488281 -61.0475 182.63351562 -60.28515625 183.39453125 C-47.68373711 195.2804852 -31.74137473 202.19673496 -15.12402344 206.33276367 C-12.02837428 207.15252126 -9.86049016 207.83483869 -7.53125 210.08203125 C-5.95195365 213.34509102 -6.6542419 215.726207 -7.52734375 219.15625 C-8.65234375 221.03125 -8.65234375 221.03125 -10.52734375 222.15625 C-24.80438948 225.13063453 -43.42458437 216.15687921 -55.46484375 208.71875 C-57.17020802 207.55705073 -58.85867427 206.37006821 -60.52734375 205.15625 C-61.73197266 204.28419922 -61.73197266 204.28419922 -62.9609375 203.39453125 C-87.73843346 184.48434633 -103.71640047 157.76731115 -108.0234375 126.82421875 C-111.33416035 99.00130095 -104.98059296 69.61140049 -88.1953125 46.85546875 C-86.0528008 44.20265654 -83.82740913 41.67284019 -81.52734375 39.15625 C-80.83253906 38.3209375 -80.13773438 37.485625 -79.421875 36.625 C-61.43284981 15.39205223 -34.41192759 3.60039064 -7.15234375 0.40625 C-4.76882837 0.24547325 -2.38441525 0.14741362 0 0 Z M-10.52734375 17.15625 C-16.04494029 39.36012638 -8.29951906 64.60146339 3.078125 83.63671875 C9.77587449 93.84047917 18.35685951 103.30503021 28.47265625 110.15625 C29.27195557 110.70055664 29.27195557 110.70055664 30.08740234 111.25585938 C50.75339474 125.09888598 73.77533105 129.86337671 98.47265625 127.15625 C103.64125507 106.01962232 97.041136 82.59138674 86.78125 64.109375 C72.85780765 41.23745578 52.12511403 25.41604472 26.16015625 18.84375 C13.8256856 15.90475091 2.04419445 15.50752368 -10.52734375 17.15625 Z " fill="#000000" transform="translate(168.52734375,183.84375)"/>
</svg>
