<?xml version="1.0" encoding="UTF-8"?>
<svg version="1.1" xmlns="http://www.w3.org/2000/svg" width="512" height="512">
<path d="M0 0 C0.68659226 -0.02745206 1.37318453 -0.05490412 2.08058262 -0.08318806 C4.36068519 -0.16614426 6.64002788 -0.2175713 8.92114258 -0.2644043 C9.70963844 -0.28517406 10.49813431 -0.30594383 11.31052399 -0.32734299 C17.31206323 -0.48340537 23.31230952 -0.55353061 29.31567383 -0.58862305 C30.19634144 -0.59481785 31.07700905 -0.60101265 31.98436356 -0.60739517 C58.5480836 -0.75482326 80.40038107 0.99430285 104.08984375 13.99024963 C112.7132196 18.71627862 121.77436596 22.27614871 130.89300537 25.92404175 C135.72321448 27.8656577 140.52984195 29.86390936 145.33911133 31.85668945 C147.28268372 32.65937078 149.22636954 33.4617775 151.17016602 34.26391602 C157.33621624 36.80959387 163.50176741 39.3564791 169.66723633 41.90356445 C170.70006241 42.33023407 171.73288849 42.75690369 172.79701233 43.19650269 C180.82767323 46.51404361 180.82767323 46.51404361 184.81893921 48.1630249 C196.58554842 53.02427593 208.35459987 57.87951667 220.12817383 62.72387695 C220.42675293 61.94842529 220.72533203 61.17297363 221.03295898 60.37402344 C230.4367927 37.61909365 257.06645313 16.25023728 279.02612305 6.91723633 C298.03635374 -0.44783133 317.65383915 -1.78521855 336.87817383 5.78637695 C342.57344612 8.33504867 348.05675639 11.27484073 353.56347656 14.2019043 C361.55177099 18.44160127 369.56892506 22.62316204 377.62738037 26.72790527 C379.16413328 27.51410192 380.69790952 28.30614553 382.22857666 29.10412598 C384.40246216 30.23623615 386.58595844 31.34732769 388.77270508 32.4543457 C389.42518723 32.79964828 390.07766937 33.14495087 390.74992371 33.50071716 C395.00224662 35.61797965 397.55611367 35.91835738 402.12817383 34.72387695 C414.27196072 33.69474247 425.6821573 40.60632953 436.47216797 45.53198242 C438.81724843 46.5995938 441.16874446 47.65209961 443.52075195 48.7043457 C455.56030899 54.14958548 465.22859136 59.13615156 470.94067383 71.59887695 C472.50723542 74.88928544 474.38719965 77.25530897 476.87817383 79.91137695 C492.19451072 96.51120576 500.11737645 121.10966512 500.36645508 143.5090332 C500.37624893 144.23875839 500.38604279 144.96848358 500.39613342 145.72032166 C500.57068758 162.11005521 500.30621505 177.76407963 496.12817383 193.72387695 C495.81468994 194.96548584 495.81468994 194.96548584 495.49487305 196.23217773 C489.08307188 221.08691259 478.16912707 244.39773841 461.12817383 263.72387695 C460.5584082 264.42512695 459.98864258 265.12637695 459.40161133 265.84887695 C447.13587099 280.73053348 428.15482578 293.02234955 409.05786133 296.46606445 C404.31803347 296.8831693 399.56265202 296.77034092 394.81103516 296.56298828 C390.86538667 296.45310946 387.84549601 296.70869589 384.17724609 298.21289062 C378.13543776 300.30211262 372.21330931 300.15453516 365.87817383 300.12231445 C364.62488281 300.12518463 363.3715918 300.12805481 362.08032227 300.13101196 C358.76945032 300.13356315 355.45900836 300.12158322 352.14819336 300.10473633 C350.12966384 300.09888128 348.11152561 300.10471917 346.09301758 300.11499023 C342.18788768 300.13359972 338.28332838 300.1312577 334.37817383 300.12231445 C332.58718262 300.13142349 332.58718262 300.13142349 330.76000977 300.14071655 C321.31856243 300.06180813 313.70078053 298.67378222 306.12817383 292.72387695 C303.12817383 289.32387695 303.12817383 289.32387695 303.12817383 286.72387695 C301.96801758 286.75610352 300.80786133 286.78833008 299.61254883 286.8215332 C291.79481559 286.82306369 284.01873961 285.77577951 276.25561523 284.93017578 C274.19813125 284.70784169 272.13984776 284.49468333 270.08129883 284.2824707 C268.25840332 284.08609009 268.25840332 284.08609009 266.39868164 283.88574219 C263.33766416 283.73424513 261.04093898 283.80063729 258.12817383 284.72387695 C256.18754299 286.82169284 254.61979543 288.77172409 253.00317383 291.09887695 C252.53524414 291.75355957 252.06731445 292.40824219 251.58520508 293.08276367 C246.31001279 300.62453025 241.77441432 308.61368947 237.30395508 316.65014648 C235.95274127 319.03328811 234.54072996 321.37667791 233.12817383 323.72387695 C234.25997574 323.72601448 234.25997574 323.72601448 235.41464233 323.72819519 C242.56391775 323.74610652 249.71248035 323.78795796 256.86144066 323.85596752 C260.53588215 323.89009861 264.20991404 323.91532559 267.88452148 323.91943359 C271.43812351 323.9237468 274.99080373 323.95245463 278.54411697 323.99730873 C280.54343099 324.01640929 282.54293172 324.01095584 284.54232788 324.00492859 C293.81025161 324.15168081 301.38035158 325.8338478 308.19458008 332.45043945 C309.01829102 333.40692383 309.84200195 334.3634082 310.69067383 335.34887695 C311.14845215 335.87247803 311.60623047 336.3960791 312.07788086 336.93554688 C315.71019142 341.12235569 319.20695043 345.42655113 322.68286133 349.7434082 C325.59821045 353.29678101 328.60626159 356.7611425 331.62817383 360.22387695 C336.10374091 365.35595466 340.46825267 370.55573905 344.75317383 375.84887695 C347.65313258 379.35935334 350.63575521 382.79220422 353.62817383 386.22387695 C358.10351899 391.35615352 362.46824509 396.55572969 366.75317383 401.84887695 C369.65313733 405.35935908 372.63590813 408.79206455 375.62817383 412.22387695 C380.91727431 418.29439987 386.08643558 424.44532387 391.12817383 430.72387695 C391.76846527 431.35844818 392.40875671 431.99301941 393.06845093 432.64682007 C399.92123989 439.96720168 400.27033008 446.64607575 400.08520508 456.1809082 C400.08297051 457.65679264 400.08356594 459.13268378 400.08683777 460.60856628 C400.08510508 463.68284527 400.0562729 466.75523578 400.00634766 469.82910156 C399.94370286 473.76151898 399.93911883 477.69138744 399.95332813 481.62419605 C399.95974598 484.66392478 399.94097237 487.70308063 399.91406822 490.7426815 C399.90322548 492.19267082 399.89890397 493.64272466 399.90134621 495.09275246 C399.89991445 497.11685427 399.8620982 499.14083089 399.82275391 501.16455078 C399.80321404 502.88802483 399.80321404 502.88802483 399.78327942 504.64631653 C398.90957087 508.75083172 397.36270873 510.09567825 394.12817383 512.72387695 C390.94056028 513.34947211 390.94056028 513.34947211 387.26154232 513.35028934 C386.57993364 513.35725695 385.89832495 513.36422456 385.19606146 513.37140331 C382.90690575 513.38867973 380.61943548 513.37026731 378.33030701 513.35206604 C376.67478973 513.35711007 375.0192779 513.36433779 373.36377865 513.37356418 C368.81058388 513.39253375 364.25792449 513.38022637 359.70474303 513.36284125 C354.79602226 513.34949541 349.88738129 513.36489427 344.97866821 513.37666321 C335.36124397 513.39506457 325.74402258 513.386511 316.12660461 513.36857498 C308.31257413 513.35456332 300.4985988 513.35065309 292.68455696 513.35401726 C291.57346944 513.3544947 290.46238193 513.35497214 289.31762509 513.35546405 C287.06065867 513.35649036 284.80369227 513.35754571 282.54672588 513.35862982 C262.57944977 513.36720183 242.61227177 513.35050516 222.64501953 513.32080078 C203.25695678 513.29195831 183.86903535 513.28488104 164.48095703 513.30029297 C143.38174661 513.31704208 122.28260331 513.32110282 101.18339115 513.30358261 C98.93491909 513.30173817 96.68644701 513.29990344 94.43797493 513.29807854 C93.3316045 513.29716645 92.22523407 513.29625436 91.08533726 513.29531463 C83.27749096 513.2897015 75.46967735 513.2930236 67.66183281 513.29962349 C58.15134176 513.30734326 48.64098999 513.30065298 39.13052707 513.27544845 C34.27536334 513.26292231 29.42041678 513.25684451 24.56524467 513.26799011 C20.12467431 513.27799173 15.68453811 513.26966056 11.24402083 513.24640893 C9.6337537 513.24122684 8.02344803 513.24285224 6.41319745 513.25180358 C4.23126035 513.26292812 2.05080948 513.24964565 -0.1310358 513.23003483 C-1.95190617 513.22824761 -1.95190617 513.22824761 -3.80956179 513.22642428 C-7.48291103 512.62359199 -8.66431852 511.67204858 -10.87182617 508.72387695 C-11.44032288 505.72428894 -11.44032288 505.72428894 -11.53222656 502.17382812 C-11.55369247 501.52434204 -11.57515839 500.87485596 -11.59727478 500.20568848 C-11.6607095 498.05926957 -11.69292229 495.91402095 -11.71948242 493.7668457 C-11.73204008 493.02798944 -11.74459774 492.28913319 -11.75753593 491.52788734 C-11.82335122 487.6072624 -11.86533103 483.68721827 -11.88769531 479.76611328 C-11.90962097 476.54716805 -11.97180793 473.33316171 -12.07226562 470.11572266 C-12.97670306 440.59092614 -12.97670306 440.59092614 -6.36485291 432.22761536 C-4.18952181 429.95316375 -1.92628289 427.92968896 0.56350708 426.00674438 C2.95813586 424.04339259 4.75199855 421.67170122 6.62817383 419.22387695 C10.74710549 414.1357849 15.02964717 409.20383872 19.33129883 404.27075195 C22.49296614 400.63631196 25.59674855 396.96857877 28.62817383 393.22387695 C32.74710549 388.1357849 37.02964717 383.20383872 41.33129883 378.27075195 C44.49296614 374.63631196 47.59674855 370.96857877 50.62817383 367.22387695 C54.74246829 362.14151321 59.01817588 357.2131956 63.31811523 352.28833008 C66.62468071 348.49107534 69.84595678 344.64615343 73.00317383 340.72387695 C84.0859414 327.16259954 84.0859414 327.16259954 93.12817383 324.72387695 C99.18669816 324.18110649 105.21085547 324.25712115 111.28833008 324.33325195 C113.04665988 324.34072319 114.80499808 324.34641195 116.56333923 324.35040283 C121.16498274 324.36558976 125.76611181 324.40481062 130.36755371 324.44921875 C135.07349694 324.49032225 139.77952425 324.50844589 144.4855957 324.52856445 C153.70001298 324.57131251 162.91405043 324.63947847 172.12817383 324.72387695 C172.20465149 324.10241791 172.28112915 323.48095886 172.35992432 322.84066772 C173.83794231 310.92585032 175.36307489 299.09581755 177.87817383 287.34887695 C178.13348877 286.13973633 178.38880371 284.9305957 178.65185547 283.68481445 C181.71581421 269.53008389 185.37629542 255.49356811 190.16333008 241.81762695 C190.65651733 240.40223633 190.65651733 240.40223633 191.15966797 238.95825195 C191.78191865 237.20145648 192.42164227 235.45069904 193.08300781 233.70825195 C195.15211905 227.9408915 195.31447467 223.70560759 194.12817383 217.72387695 C193.94770508 216.77609375 193.76723633 215.82831055 193.58129883 214.85180664 C192.74348253 210.60499099 191.8459209 206.37166608 190.94458008 202.13793945 C185.79000772 177.24959007 187.19105219 151.34314136 193.12817383 126.72387695 C192.60570068 126.59070068 192.08322754 126.45752441 191.54492188 126.3203125 C183.52283543 124.10389237 176.00027208 120.84738226 168.36727905 117.57595825 C164.13894684 115.76449957 159.90274413 113.97160343 155.66723633 112.17700195 C154.79252182 111.8059584 153.91780731 111.43491486 153.0165863 111.05262756 C143.97910994 107.22491163 134.90112028 103.4984644 125.81567383 99.78637695 C122.54985159 98.45092128 119.28424923 97.11492907 116.01879883 95.77856445 C115.20520905 95.44563385 114.39161926 95.11270325 113.55337524 94.76968384 C103.53289897 90.66584564 93.5330987 86.51223237 83.53277588 82.35958862 C72.42957569 77.74904611 61.32181407 73.14987839 50.20695496 68.56750488 C42.42873727 65.36057615 34.65326997 62.14704722 26.87971497 58.92883301 C22.11141986 56.95533029 17.34041473 54.98877088 12.56498718 53.03259277 C9.54122243 51.79145721 6.52255418 50.53813944 3.50317383 49.28637695 C2.47329346 48.8682373 1.44341309 48.45009766 0.38232422 48.01928711 C-0.53943604 47.63434082 -1.46119629 47.24939453 -2.41088867 46.8527832 C-3.57418701 46.3743396 -3.57418701 46.3743396 -4.76098633 45.88623047 C-7.45492901 44.40278597 -9.02906398 43.21824766 -10.87182617 40.72387695 C-11.26975173 37.88283863 -11.43354368 35.43705401 -11.40307617 32.59887695 C-11.40690308 31.81496582 -11.41072998 31.03105469 -11.41467285 30.22338867 C-11.4173897 28.56924146 -11.41004428 26.91505113 -11.39331055 25.26098633 C-11.37189509 22.73201534 -11.39311714 20.20588481 -11.41870117 17.67700195 C-11.41605785 16.0676207 -11.41093278 14.4582412 -11.40307617 12.84887695 C-11.4111731 12.09461426 -11.41927002 11.34035156 -11.4276123 10.56323242 C-11.36973094 7.31521846 -11.21634824 5.19367917 -9.26896667 2.53816223 C-6.07941368 0.12413643 -3.98174551 0.13664006 0 0 Z M7.12817383 18.72387695 C7.12817383 22.68387695 7.12817383 26.64387695 7.12817383 30.72387695 C24.27718214 38.16403832 41.50676001 45.37943951 58.80981445 52.453125 C60.50188682 53.14490129 62.19394401 53.83671468 63.88598633 54.52856445 C64.73094666 54.87403824 65.57590698 55.21951202 66.44647217 55.57545471 C75.70732002 59.36495981 84.94968293 63.19875948 94.19067383 67.03637695 C97.61247324 68.45713201 101.034341 69.87772225 104.45629883 71.2980957 C105.31845001 71.65595657 106.1806012 72.01381744 107.06887817 72.38252258 C116.54321418 76.31352703 126.0253419 80.22562948 135.50723267 84.1383667 C156.06624771 92.62222478 176.6057885 101.15180153 197.12817383 109.72387695 C199.3279968 107.52405398 199.90410797 106.03931682 200.96801758 103.14575195 C201.30897461 102.23180664 201.64993164 101.31786133 202.0012207 100.3762207 C202.35249023 99.41844727 202.70375977 98.46067383 203.06567383 97.47387695 C205.18442963 91.72689925 207.35084193 86.19147705 210.12817383 80.72387695 C210.12817383 80.06387695 210.12817383 79.40387695 210.12817383 78.72387695 C196.81755918 72.78601666 183.39644065 67.16744319 169.87817383 61.72387695 C156.12423309 56.18429618 142.42256059 50.53143686 128.75317383 44.78637695 C112.53076362 37.96861427 96.27446437 31.2393062 79.98413086 24.58544922 C79.19789841 24.2640799 78.41166595 23.94271057 77.60160828 23.61160278 C76.13579188 23.01265598 74.66967364 22.41444714 73.20320129 21.81710815 C68.34998278 19.83478143 68.34998278 19.83478143 66.12817383 18.72387695 C64.24897835 18.63276914 62.3665059 18.60634859 60.48510742 18.61035156 C59.30403412 18.61042709 58.12296082 18.61050262 56.90609741 18.61058044 C54.9857518 18.61832237 54.9857518 18.61832237 53.02661133 18.6262207 C51.0665062 18.62834312 51.0665062 18.62834312 49.06680298 18.63050842 C45.59141125 18.63432801 42.11606126 18.64415353 38.64068604 18.6552124 C35.09485438 18.66543852 31.54901598 18.67000862 28.00317383 18.67504883 C21.04482161 18.68577629 14.08650402 18.70336859 7.12817383 18.72387695 Z M258.12817383 43.72387695 C257.24387695 44.54500977 256.35958008 45.36614258 255.44848633 46.2121582 C227.32847354 73.09743955 212.33514849 111.77544562 207.12817383 149.72387695 C206.99797852 150.64040039 206.8677832 151.55692383 206.73364258 152.5012207 C204.99382941 167.55640397 205.96018715 182.78025451 208.12817383 197.72387695 C215.81841679 187.65911837 219.08448801 180.24879247 218.81567383 167.47387695 C219.01462719 139.87547467 225.02669779 114.50193669 237.12817383 89.72387695 C237.69407227 88.56243164 238.2599707 87.40098633 238.84301758 86.2043457 C250.96721804 62.61207798 268.87790702 42.66675417 294.48364258 33.91918945 C306.96496371 30.59993101 319.45721667 32.67746529 330.81567383 38.41137695 C344.9826349 46.63345393 353.06046016 61.37242483 357.28833008 76.8293457 C363.10156923 99.16897502 363.63197102 125.15979195 358.12817383 147.72387695 C357.92949707 148.55064941 357.73082031 149.37742188 357.52612305 150.22924805 C348.31189387 187.42436492 330.28702481 218.36133232 298.92236328 240.79272461 C289.71394246 247.38106209 281.04917366 254.67697274 274.12817383 263.72387695 C274.12817383 264.05387695 274.12817383 264.38387695 274.12817383 264.72387695 C296.62049945 263.58019938 314.86557354 248.24196247 329.5612793 232.47290039 C344.35676029 215.95765797 354.88276869 195.54102222 362.12817383 174.72387695 C362.40886719 173.92159668 362.68956055 173.11931641 362.97875977 172.29272461 C376.31609696 133.29397364 377.94125856 89.11043718 359.57348633 51.54418945 C351.35117212 36.39782118 339.53081654 25.65240059 322.95239258 20.45043945 C298.18748752 14.07938504 275.51943357 27.0140929 258.12817383 43.72387695 Z M377.12817383 47.72387695 C377.35480713 48.37235596 377.58144043 49.02083496 377.81494141 49.68896484 C383.89003499 67.18021696 389.21399491 84.16565285 389.33129883 102.8605957 C389.33835846 103.61374557 389.34541809 104.36689545 389.35269165 105.14286804 C389.72019842 155.91135049 376.34955893 207.74449007 341.05786133 245.96606445 C339.44664871 247.59122697 337.80299134 249.16487129 336.12817383 250.72387695 C335.34442383 251.52825195 334.56067383 252.33262695 333.75317383 253.16137695 C327.61664452 259.15179842 321.55673942 264.40180243 314.12817383 268.72387695 C321.0423761 273.33334513 333.00046498 273.5857452 341.12817383 272.72387695 C345.64955885 270.42504271 347.42670235 267.9833135 350.12817383 263.72387695 C351.26699057 262.23814958 352.42080681 260.76386038 353.58520508 259.2980957 C361.99016339 248.62744374 369.3831815 237.50228215 376.12817383 225.72387695 C376.49539551 225.10174316 376.86261719 224.47960937 377.2409668 223.83862305 C401.81388026 182.0321752 421.58621714 124.50081482 417.12817383 75.72387695 C417.06745697 74.93335937 417.00674011 74.1428418 416.94418335 73.32836914 C416.33739904 68.26423208 416.33739904 68.26423208 413.56684875 64.15272522 C411.47652951 62.84112816 409.38365537 61.81081993 407.12817383 60.80981445 C406.33668945 60.42443512 405.54520508 60.03905579 404.72973633 59.64199829 C402.21085642 58.4261061 399.67130993 57.26303604 397.12817383 56.09887695 C395.41827633 55.2805226 393.70992041 54.4589389 392.00317383 53.6340332 C384.8155504 49.62209248 384.8155504 49.62209248 377.12817383 47.72387695 Z M265.61791992 76.6340332 C262.51118419 80.83333173 259.76659402 85.21914159 257.12817383 89.72387695 C256.77174805 90.32135742 256.41532227 90.91883789 256.0480957 91.53442383 C243.8384965 112.24352302 236.58706119 136.65314883 236.12817383 160.72387695 C236.79977539 160.50731445 237.47137695 160.29075195 238.16333008 160.06762695 C266.58944219 152.14499442 298.37108575 161.15563912 325.26489258 170.84106445 C328.26586576 171.9203006 328.26586576 171.9203006 332.12817383 171.72387695 C344.47759415 140.74625801 350.73302656 104.43045918 337.49926758 72.62231445 C333.09995689 63.32234714 326.54790517 54.4069761 316.56567383 50.72387695 C295.75612543 45.1794644 277.60105944 61.47786062 265.61791992 76.6340332 Z M434.12817383 65.72387695 C434.15959473 67.15546143 434.15959473 67.15546143 434.19165039 68.6159668 C434.59262693 88.72321019 434.19419567 107.93716769 430.12817383 127.72387695 C429.92981934 128.74465332 429.73146484 129.76542969 429.52709961 130.81713867 C419.06471869 184.02795905 395.86542869 238.61306106 359.4440918 279.14648438 C358.02140825 280.50948749 358.02140825 280.50948749 358.12817383 281.72387695 C372.03384765 283.04484462 372.03384765 283.04484462 384.24536133 277.65356445 C384.86668945 277.01676758 385.48801758 276.3799707 386.12817383 275.72387695 C386.81137695 275.06645508 387.49458008 274.4090332 388.19848633 273.73168945 C401.1417199 260.32454069 410.94710745 243.8148863 420.12817383 227.72387695 C420.52987793 227.03036133 420.93158203 226.3368457 421.34545898 225.62231445 C436.97032902 198.46020549 447.25116029 167.42443896 453.12817383 136.72387695 C453.29188477 135.87970215 453.4555957 135.03552734 453.62426758 134.16577148 C455.64446882 123.34475555 456.41495009 112.66672272 456.50317383 101.66137695 C456.51711182 100.55576416 456.5310498 99.45015137 456.54541016 98.31103516 C456.49584235 89.74867996 455.73942854 81.20442192 451.35473633 73.6809082 C448.59150107 71.25216985 445.87183018 69.8827878 442.50317383 68.41137695 C441.3559082 67.89961914 440.20864258 67.38786133 439.02661133 66.8605957 C436.33674713 65.602174 436.33674713 65.602174 434.12817383 65.72387695 Z M474.12817383 111.72387695 C474.0133667 112.57691406 473.89855957 113.42995117 473.78027344 114.30883789 C465.78173314 172.71732852 446.81272893 229.4220345 409.12817383 275.72387695 C413.29117278 277.11154327 415.26811373 275.87972044 419.20239258 274.1887207 C435.95401532 265.80172667 449.4189473 251.5349494 459.12817383 235.72387695 C459.80106445 234.66168945 460.47395508 233.59950195 461.16723633 232.50512695 C479.7554596 201.78790857 487.94551425 163.48091735 479.94458008 128.2277832 C477.981568 119.58672994 477.981568 119.58672994 474.12817383 111.72387695 Z M240.88598633 179.53637695 C234.48445117 188.1125963 229.20607292 197.32009231 224.12817383 206.72387695 C223.70777832 207.49505859 223.28738281 208.26624023 222.85424805 209.06079102 C199.03758506 253.51730129 191.10316141 306.114546 187.12817383 355.72387695 C187.02013428 357.04959717 187.02013428 357.04959717 186.90991211 358.40209961 C186.01065573 369.83959119 186.02146027 381.25809808 186.12817383 392.72387695 C188.76817383 392.72387695 191.40817383 392.72387695 194.12817383 392.72387695 C194.2179248 392.01593994 194.30767578 391.30800293 194.40014648 390.57861328 C197.15914133 369.30892761 201.38351076 349.37840732 210.12817383 329.72387695 C210.44093262 329.01086426 210.75369141 328.29785156 211.07592773 327.56323242 C221.49235354 304.02422665 235.45016274 282.31482834 252.12817383 262.72387695 C253.03510495 261.64371931 253.94131999 260.56296014 254.84692383 259.48168945 C257.58938327 256.21361559 260.35467979 252.96562323 263.12817383 249.72387695 C263.85262695 248.8730957 264.57708008 248.02231445 265.32348633 247.14575195 C272.80296831 238.5223492 281.53610456 231.77980831 290.58569336 224.89770508 C293.45983481 222.71048252 296.32265351 220.51015655 299.15942383 218.2746582 C300.37505093 217.31711066 301.60219586 216.37374704 302.84692383 215.4543457 C311.41090712 208.76878328 318.93761749 198.70139204 323.12817383 188.72387695 C303.77061506 180.4695217 282.25408624 174.60915513 261.12817383 174.34887695 C260.36287354 174.3348584 259.59757324 174.32083984 258.80908203 174.30639648 C252.36433302 174.36110216 246.00691905 175.39680765 240.88598633 179.53637695 Z M88.12817383 350.72387695 C86.97575195 352.05805664 86.97575195 352.05805664 85.80004883 353.41918945 C84.8487207 354.62188477 84.8487207 354.62188477 83.87817383 355.84887695 C80.40824675 360.16541854 76.86713728 364.403303 73.25317383 368.59887695 C69.33960115 373.14661346 65.4381194 377.70354366 61.56567383 382.28637695 C61.11595215 382.81859863 60.66623047 383.35082031 60.20288086 383.89916992 C59.29748941 384.97101035 58.39221565 386.04295021 57.48706055 387.11499023 C55.20271197 389.81959985 52.91527875 392.52159823 50.62817383 395.22387695 C49.71149257 396.30719794 48.7948259 397.39053127 47.87817383 398.47387695 C42.37817383 404.97387695 42.37817383 404.97387695 41.00195312 406.60009766 C40.08906334 407.67911489 39.17646371 408.75837769 38.26416016 409.83789062 C35.91707546 412.61438656 33.56448212 415.38591146 31.20239258 418.1496582 C30.71899414 418.7168457 30.2355957 419.2840332 29.73754883 419.8684082 C28.40445803 421.43222625 27.06912956 422.99413598 25.73364258 424.5559082 C22.7484156 428.18562196 19.94794416 431.96418317 17.12817383 435.72387695 C133.61817383 435.72387695 250.10817383 435.72387695 370.12817383 435.72387695 C367.47891414 431.30674444 367.47891414 431.30674444 364.37817383 427.41137695 C363.85787598 426.81760254 363.33757812 426.22382813 362.80151367 425.61206055 C362.24931152 424.98895996 361.69710938 424.36585938 361.12817383 423.72387695 C359.95306262 422.38328488 358.77859395 421.04212934 357.60473633 419.70043945 C357.01853516 419.03173828 356.43233398 418.36303711 355.82836914 417.67407227 C353.35760936 414.8400072 350.92640365 411.97359646 348.50317383 409.09887695 C348.05780273 408.57100586 347.61243164 408.04313477 347.15356445 407.49926758 C346.25909047 406.43862135 345.36488308 405.37775024 344.47094727 404.31665039 C342.19395952 401.61572893 339.91075193 398.92007388 337.62817383 396.22387695 C334.88836068 392.986887 332.14921831 389.74934159 329.41333008 386.5090332 C328.50586649 385.43473969 327.59831423 384.36052108 326.69067383 383.28637695 C326.01609131 382.48804443 326.01609131 382.48804443 325.32788086 381.67358398 C321.90690631 377.63083486 318.45727541 373.61332518 315.00317383 369.59887695 C311.38496694 365.39232018 307.81758602 361.15343456 304.31567383 356.84887695 C298.55415473 348.82829926 298.55415473 348.82829926 291.12817383 342.72387695 C289.00400383 342.63212661 286.87687928 342.60637001 284.75073242 342.61035156 C284.09695114 342.61020554 283.44316986 342.61005951 282.76957703 342.60990906 C280.60522156 342.6106066 278.44095179 342.61839156 276.27661133 342.6262207 C274.77731371 342.62808545 273.27801548 342.62950908 271.77871704 342.63050842 C267.8298576 342.63432916 263.88103486 342.64415568 259.93218994 342.6552124 C255.90377295 342.66543604 251.87535005 342.67000809 247.84692383 342.67504883 C239.94065698 342.68577833 232.03441996 342.70284945 224.12817383 342.72387695 C223.4833846 344.12691861 222.84378348 345.53234509 222.20629883 346.9387207 C221.84955078 347.72110107 221.49280273 348.50348145 221.12524414 349.30957031 C219.71546537 352.72320945 218.91463502 356.11926314 218.12817383 359.72387695 C218.78712646 359.82410156 219.4460791 359.92432617 220.125 360.02758789 C259.02963159 366.01970962 259.02963159 366.01970962 268.12817383 376.72387695 C270.74724508 380.34068963 270.74834615 384.42294162 270.12817383 388.72387695 C267.4961833 395.47550482 263.61971382 397.85319594 257.12817383 400.72387695 C248.75414378 404.36873558 240.12875868 406.31852618 231.12817383 407.72387695 C230.45866699 407.82974121 229.78916016 407.93560547 229.09936523 408.04467773 C203.91895874 411.78059038 176.09861754 411.5520457 151.12817383 406.72387695 C150.36794922 406.57934082 149.60772461 406.43480469 148.82446289 406.28588867 C137.83659387 404.10330052 125.91284194 401.2438054 119.12817383 391.72387695 C117.26844933 388.00442796 117.69659373 383.78323177 118.12817383 379.72387695 C121.22509767 372.88483679 126.67067666 370.07878624 133.39770508 367.44262695 C144.97458416 363.39961513 157.04797175 361.5959272 169.12817383 359.72387695 C169.98373156 355.76692245 170.18332593 352.0239006 170.15942383 347.9934082 C170.15265625 346.51191284 170.15265625 346.51191284 170.14575195 345.00048828 C170.13995117 344.24920654 170.13415039 343.4979248 170.12817383 342.72387695 C160.61820199 342.5380843 151.10885968 342.39615463 141.59746552 342.30937958 C137.18028932 342.26771976 132.76435936 342.21126614 128.34790039 342.12036133 C124.08136352 342.03309728 119.81602102 341.98553362 115.54866028 341.96485901 C113.92508651 341.95013663 112.30157433 341.92138491 110.67851257 341.8780365 C100.75956411 341.62378666 94.21842108 341.96539447 88.12817383 350.72387695 Z M214.12817383 377.72387695 C212.53690493 382.59713796 211.91625162 386.53178291 212.12817383 391.72387695 C224.16647026 392.69776161 236.81690059 389.76752053 248.12817383 385.72387695 C248.12817383 385.06387695 248.12817383 384.40387695 248.12817383 383.72387695 C245.2755001 382.90580861 242.42122198 382.09429899 239.56567383 381.28637695 C238.76581055 381.0562793 237.96594727 380.82618164 237.1418457 380.58911133 C230.85493643 378.81851239 224.75942014 377.56031932 218.19067383 377.66137695 C217.03245117 377.67491211 217.03245117 377.67491211 215.85083008 377.6887207 C214.99811523 377.70612305 214.99811523 377.70612305 214.12817383 377.72387695 Z M140.12817383 383.72387695 C139.79817383 384.38387695 139.46817383 385.04387695 139.12817383 385.72387695 C153.42582554 389.81504756 153.42582554 389.81504756 168.12817383 391.72387695 C168.12817383 387.10387695 168.12817383 382.48387695 168.12817383 377.72387695 C159.05718471 377.72387695 148.46672522 380.29911477 140.12817383 383.72387695 Z M7.12817383 453.72387695 C7.12817383 467.25387695 7.12817383 480.78387695 7.12817383 494.72387695 C130.54817383 494.72387695 253.96817383 494.72387695 381.12817383 494.72387695 C381.12817383 481.19387695 381.12817383 467.66387695 381.12817383 453.72387695 C257.70817383 453.72387695 134.28817383 453.72387695 7.12817383 453.72387695 Z " fill="#000000" transform="translate(10.871826171875,-0.723876953125)"/>
<path d="M0 0 C5.7579264 5.45487765 8.80638398 12.67555938 9.09375 20.578125 C8.6502798 27.80668921 6.33980371 33.29075359 1.625 38.75 C-5.43161546 44.79852754 -12.04939866 47.33098102 -21.4609375 46.8828125 C-28.88746633 45.6059707 -35.56258757 41.53323451 -39.9375 35.375 C-43.77204702 28.41156912 -45.08452411 19.83827711 -42.8828125 12.16015625 C-39.80851084 4.63763935 -35.44220708 -0.63127369 -28 -4 C-18.36206114 -7.86683434 -8.39741409 -5.83032895 0 0 Z M-24 15 C-25.54586876 18.09173752 -25.29359521 20.59429552 -25 24 C-23.58333333 26.58333333 -23.58333333 26.58333333 -21 28 C-16.97940837 28.57437023 -14.93631674 28.6899176 -11.625 26.25 C-9.51772552 23.38961935 -9.51772552 23.38961935 -9 20 C-10.31380137 16.13587834 -11.21138893 14.43811726 -14.8125 12.4375 C-18.85048027 11.88326741 -20.62752789 12.80397165 -24 15 Z " fill="#000000" transform="translate(154,227)"/>
<path d="M0 0 C2.69990662 1.79993774 4.5418865 3.083773 6 6 C6.25491388 9.9086795 6.23289019 12.70942498 4 16 C0.3106 18.4596 -2.71832808 18.7996897 -7 18 C-10 15.9375 -10 15.9375 -12 13 C-12.69151325 8.69725091 -12.51557405 6.79054688 -10.125 3.125 C-6.79974618 -0.20025382 -4.65430991 -0.45630489 0 0 Z " fill="#000000" transform="translate(114,153)"/>
<path d="M0 0 C3.59006454 0.80332137 4.97678728 2.4476028 6.97265625 5.44140625 C7.64904683 8.46421371 7.42824466 10.25228738 6.97265625 13.44140625 C4.83010473 16.78378663 3.36983127 17.33308579 -0.46484375 18.37890625 C-4.47137526 18.44919628 -5.97088893 17.97389739 -9.02734375 15.44140625 C-11.1283597 12.76738595 -11.02581351 11.3985594 -10.90234375 7.94140625 C-9.33678125 1.67915626 -6.62037403 -0.38361046 0 0 Z " fill="#000000" transform="translate(87.02734375,195.55859375)"/>
</svg>
