<svg id="ezHR9aoD3F41" xmlns="http://www.w3.org/2000/svg" xmlns:xlink="http://www.w3.org/1999/xlink" viewBox="0 0 512 512" shape-rendering="geometricPrecision" text-rendering="geometricPrecision"><path d="M0,0C2.44053,1.798285,3.633995,3.189561,4.875,5.9375c.214035,3.531582-1.21347,6.245116-3.406281,8.954544-.599565.592903-1.19913,1.185807-1.816864,1.796677-1.020831,1.020492-1.020831,1.020492-2.062286,2.061599-1.100079,1.076854-1.100079,1.076854-2.222381,2.175461-.751836.747591-1.503672,1.495182-2.27829,2.265427-2.397672,2.380909-4.805575,4.751162-7.213898,7.121292-1.629592,1.614542-3.258507,3.229769-4.886719,4.845703C-22.999989,39.113436,-26.996706,43.059976,-31,47c.659426-.174884,1.318852-.349769,1.998261-.529953c3.018089-.798754,6.037241-1.593415,9.056427-2.388016c1.037292-.275174,2.074584-.550349,3.14331-.833862C-9.552859,41.344513,-2.465286,39.776793,5,39c1.036406-.10957,2.072813-.219141,3.140625-.332031C52.27096,34.670656,96.269321,46.681995,131.3125,74c1.57732,1.315768,3.139299,2.65009,4.6875,4c.939727.818555,1.879453,1.637109,2.847656,2.480469C172.772064,110.55886,193.879085,152.46821,196.875,197.90625c.874551,21.645125-1.728693,41.990167-7.443604,62.865234-.268532.981742-.537065,1.963484-.813735,2.974976-.305742,1.115502-.305742,1.115502-.617661,2.25354.397382-.401069.794764-.802139,1.204188-1.215362c9.670674-9.759018,19.352536-19.506813,29.046563-29.242637c4.687639-4.708532,9.371448-9.420687,14.046856-14.141366c4.510536-4.553936,9.030718-9.098086,13.55781-13.635561c1.727096-1.734498,3.450662-3.472517,5.170651-5.214062c2.406187-2.435142,4.82452-4.857559,7.246149-7.27733.711381-.725763,1.422762-1.451525,2.1557-2.19928.663178-.657679,1.326355-1.315358,2.009629-1.992966.57059-.574277,1.141179-1.148554,1.72906-1.740233C266.442964,187.675954,268.212004,187.297046,271,187c3.812633,1.063991,4.75011,1.625165,7,5c.588681,3.335857.832622,5.782258-1.148067,8.679093-5.906568,6.505299-12.100799,12.718009-18.313847,18.928085-1.254303,1.257299-2.508402,2.514802-3.762314,3.772491-3.388288,3.397077-6.77977,6.790947-10.172135,10.183951-2.124205,2.124918-4.247694,4.250547-6.370933,6.37643-7.421234,7.43047-14.845031,14.858368-22.271278,22.283827-6.89993,6.89933-13.794266,13.804215-20.685994,20.711737-5.936377,5.949492-11.876643,11.895082-17.8199,17.837701-3.541058,3.540805-7.080579,7.083112-10.616184,10.629363-3.328028,3.337775-6.660912,6.670626-9.997431,9.999914-1.216225,1.215187-2.430781,2.432048-3.643436,3.650797C146.113756,332.171372,138.917857,338.800699,131,345c-.579309.466154-1.158618.932309-1.755482,1.412589-25.641089,20.426191-60.406108,33.466679-93.310924,33.825692-.747727.009839-1.495454.019679-2.265839.029816C16.7794,380.444416,0.454868,380.286821,-16,376c-.906694-.23606-1.813389-.472119-2.747559-.715332-44.382639-12.024013-81.424745-41.190775-104.650878-80.690918-12.91216-22.518353-21.642185-48.667299-21.804688-74.800781-.00706-.758709-.014119-1.517418-.021393-2.299118C-145.45238,185.818752,-145.45238,185.818752,-142,172c.305991-1.257561.305991-1.257561.618164-2.540527C-138.385937,157.447531,-134.467011,146.10418,-129,135c.339023-.695771.678047-1.391543,1.027344-2.108398c6.609976-13.419706,14.424264-25.470989,24.671875-36.415039c1.854513-1.9962,3.634699-4.021999,5.409225-6.087906c3.973522-4.546497,8.183268-8.82105,12.45723-13.083725.826863-.828616,1.653726-1.657231,2.505646-2.510956c2.709409-2.713779,5.422421-5.423921,8.135711-8.13382c1.891072-1.891745,3.781995-3.783638,5.672776-5.675674c3.949647-3.951459,7.901381-7.900822,11.854324-11.848984c4.570733-4.56527,9.137823-9.134162,13.703081-13.704907c3.928662-3.933195,7.859263-7.864445,11.791502-11.794064c2.345081-2.343522,4.689283-4.687909,7.032129-7.033666c2.604413-2.606939,5.211988-5.210673,7.820456-7.813554.776625-.778649,1.55325-1.557299,2.353409-2.359543.707836-.705017,1.415672-1.410033,2.144958-2.136414.923826-.92326.923826-.92326,1.866315-1.865172C-7.268261,-0.591506,-4.337516,-0.373924,0,0ZM-77.828125,93.980469c-1.903921,1.770372-3.850787,3.433389-5.859375,5.082031C-109.616282,121.321547,-125.379224,158.665441,-129,192c-.290112,5.566007-.341346,11.115044-.3125,16.6875.002155.750174.00431,1.500348.006531,2.273254.051825,11.247847.459957,22.110356,3.305969,33.039246.198677.784072.397354,1.568145.602051,2.375977c10.381197,39.922894,35.338609,74.950672,70.878418,96.374023C-35.62701,353.759703,-13.890917,361.970208,8,364c.665801.065581,1.331602.131162,2.017578.19873c42.737109,3.981541,83.492916-9.433204,116.383057-36.565673c31.519298-26.601271,50.318886-64.52915,54.216553-105.465088C183.663743,183.9046,172.56573,144.058988,148.375,114c-1.44525-1.678025-2.903197-3.345216-4.375-5-.705117-.825-1.410234-1.65-2.136719-2.5C114.08986,74.58799,74.899642,57.023103,33,54c-40.342066-2.006864-81.265407,12.398259-110.828125,39.980469Z" transform="translate(145 132)"/><path d="M0,0C18.21263,15.336674,30.841796,36.107203,33.869629,60.041504c1.431103,26.375589-4.067842,51.097963-21.81543,71.465576-12.845738,14.299519-31.291193,26.616258-50.80957,28.971924-3.375-.4375-3.375-.4375-6.375-2.4375-2.363926-3.545889-2.347018-5.065252-1.785156-9.132813c1.111969-2.644384,2.301313-3.421308,4.785156-4.867187c2.499477-.8219,4.966437-1.557642,7.5-2.25c18.635668-5.502583,32.605289-17.477505,42.472656-34.066406c9.280598-17.319842,12.138322-36.699544,7.002686-55.824952C9.007266,32.614655,-2.953923,16.503695,-20.793701,6.772705c-18.840626-9.714591-38.996426-11.737784-59.334717-5.42456-9.288162,3.216875-17.688413,8.125826-25.001953,14.693359-.821133.72832-1.642266,1.456641-2.488281,2.207031-13.776695,12.940476-21.471164,30.258969-22.730469,49.058594-.564405,20.977067,6.589566,40.182335,20.953125,55.425781.747656.761836,1.495312,1.523672,2.265625,2.308594.603281.627773,1.206562,1.255547,1.828125,1.902344c9.13739,8.759976,21.142147,13.506973,33.125,16.894531c3.283745,1.296658,4.403645,2.124962,6.046875,5.203125.592187,4.145313.666326,6.111565-1.875,9.5-6.609408,3.172516-13.219273.633666-19.875-1.5625-13.325528-5.07295-23.202076-12.00991-33.25-21.9375-.654844-.582656-1.309688-1.165313-1.984375-1.765625-15.27284-13.871662-22.963959-36.907687-24.253906-56.933594-.436066-23.432791,5.973896-43.74423,20.238281-62.300781.540117-.724453,1.080234-1.448906,1.636719-2.195313c11.680015-14.533822,29.608566-24.026506,47.363281-28.804687.806953-.224297,1.613906-.448594,2.445312-.679688C-49.947967,-23.527863,-20.415373,-16.5323,0,0Z" transform="translate(227.13 268.958)"/><path d="M0,0C12.284743,9.482341,21.287235,22.515261,24,38c1.785283,20.007009-1.639339,36.852664-14.625,52.6875-10.675259,11.378667-25.322369,18.980547-41.023437,19.613281C-48.514154,110.51026,-63.531507,106.927875,-76.5,95.5c-1.518433-1.481338-3.020763-2.97952-4.5-4.5-.549141-.516914-1.098281-1.033828-1.664062-1.566406-3.783539-3.874587-6.136772-8.530793-8.585938-13.308594-.341763-.660081-.683525-1.320161-1.035645-2.000244-6.127764-12.455513-7.206243-29.240873-2.815917-42.452881c7.228142-17.53209,16.948958-30.508993,34.613281-38.640625C-59.667148,-7.309062,-58.846016,-7.649375,-58,-8c.76957-.319688,1.539141-.639375,2.332031-.96875C-37.061025,-15.298041,-15.750429,-11.053699,0,0ZM-71.144531,20.660156C-79.426739,31.104457,-82.103521,42.937072,-81,56c2.394458,12.121945,8.273935,22.287344,18,30c11.691453,7.021099,23.274174,9.86283,36.878906,7.5C-12.877867,89.852413,-2.809669,81.849498,4,70C9.320765,59.123731,9.869624,46.208082,6.5,34.625C2.132488,23.477154,-5.921001,13.993069,-16.71875,8.65625C-19.128503,7.663999,-21.51189,6.772624,-24,6c-.589102-.190781-1.178203-.381562-1.785156-.578125-17.606469-3.353613-33.070281,2.458604-45.359375,15.238281Z" transform="translate(207 291)"/><path d="M0,0c1.217968.001813,1.217968.001813,2.460541.003662C35.889492,0.138183,72.302679,9.26582,99.0625,30.375c1.982785,2.932051,2.003696,3.894661,1.875,7.5625-.875,3.4375-.875,3.4375-2.5,5.375-3.312248,1.481795-5.765485,1.33899-9.375,1.0625-2.964844-1.46875-2.964844-1.46875-5.9375-3.5-1.141235-.743366-2.285924-1.481451-3.433594-2.214844-.594096-.380112-1.188193-.760224-1.800293-1.151855C44.775244,16.98442,2.923517,11.790557,-34.6875,20.5625c-25.391973,6.346805-48.579161,17.538896-67.773437,35.511719-1.314398,1.221104-2.636121,2.435942-4.005066,3.595566-6.272058,5.320884-12.021536,11.139828-17.812375,16.970928-1.872244,1.885139-3.747709,3.767021-5.623996,5.648136-3.97288,3.984229-7.941777,7.97241-11.910126,11.961151-4.621643,4.645254-9.244909,9.288869-13.872379,13.928318-1.848944,1.855432-3.694857,3.713844-5.540676,5.572384-1.126328,1.129958-2.252796,2.259777-3.379425,3.389435-.513234.518399-1.026467,1.036799-1.555253,1.570907-4.557178,4.557861-4.557178,4.557861-8.652267,4.913956-3.547314-.283785-4.793627-.573239-7.125-3.25-1-3.3125-1-3.3125-1-7c2.71194-4.736198,6.132779-8.419919,9.970947-12.229736.881455-.886712.881455-.886712,1.780716-1.791336c1.933267-1.942028,3.873711-3.876695,5.814743-5.810959c1.358279-1.359628,2.71626-2.719552,4.07396-4.079758c2.84556-2.848504,5.694693-5.693372,8.546402-8.535721c3.628768-3.617429,7.248556-7.243691,10.865647-10.872792c2.804456-2.81174,5.613729-5.618629,8.424405-8.42415c1.334908-1.333587,2.668368-2.668625,4.000263-4.005222c7.528504-7.549227,15.103271-14.688481,23.522917-21.250326c1.183192-.953311,2.365714-1.907455,3.546875-2.863281C-73.037025,10.719352,-36.840927,-0.101881,0,0Z" transform="translate(340.938-.375)"/><path d="M0,0C5.181717,1.468153,7.355045,3.995412,10.75,8.0625c.751523.898477,1.503047,1.796953,2.277344,2.722656c30.665597,38.319885,41.931983,84.611878,37.25,133.066407-.561306,4.477793-1.44575,8.832086-2.527344,13.210937-.198677.829189-.397354,1.658379-.602051,2.512695C44.003578,172.364659,39.565546,184.259384,33.75,196.0625c-.483398.993384-.483398.993384-.976562,2.006836C22.978722,217.987249,8.725683,234.205561,-6.8125,249.875c-.774082.783428-1.548164,1.566855-2.345703,2.374023-.732832.728643-1.465664,1.457286-2.220703,2.208008-.975619.972235-.975619.972235-1.970948,1.964112-2.997356,2.589133-4.904957,3.682823-8.900146,3.516357-3.506474-1.022721-4.902457-1.890036-7-4.875-.6875-2.75-.6875-2.75,0-6c3.253632-5.086835,8.13279-9.127691,12.401367-13.355957c6.642054-6.58454,12.942851-13.16958,18.598633-20.644043c1.194961-1.544941,1.194961-1.544941,2.414063-3.121094c25.010434-33.079728,34.389226-75.788894,28.81665-116.676513C32.390678,91.819042,31.630841,88.444991,30.75,85.0625c-.298015-1.176108-.298015-1.176108-.602051-2.375977C23.705967,57.91264,12.055434,32.973675,-6.511719,14.855469C-8.95281,12.337579,-9.179251,10.529216,-9.25,7.0625C-7.192813,2.536688,-5.209471,0.100182,0,0Z" transform="translate(461.25 50.9375)"/><path d="M0,0C4.503341,3.239925,7.522605,7.392033,9.269531,12.632813c.64007,7.670344.896433,14.714813-4,21C0.909527,38.25111,-3.33156,41.258541,-9.78125,41.96875c-6.77152.081096-12.532946.093315-17.949219-4.335937-5.826901-6.24404-8.470741-11.887258-8.242187-20.445313.646928-6.824054,3.256006-11.459086,8.296875-16.078125C-19.231826,-5.299892,-9.045849,-4.985901,0,0ZM-18.105469,14.195313c-1.968598,2.452092-1.968598,2.452092-1.5625,6.0625.612585,3.630169.612585,3.630169,3.9375,5.375c3.120269.325028,5.147476.511514,7.875-1.125c1.679681-2.799468,1.582423-4.673041,1.125-7.875-1.98323-2.791213-3.129861-3.825973-6.5-4.5-2.60963.35938-2.60963.35938-4.875,2.0625Z" transform="translate(183.73 199.367)"/><path d="M0,0C5.996457,3.36999,9.476674,8.617522,11.625,15.0625c.595652,6.449075.200875,12.276835-3,18-4.249032,5.052903-9.612311,9.488955-16.347656,10.273438-7.272641.27207-12.714462-.934217-18.652344-5.273438-6.184891-6.461451-7.371513-11.876328-7.273437-20.703125.532491-6.420325,3.007584-10.389564,7.710937-14.671875C-18.544303,-3.453485,-8.632898,-3.787504,0,0ZM-15.75,15.625c-1.968598,2.452093-1.968598,2.452093-1.5625,6.0625.612585,3.630169.612585,3.630169,3.9375,5.375c3.279357.504516,4.581654.275228,7.375-1.5625c1.968598-2.452093,1.968598-2.452093,1.5625-6.0625-.612584-3.630169-.612584-3.630169-3.9375-5.375-3.279357-.504516-4.581654-.275228-7.375,1.5625Z" transform="translate(304.375 320.938)"/><path d="M0,0C6.278543,3.733188,10.225268,9.041662,12.214844,16.046875c1.201043,7.000366-.062383,12.841328-4.136719,18.636719C4.354175,39.178361,0.446136,42.206106,-5.375,43.4375c-8.116887.753807-14.07088-.614053-20.6875-5.5625-5.017227-4.542624-6.955148-10.476586-7.75-17.0625c1.055069-8.139107,4.342861-13.840202,10.4375-19.375C-16.60565,-2.809935,-7.342244,-3.269483,0,0ZM-15.8125,16.625c-1.774969,2.658713-1.774969,2.658713-1.5625,5.4375c1.240624,2.946481,2.119311,3.973584,5,5.375c3.096489.164489,3.096489.164489,6-1c2.152544-2.142983,2.152544-2.142983,3-5-.812044-3.174354-1.681806-4.681806-4-7-3.977626-.605291-5.396586-.541525-8.4375,2.1875Z" transform="translate(58.375 320.562)"/><path d="M0,0C4.104691,3.969257,6.657342,8.111309,7.335938,13.832031c.10376,7.916899-.726636,13.214178-6.136719,19.140625-5.109568,4.831766-9.499738,6.608535-16.511719,7.402344-7.106403-.722685-12.798237-2.932927-17.6875-8.25-4.871471-6.235482-5.926424-12.350078-5-20.125c1.803381-6.727585,5.243149-11.149475,11-15c9.255232-5.041898,19.007561-3.509126,27,3ZM-21,13c-1.335508,2.846276-1.335508,2.846276-1,6c1.979663,3.063076,1.979663,3.063076,5,5c2.94139,0,4.376011-.591179,6.8125-2.1875C-8.417392,19.110756,-8.605842,17.153264,-9,14c-1.437777-2.084776-2.597982-2.812392-4.875-3.875-3.235421-.190319-4.672413.82013-7.125,2.875Z" transform="translate(186 447)"/></svg>
