<svg xmlns="http://www.w3.org/2000/svg" width="128" height="128"><path style="stroke:none;fill-rule:nonzero;fill:#000;fill-opacity:1" d="M36.25 33c.61.45.91.797 1.219 1.484.054.883-.305 1.563-.852 2.239l-.453.449c-.258.254-.258.254-.516.516-.277.269-.277.269-.554.542-.192.188-.38.375-.57.567-.602.598-1.204 1.187-1.805 1.781l-1.223 1.211c-.996.988-1.996 1.977-2.996 2.961.164-.043.328-.086.5-.133l2.266-.597c.257-.067.515-.137.785-.208 1.812-.476 3.582-.867 5.449-1.062l.785-.082c11.031-1 22.031 2.004 30.793 8.832.395.328.785.664 1.172 1 .234.203.469.41.71.621 8.481 7.52 13.759 17.996 14.509 29.356.219 5.41-.434 10.496-1.86 15.714-.07.246-.136.493-.203.746l-.156.563c.098-.102.2-.2.3-.305a6404.58 6404.58 0 0 1 7.263-7.308c1.171-1.18 2.343-2.356 3.511-3.535a931.214 931.214 0 0 1 3.39-3.41c.43-.434.864-.868 1.294-1.305.601-.61 1.203-1.215 1.808-1.817l.54-.55.503-.5.434-.434c.566-.418 1.012-.512 1.707-.586.953.266 1.188.406 1.75 1.25.148.832.207 1.445-.285 2.168-1.477 1.629-3.028 3.18-4.582 4.734-.313.313-.625.63-.938.942-.847.851-1.695 1.699-2.543 2.547l-1.593 1.593c-1.856 1.86-3.711 3.715-5.567 5.57-1.726 1.727-3.449 3.454-5.172 5.18a2397.162 2397.162 0 0 1-4.457 4.457l-2.652 2.66-2.5 2.5c-.305.305-.61.606-.91.91-1.774 1.782-3.57 3.438-5.551 4.989l-.438.352c-6.41 5.109-15.101 8.367-23.328 8.457-.187.004-.375.007-.566.007-4.223.043-8.305.004-12.418-1.066-.227-.059-.453-.117-.688-.18-11.093-3.004-20.355-10.297-26.16-20.172C2.172 101.02-.012 94.48-.05 87.95c0-.191-.004-.379-.004-.574C-.113 79.453-.113 79.453.75 76c.078-.313.078-.313.156-.637.746-3 1.727-5.836 3.094-8.613.086-.176.168-.348.258-.527 1.652-3.356 3.605-6.368 6.168-9.106.46-.496.906-1.004 1.351-1.52.993-1.136 2.047-2.206 3.114-3.269.207-.21.414-.418.629-.629.675-.68 1.355-1.355 2.03-2.035l1.419-1.418c.988-.988 1.976-1.976 2.965-2.96l3.425-3.427c.98-.984 1.965-1.968 2.95-2.949l1.757-1.758c.649-.652 1.301-1.304 1.954-1.953l.59-.59c.175-.18.35-.355.535-.535l.468-.469c.82-.753 1.551-.699 2.637-.605ZM16.793 56.496c-.477.441-.961.856-1.465 1.27C8.848 63.332 4.906 72.668 4 81a70.712 70.712 0 0 0-.078 4.172v.566c.015 2.813.117 5.532.828 8.262.05.195.098.39.152.594 2.594 9.98 8.832 18.738 17.72 24.094 4.722 2.753 10.155 4.804 15.628 5.312.168.016.332.031.504.05 10.684.997 20.875-2.359 29.098-9.14 7.878-6.652 12.578-16.133 13.554-26.367.758-9.566-2.015-19.527-8.062-27.043-.36-.418-.727-.836-1.094-1.25-.176-.207-.352-.414-.535-.625C64.773 51.648 54.977 47.254 44.5 46.5c-10.086-.5-20.316 3.098-27.707 9.996Zm0 0"/><path style="stroke:none;fill-rule:nonzero;fill:#000;fill-opacity:1" d="M56.781 67.238c4.555 3.836 7.711 9.028 8.469 15.012.36 6.594-1.016 12.773-5.453 17.867-3.211 3.574-7.824 6.653-12.703 7.242-.844-.109-.844-.109-1.594-.609-.59-.887-.586-1.266-.445-2.281.277-.664.574-.856 1.195-1.219a35.57 35.57 0 0 1 1.875-.563c4.66-1.374 8.152-4.37 10.617-8.515 2.32-4.332 3.035-9.176 1.75-13.957-1.457-4.82-4.449-8.848-8.906-11.281-4.711-2.43-9.75-2.934-14.836-1.356a18.237 18.237 0 0 0-6.25 3.672l-.621.55c-3.445 3.235-5.367 7.567-5.684 12.266-.14 5.246 1.649 10.047 5.239 13.856L30 98.5c.152.156.3.313.457.477 2.285 2.187 5.285 3.375 8.281 4.222.82.324 1.102.531 1.512 1.301.148 1.035.168 1.527-.469 2.375-1.652.793-3.304.16-4.968-.39-3.333-1.27-5.801-3.005-8.313-5.485-.164-.145-.328-.293-.496-.441-3.817-3.47-5.742-9.227-6.063-14.235C19.832 80.47 21.434 75.391 25 70.75c.137-.18.27-.363.41-.547 2.918-3.637 7.402-6.008 11.84-7.203.203-.055.402-.113.613-.168 6.434-1.473 13.817.273 18.918 4.406Zm0 0"/><path style="stroke:none;fill-rule:nonzero;fill:#000;fill-opacity:1" d="M51.75 72.75c3.07 2.371 5.32 5.629 6 9.5.445 5-.41 9.215-3.656 13.172-2.668 2.844-6.332 4.746-10.258 4.902-4.215.055-7.969-.844-11.211-3.699A76.374 76.374 0 0 1 31.5 95.5l-.414-.39c-.95-.97-1.535-2.133-2.148-3.329a29.452 29.452 0 0 1-.258-.5c-1.532-3.113-1.801-7.308-.703-10.613 1.804-4.383 4.234-7.629 8.652-9.66.203-.086.41-.172.621-.258.191-.078.387-.16.582-.242 4.652-1.582 9.98-.52 13.918 2.242Zm-17.785 5.164c-2.07 2.613-2.742 5.57-2.465 8.836.598 3.031 2.07 5.57 4.5 7.5 2.922 1.754 5.82 2.465 9.219 1.875 3.312-.91 5.828-2.914 7.531-5.875 1.332-2.719 1.469-5.95.625-8.844-1.094-2.785-3.105-5.156-5.805-6.492-.601-.25-1.199-.473-1.82-.664a29.111 29.111 0 0 1-.445-.145c-4.403-.84-8.27.614-11.34 3.81ZM85.234-.094h.614C94.207-.059 103.308 2.223 110 7.5c.496.734.5.973.469 1.89-.219.86-.219.86-.625 1.344-.828.371-1.442.336-2.344.266-.742-.367-.742-.367-1.484-.875a64.582 64.582 0 0 0-1.309-.84c-8.277-5.133-18.742-6.43-28.144-4.238-6.348 1.586-12.145 4.383-16.946 8.879-.328.304-.656.61-1 .898-1.566 1.328-3.004 2.785-4.453 4.242-.469.473-.937.942-1.406 1.41L49.78 23.47l-3.468 3.48-1.383 1.395c-.285.281-.567.566-.848.847-.129.13-.254.258-.387.395-1.14 1.137-1.14 1.137-2.164 1.227-.886-.07-1.199-.145-1.781-.813-.25-.828-.25-.828-.25-1.75.68-1.184 1.531-2.105 2.492-3.059.223-.218.223-.218.446-.445.484-.488.968-.969 1.453-1.453l1.02-1.02c.71-.714 1.421-1.425 2.136-2.136.906-.903 1.812-1.809 2.715-2.715l2.11-2.11 1-1C54.75 12.427 56.644 10.642 58.75 9c.297-.238.59-.477.887-.715 7.34-5.7 16.386-8.406 25.597-8.379ZM115.313 12.734c1.296.368 1.84 1 2.687 2.016.188.227.375.45.57.68 7.664 9.582 10.48 21.152 9.313 33.265A28.669 28.669 0 0 1 127.25 52c-.05.207-.098.414-.152.629-.785 3.195-1.895 6.172-3.348 9.121l-.242.5c-2.45 4.98-6.016 9.035-9.899 12.953-.195.195-.386.39-.586.594l-.554.55c-.246.243-.246.243-.492.493-.75.648-1.227.922-2.227.879-.875-.254-1.227-.473-1.75-1.219-.172-.688-.172-.688 0-1.5.813-1.273 2.031-2.281 3.102-3.34 1.66-1.644 3.234-3.293 4.648-5.16.297-.387.297-.387.602-.781 6.253-8.27 8.597-18.946 7.207-29.168A31.207 31.207 0 0 0 123 34l-.152-.594c-1.61-6.195-4.52-12.43-9.164-16.957-.61-.629-.664-1.082-.684-1.949.516-1.133 1.012-1.742 2.313-1.766ZM45.934 49.844c1.125.808 1.879 1.847 2.316 3.156.16 1.918.223 3.68-1 5.25-1.09 1.156-2.148 1.906-3.762 2.086-1.695.02-3.133.02-4.488-1.086-1.457-1.563-2.117-2.973-2.063-5.11.165-1.706.817-2.867 2.079-4.023 2.109-1.601 4.656-1.523 6.918-.273Zm-4.528 3.547c-.492.613-.492.613-.39 1.515.152.907.152.907.984 1.344.781.082 1.285.129 1.969-.281.418-.7.394-1.168.281-1.969-.496-.7-.781-.957-1.625-1.125-.652.09-.652.09-1.219.516ZM76.094 80.234c1.5.844 2.37 2.157 2.906 3.766.148 1.613.05 3.07-.75 4.5-1.063 1.262-2.402 2.371-4.086 2.57-1.82.067-3.18-.234-4.664-1.32-1.547-1.617-1.844-2.969-1.82-5.176.136-1.605.754-2.597 1.93-3.668 1.847-1.535 4.324-1.617 6.484-.672Zm-3.938 3.907c-.492.613-.492.613-.39 1.515.152.906.152.906.984 1.344.82.125 1.145.07 1.844-.39.492-.614.492-.614.39-1.516-.152-.906-.152-.906-.984-1.344-.82-.125-1.145-.07-1.844.39ZM14.594 80.14c1.57.934 2.554 2.262 3.054 4.012.301 1.75-.015 3.211-1.035 4.66-.93 1.122-1.906 1.88-3.363 2.188-2.027.188-3.52-.152-5.172-1.39-1.254-1.137-1.738-2.622-1.937-4.266.265-2.035 1.086-3.461 2.609-4.844 1.691-1.063 4.008-1.176 5.844-.36Zm-3.953 4.157c-.446.664-.446.664-.391 1.36.309.738.531.991 1.25 1.343.773.043.773.043 1.5-.25.54-.535.54-.535.75-1.25-.203-.793-.422-1.172-1-1.75-.996-.152-1.348-.137-2.11.547ZM46.5 111.75c1.027.992 1.664 2.027 1.836 3.457.023 1.98-.184 3.305-1.535 4.785-1.278 1.207-2.375 1.653-4.13 1.852-1.776-.18-3.198-.735-4.421-2.063-1.219-1.558-1.48-3.086-1.25-5.031.45-1.684 1.313-2.79 2.75-3.75 2.313-1.262 4.75-.879 6.75.75ZM41.25 115c-.332.71-.332.71-.25 1.5.496.766.496.766 1.25 1.25.734 0 1.094-.148 1.703-.547.442-.676.395-1.164.297-1.953-.36-.52-.648-.703-1.219-.969-.808-.047-1.168.203-1.781.719Zm0 0"/></svg>