<?xml version="1.0" standalone="no"?>
<!DOCTYPE svg PUBLIC "-//W3C//DTD SVG 1.0//EN" "http://www.w3.org/TR/2001/REC-SVG-20010904/DTD/svg10.dtd">
<svg xmlns="http://www.w3.org/2000/svg" xmlns:xlink="http://www.w3.org/1999/xlink" id="body_1" width="128" height="128">

<g transform="matrix(0.25 0 0 0.25 0 0)">
    <path transform="matrix(1 0 0 1 241 26)"  d="M0 0C 0.78375 0.21269532 1.5675 0.42539063 2.375 0.64453125C 14.504158 4.001709 22.58513 8.518217 28.90625 19.667969C 31.088974 24.32185 31.148449 28.66699 31.147171 33.747482C 31.150848 34.532677 31.154524 35.317867 31.158312 36.126854C 31.169334 38.7606 31.173191 41.39431 31.177002 44.028076C 31.183268 45.91552 31.189915 47.80296 31.196915 49.6904C 31.217943 55.891247 31.228315 62.092094 31.238281 68.29297C 31.242329 70.42871 31.246447 72.56445 31.250631 74.70019C 31.26968 84.73445 31.283913 94.76871 31.292244 104.80298C 31.302015 116.38075 31.328335 127.95833 31.368744 139.53603C 31.398916 148.4882 31.413713 157.4403 31.417025 166.39252C 31.419373 171.73773 31.428318 177.08273 31.453485 182.42787C 31.476791 187.45859 31.48099 192.48897 31.470724 197.51973C 31.47023 199.36234 31.476536 201.20497 31.49028 203.04753C 31.614292 220.6629 31.614292 220.6629 27 228C 26.46375 229.03125 25.9275 230.0625 25.375 231.125C 13.459541 245.54898 -12.339298 255.6964 -30.220947 259.4685C -30.808035 259.6439 -31.395123 259.8193 -32 260C -32.33 260.66 -32.66 261.32 -33 262C -32.39438 261.9889 -31.788755 261.97778 -31.16478 261.96634C -24.788147 261.85464 -18.411797 261.77988 -12.034424 261.72534C -9.663215 261.7004 -7.2920814 261.6664 -4.9211426 261.6228C 13.54584 261.29184 28.119665 261.90634 43 274C 43.832733 274.6265 44.66547 275.25296 45.523438 275.89844C 54.563366 283.56955 62.015354 297.06525 63.19482 308.9657C 63.278927 311.12646 63.30449 313.27972 63.306396 315.44214C 63.31472 316.25604 63.323044 317.06995 63.33162 317.90848C 63.355568 320.57837 63.364468 323.248 63.371094 325.91797C 63.380066 327.78168 63.389187 329.6454 63.398453 331.50912C 63.4149 335.4051 63.422638 339.301 63.425537 343.19702C 63.43094 348.19083 63.46872 353.18384 63.514282 358.17743C 63.543995 362.02158 63.551258 365.86554 63.552265 369.70978C 63.556473 371.55142 63.568928 373.39307 63.589783 375.2346C 63.616596 377.80566 63.6119 380.37488 63.599365 382.94604C 63.621616 384.08618 63.621616 384.08618 63.644318 385.24933C 63.591354 389.05832 63.316338 390.6672 60.65004 393.4721C 57.38698 395.35342 55.71107 395.6185 52 395C 49.35173 393.40405 49.35173 393.40405 47 391C 46.37422 387.82837 46.37422 387.82837 46.372314 384.03516C 46.365044 383.34183 46.357773 382.64853 46.35028 381.93417C 46.33169 379.6431 46.347767 377.35358 46.36328 375.0625C 46.355236 373.46027 46.344715 371.85806 46.331833 370.25586C 46.303257 366.032 46.302708 361.8087 46.309692 357.58478C 46.317005 350.8538 46.285313 344.12292 46.247242 337.39206C 46.238495 335.05692 46.243656 332.7221 46.25081 330.38696C 46.24514 315.03595 44.889893 301.51956 34.01953 289.8203C 23.75238 280.56598 12.723656 279.71545 -1 278C -1 299.12 -1 320.24 -1 342C 2.96 342 6.92 342 11 342C 15.500172 346.50018 15.500172 346.50018 15.507935 351.00977C 15.519214 352.0192 15.530493 353.0286 15.542114 354.0686C 15.534018 355.17 15.525921 356.27145 15.517578 357.40625C 15.524588 358.57083 15.531597 359.7354 15.538818 360.9353C 15.556444 364.79044 15.544759 368.64487 15.53125 372.5C 15.533943 375.17514 15.537819 377.85025 15.542847 380.5254C 15.550122 386.1342 15.540539 391.7428 15.521484 397.35156C 15.499716 403.83417 15.506767 410.31628 15.52879 416.7989C 15.5469475 422.36676 15.5495 427.93448 15.539035 433.50238C 15.532803 436.82697 15.533532 440.15125 15.545181 443.47583C 15.555318 447.18216 15.539885 450.8875 15.517578 454.59375C 15.525675 455.69516 15.5337715 456.7966 15.542114 457.9314C 15.530835 458.94083 15.519556 459.95023 15.507935 460.99023C 15.506427 461.86627 15.504918 462.7423 15.503365 463.6449C 14.833503 466.779 13.440638 467.99445 11 470C 9 470.53125 9 470.53125 7 470.5C 6.01 470.51547 6.01 470.51547 5 470.53125C 1.8831202 469.70334 0.91567713 468.6317 -1 466C -1.5957923 462.54834 -1.5045829 459.12628 -1.4541016 455.63184C -1.4546857 454.57788 -1.4552698 453.5239 -1.4558716 452.438C -1.4530841 448.95312 -1.4219596 445.4691 -1.390625 441.98438C -1.383165 439.5687 -1.377471 437.15305 -1.3734741 434.73737C -1.358199 428.3783 -1.3189005 422.0196 -1.2746582 415.66064C -1.2337463 409.17224 -1.2154717 402.6838 -1.1953125 396.1953C -1.1524086 383.46338 -1.0849026 370.73172 -1 358C -2.3119433 358.02094 -3.6238868 358.0419 -4.975586 358.06348C -9.843313 358.1359 -14.710994 358.1818 -19.579102 358.21973C -21.685953 358.23984 -23.79275 358.26715 -25.899414 358.30176C -28.927874 358.35028 -31.955597 358.37296 -34.984375 358.39062C -36.397076 358.4216 -36.397076 358.4216 -37.838318 358.4532C -44.318546 358.4554 -44.318546 358.4554 -47.591858 356.26788C -49.180264 353.7097 -49.513016 352.31573 -49.5459 349.32324C -49.565617 348.4026 -49.585335 347.48193 -49.60565 346.5334C -49.607494 345.05505 -49.607494 345.05505 -49.609375 343.54688C -49.62591 342.53152 -49.64245 341.51614 -49.659485 340.47003C -49.708035 337.22995 -49.72935 333.99036 -49.75 330.75C -49.778152 328.55206 -49.80808 326.35413 -49.839844 324.15625C -49.913795 318.7709 -49.965397 313.3857 -50 308C -50.617195 308.41617 -51.234386 308.83234 -51.870285 309.26114C -52.680325 309.80484 -53.490364 310.3485 -54.32495 310.9087C -55.12777 311.4486 -55.930588 311.98856 -56.757736 312.54483C -67.69238 319.6411 -82.1603 319.6901 -94.63672 317.3047C -101.56672 315.19287 -105.626175 312.2492 -112 308C -112.33 319.22 -112.66 330.44 -113 342C -109.870155 341.95358 -106.74031 341.9072 -103.515625 341.85938C -100.48406 341.8282 -97.45252 341.8039 -94.4209 341.78027C -92.31405 341.76016 -90.20725 341.73285 -88.100586 341.69824C -85.07213 341.64972 -82.0444 341.62704 -79.015625 341.60938C -78.07382 341.58875 -77.13202 341.56808 -76.16168 341.5468C -69.62168 341.54456 -69.62168 341.54456 -66.40723 343.8994C -64.89047 346.1635 -64.4578 347.29953 -64.5 350C -64.489685 350.66 -64.47938 351.32 -64.46875 352C -65.2791 355.05072 -66.47335 356.09387 -69 358C -71.965164 358.58304 -74.88633 358.50534 -77.899414 358.4541C -78.797325 358.45468 -79.69524 358.45526 -80.62036 358.45587C -83.585846 358.4531 -86.550316 358.42197 -89.515625 358.39062C -91.57256 358.38318 -93.62951 358.37747 -95.68646 358.37347C -101.09863 358.35822 -106.51037 358.3189 -111.92236 358.27466C -117.44558 358.23373 -122.968864 358.21545 -128.49219 358.1953C -139.32831 358.15244 -150.16412 358.08417 -161 358C -160.9963 358.55292 -160.99263 359.10583 -160.98883 359.6755C -160.90048 373.1293 -160.83455 386.58307 -160.79276 400.0371C -160.77187 406.5434 -160.74352 413.0495 -160.69824 419.55566C -160.65485 425.83206 -160.63087 432.10828 -160.6205 438.38483C -160.61308 440.7819 -160.59863 443.17896 -160.57707 445.57593C -160.54813 448.92813 -160.54404 452.2795 -160.5459 455.63184C -160.53152 456.62732 -160.51714 457.62283 -160.50232 458.6485C -160.54276 465.37186 -160.54276 465.37186 -162.90338 468.6148C -165.1634 470.10797 -166.31429 470.54196 -169 470.5C -169.99 470.51547 -169.99 470.51547 -171 470.53125C -173.90215 469.76038 -175.09143 468.28207 -177 466C -177.50336 463.6449 -177.50336 463.6449 -177.50793 460.99023C -177.51921 459.9808 -177.53049 458.9714 -177.54211 457.9314C -177.53401 456.83 -177.52592 455.72855 -177.51758 454.59375C -177.52458 453.42917 -177.5316 452.2646 -177.53882 451.0647C -177.55644 447.20956 -177.54475 443.35513 -177.53125 439.5C -177.53395 436.82486 -177.53781 434.14975 -177.54285 431.4746C -177.55013 425.8658 -177.54054 420.2572 -177.52148 414.64844C -177.49971 408.16583 -177.50676 401.68372 -177.5288 395.2011C -177.54695 389.63324 -177.5495 384.06552 -177.53903 378.49762C -177.5328 375.17303 -177.53354 371.84875 -177.54518 368.52417C -177.55531 364.81784 -177.53989 361.1125 -177.51758 357.40625C -177.52568 356.30484 -177.53377 355.2034 -177.54211 354.0686C -177.53084 353.05917 -177.51956 352.04977 -177.50793 351.00977C -177.50642 350.13373 -177.50491 349.2577 -177.50336 348.3551C -176.83273 345.21744 -175.45041 344.00085 -173 342C -170.84857 341.51898 -170.84857 341.51898 -168.50684 341.5459C -167.614 341.5464 -166.72116 341.54688 -165.80127 341.54736C -164.87169 341.56784 -163.94212 341.5883 -162.98438 341.60938C -162.12344 341.6134 -161.26251 341.61743 -160.37549 341.62158C -157.16678 341.6425 -153.95836 341.69833 -150.75 341.75C -143.5725 341.8325 -136.395 341.915 -129 342C -129 320.88 -129 299.76 -129 278C -134.28 278 -139.56 278 -145 278C -144.96858 279.96793 -144.96858 279.96793 -144.93652 281.9756C -144.86412 286.84332 -144.81819 291.711 -144.78027 296.5791C -144.76016 298.68594 -144.73286 300.79276 -144.69824 302.8994C -144.64972 305.9279 -144.62703 308.9556 -144.60938 311.98438C -144.58873 312.92618 -144.56808 313.86798 -144.54681 314.83832C -144.54457 321.37833 -144.54457 321.37833 -146.89941 324.59277C -149.1635 326.10953 -150.29951 326.5422 -153 326.5C -153.99 326.51547 -153.99 326.51547 -155 326.53125C -158.10173 325.70737 -159.08899 324.6086 -161 322C -161.56596 318.6607 -161.46468 315.36267 -161.39062 311.98438C -161.38496 311.0134 -161.3793 310.04245 -161.37347 309.04205C -161.3511 305.94418 -161.3009 302.8475 -161.25 299.75C -161.22993 297.64847 -161.21169 295.5469 -161.19531 293.4453C -161.15123 288.29642 -161.0822 283.1484 -161 278C -164.21523 278.4417 -167.42801 278.89917 -170.64062 279.35938C -171.54636 279.4836 -172.45209 279.60785 -173.38525 279.73584C -183.77267 281.2414 -191.89282 285.115 -199 293C -207.89186 305.27078 -208.1482 317.8134 -208.14185 332.43066C -208.14488 333.88345 -208.1484 335.33627 -208.15237 336.78906C -208.16023 339.90356 -208.16539 343.01807 -208.16867 346.13257C -208.1746 351.05746 -208.19116 355.9823 -208.21 360.90717C -208.21634 362.5962 -208.22267 364.2852 -208.22899 365.9742C -208.23215 366.81958 -208.23532 367.66495 -208.23857 368.53595C -208.28061 379.99237 -208.31366 391.44876 -208.32593 402.90527C -208.3343 410.64764 -208.35675 418.38983 -208.39528 426.13214C -208.41505 430.2257 -208.42744 434.319 -208.42245 438.4126C -208.41782 442.25745 -208.43155 446.10178 -208.45946 449.9465C -208.46638 451.35742 -208.46648 452.76837 -208.45926 454.1793C -208.45041 456.10425 -208.46838 458.02927 -208.48775 459.95416C -208.49014 461.0315 -208.49252 462.10883 -208.49498 463.21878C -209.12184 466.671 -210.28322 467.8513 -213 470C -215 470.53125 -215 470.53125 -217 470.5C -217.66 470.5103 -218.32 470.52063 -219 470.53125C -221.95128 469.7473 -223.09639 468.36517 -225 466C -225.50336 463.05817 -225.50336 463.05817 -225.50793 459.56348C -225.51418 458.91925 -225.52042 458.275 -225.52684 457.61124C -225.54279 455.454 -225.53017 453.29788 -225.51758 451.14062C -225.523 449.59302 -225.53012 448.0454 -225.53882 446.4978C -225.55707 442.29272 -225.54997 438.08798 -225.53731 433.88287C -225.52718 429.47488 -225.53658 425.06693 -225.54285 420.65894C -225.55013 413.24765 -225.54053 405.83655 -225.52148 398.4253C -225.49979 389.87976 -225.50671 381.33463 -225.5288 372.7891C -225.54701 365.44025 -225.54947 358.0915 -225.53903 350.7426C -225.53282 346.35922 -225.53189 341.976 -225.54518 337.59265C -225.55682 333.46225 -225.54855 329.3323 -225.5256 325.20193C -225.52036 323.69443 -225.52176 322.18683 -225.53065 320.67932C -225.61328 305.24707 -221.52422 290.31586 -210.8125 278.6836C -198.40063 267.15448 -184.88953 261.6447 -168.16016 261.8047C -166.47702 261.80893 -166.47702 261.80893 -164.75987 261.81326C -161.19397 261.8244 -157.62833 261.84952 -154.0625 261.875C -151.63737 261.88504 -149.21225 261.89417 -146.78711 261.90234C -140.85799 261.92435 -134.92902 261.95776 -129 262C -129.79384 259.86743 -129.79384 259.86743 -131.70801 259.28906C -132.4489 259.06992 -133.18979 258.85077 -133.95312 258.625C -134.78996 258.3672 -135.62682 258.10938 -136.48901 257.84375C -137.8557 257.4261 -137.8557 257.4261 -139.25 257C -158.03348 250.99188 -180.46706 242.79704 -191 225C -192.84737 220.41255 -193.31987 216.23106 -193.33594 211.33594C -193.34259 210.62144 -193.34926 209.90695 -193.35611 209.1708C -193.36618 207.66989 -193.37093 206.16893 -193.3706 204.66797C -193.375 202.37425 -193.41144 200.08244 -193.44922 197.78906C -193.45508 196.32553 -193.45906 194.86198 -193.46094 193.39844C -193.47531 192.71606 -193.48969 192.0337 -193.50449 191.33066C -193.472 187.946 -193.2108 186.26897 -191.09619 183.5708C -188.82237 181.8669 -187.8038 181.45619 -185 181.5C -184.01 181.48453 -184.01 181.48453 -183 181.46875C -180.08015 182.24434 -178.90594 183.68744 -177 186C -176.50171 188.6062 -176.50171 188.6062 -176.4961 191.54297C -176.46806 193.15462 -176.46806 193.15462 -176.43945 194.79883C -176.43881 195.91708 -176.43817 197.03535 -176.4375 198.1875C -176.70985 211.14214 -176.70985 211.14214 -170.92578 222.22656C -132.49548 245.52077 -87.591 254.61194 -43.325195 244.38184C -31.3612 241.4348 -20.047897 237.44115 -9 232C -8.251055 231.63438 -7.5021095 231.26878 -6.7304688 230.89209C -4.3931003 229.7394 -2.0694861 228.56323 0.25 227.375C 0.96575195 227.01495 1.6815039 226.65489 2.4189453 226.28394C 7.782118 223.45494 11.067668 220.74461 13.086246 214.80229C 14.027313 210.88635 14.254281 207.52126 14.260696 203.49918C 14.264522 202.77676 14.268348 202.05434 14.272289 201.31003C 14.282549 198.90665 14.278641 196.5035 14.274658 194.1001C 14.279009 192.36984 14.284193 190.6396 14.290146 188.90935C 14.303513 184.22127 14.304117 179.53326 14.301582 174.84518C 14.300511 170.9263 14.305401 167.00745 14.310188 163.08858C 14.321275 153.84029 14.321725 144.59204 14.315674 135.34375C 14.309634 125.8149 14.321945 116.2862 14.343244 106.75738C 14.360879 98.565216 14.3668585 90.37311 14.363606 82.18094C 14.361796 77.293015 14.364402 72.4052 14.378321 67.51729C 14.390925 62.919106 14.38893 58.32115 14.37591 53.72297C 14.37355 52.04001 14.376257 50.357033 14.384533 48.674088C 14.882155 34.64456 14.882155 34.64456 8.7421875 22.589844C -35.180576 -2.875349 -105.40746 4.7000785 -152 16C -152.98532 16.236866 -153.97066 16.47373 -154.98584 16.717773C -161.91873 18.483032 -168.72368 20.256744 -173.4375 25.9375C -175.733 30.436684 -176.12457 34.42879 -176.1313 39.43373C -176.13531 40.511837 -176.13931 41.58994 -176.14345 42.700714C -176.14265 44.459663 -176.14265 44.459663 -176.14185 46.25415C -176.14532 47.496914 -176.14879 48.739674 -176.15237 50.020096C -176.15973 52.717236 -176.1654 55.414326 -176.16867 58.111465C -176.17459 62.376633 -176.19115 66.641716 -176.21 70.906845C -176.21634 72.36845 -176.22267 73.83004 -176.22899 75.29164C -176.23215 76.02338 -176.23532 76.75511 -176.23857 77.509026C -176.28062 87.43447 -176.31364 97.35987 -176.32593 107.2854C -176.3343 113.9873 -176.35677 120.68899 -176.39528 127.39078C -176.41505 130.93555 -176.42744 134.48 -176.42245 138.02483C -176.41695 141.97517 -176.44218 145.92499 -176.46997 149.87524C -176.46007 151.63724 -176.46007 151.63724 -176.44997 153.43481C -176.46867 155.04774 -176.46867 155.04774 -176.48775 156.69325C -176.49014 157.62698 -176.49252 158.56071 -176.49498 159.52275C -177.1526 162.74855 -178.4805 163.95172 -181 166C -183 166.53125 -183 166.53125 -185 166.5C -185.99 166.51547 -185.99 166.51547 -187 166.53125C -189.92093 165.75537 -191.09407 164.31436 -193 162C -193.50336 159.41177 -193.50336 159.41177 -193.50793 156.42319C -193.52486 154.72012 -193.52486 154.72012 -193.54211 152.98267C -193.53401 151.74106 -193.52592 150.49945 -193.51758 149.22021C -193.52458 147.90921 -193.5316 146.5982 -193.53882 145.24747C -193.55705 141.65196 -193.54997 138.0569 -193.53731 134.46138C -193.52716 130.69174 -193.53658 126.92214 -193.54285 123.1525C -193.55013 116.81562 -193.54053 110.478935 -193.52148 104.14209C -193.49977 96.83482 -193.50673 89.528 -193.5288 82.22074C -193.547 75.93602 -193.54947 69.65143 -193.53903 63.366684C -193.53282 59.61828 -193.53189 55.87008 -193.54518 52.121685C -193.55682 48.590412 -193.54857 45.05971 -193.5256 41.5285C -193.51787 39.629177 -193.5296 37.729805 -193.54211 35.830505C -193.44658 26.070381 -191.50525 17.77807 -184.67358 10.510498C -178.69225 5.1120243 -171.83842 2.6411679 -164.1875 0.5C -163.15286 0.20520753 -162.11823 -0.08958496 -161.05225 -0.39331055C -143.12158 -5.3308735 -124.55455 -8.619178 -106 -10C -105.194176 -10.061714 -104.38835 -10.123427 -103.558105 -10.187012C -68.71233 -12.690701 -33.656254 -9.365654 0 0zM-113 263C -112.658035 274.86618 -111.346466 284.35608 -103 293.2422C -95.22695 300.07397 -87.69051 301.37152 -77.61328 301.27734C -69.41272 300.6479 -62.436195 297.1805 -57 291C -50.35582 282.26895 -48.867065 273.7809 -49 263C -49.78375 263.14438 -50.5675 263.28876 -51.375 263.4375C -71.18158 266.51093 -93.26683 266.63507 -113 263zM-33 278C -33 299.12 -33 320.24 -33 342C -27.72 342 -22.44 342 -17 342C -17 320.88 -17 299.76 -17 278C -22.28 278 -27.56 278 -33 278z" stroke="none" fill="#000000" fill-rule="nonzero" />
    <path transform="matrix(1 0 0 1 455 184)"  d="M0 0C 3.2361336 1.7425334 3.8239532 2.4718595 5 6C 5.100625 7.433866 5.154458 8.871359 5.1757812 10.308594C 5.199629 11.138105 5.2234764 11.967617 5.248047 12.822266C 5.290913 14.561602 5.32222 16.301262 5.341797 18.041016C 5.3695116 18.871817 5.3972263 19.702618 5.4257812 20.558594C 5.447655 21.692526 5.447655 21.692526 5.4699707 22.849365C 6.2241135 25.909357 7.5014567 27.122633 10 29C 12.530808 29.37837 12.530808 29.37837 15.246094 28.996094C 16.24834 28.915527 17.250586 28.83496 18.283203 28.751953C 20.38259 28.542664 22.481558 28.329136 24.580078 28.111328C 32.305225 27.501057 32.305225 27.501057 36.1875 30.289062C 38.415504 33.621464 38.722706 35.065258 38 39C 35.86598 43.09021 33.199383 45.820683 29.875 49C 26.703062 52.112648 24.509764 54.412136 24 59C 26.160345 63.76384 29.506659 66.21564 33.625 69.1875C 39.883286 73.76657 39.883286 73.76657 41 76C 41.57785 83.16533 41.57785 83.16533 39.3125 86.4375C 34.212925 89.88316 27.755402 89.26029 21.794922 89.3418C 18.49984 89.47484 16.423475 89.6761 13.769775 91.70581C 11.570506 94.55676 11.628323 95.74528 11.96875 99.28125C 12.044805 100.28801 12.120859 101.29477 12.199219 102.33203C 12.298476 103.377464 12.397735 104.42289 12.5 105.5C 12.696645 107.57115 12.87453 109.644196 13.03125 111.71875C 13.119551 112.63592 13.207851 113.553085 13.298828 114.49805C 12.895172 117.87768 11.626337 118.92363 9 121C 5.75 122.125 5.75 122.125 2 122C -2.609423 119.5864 -6.095911 115.94202 -9.625 112.1875C -11.856336 109.91569 -13.039946 108.983696 -16.0625 107.75C -20.24658 108.106094 -22.337421 109.95517 -25 113C -26.873161 115.55358 -28.656736 118.14033 -30.386719 120.79297C -32 123 -32 123 -35 125C -42.063065 125.672676 -42.063065 125.672676 -45.4375 123.25C -47.731915 119.946045 -48.106525 116.84836 -48.316406 112.890625C -48.37925 111.759476 -48.37925 111.759476 -48.44336 110.60547C -48.482677 109.82816 -48.52199 109.05086 -48.5625 108.25C -48.605682 107.45723 -48.64887 106.66445 -48.69336 105.84766C -48.79903 103.89862 -48.89998 101.94933 -49 100C -52.904785 101.619286 -55.561726 104.19326 -58.625 107.0625C -64.83927 112.8686 -64.83927 112.8686 -69.3125 113.375C -73 113 -73 113 -75.8125 110.8125C -77.835106 108.212006 -79.01869 106.122345 -80 103C -82.05353 104.05595 -84.0622 105.15582 -86.05786 106.3186C -88.107414 107.4899 -90.19855 108.590096 -92.31641 109.63281C -98.73201 113.085785 -98.73201 113.085785 -102.72623 118.91263C -103.79471 124.25937 -103.52536 129.64409 -103.3125 135.0625C -103.29549 136.70763 -103.28436 138.35283 -103.2793 139.99805C -103.254234 144.00276 -103.149254 147.99806 -103 152C -102.18015 151.9536 -101.36031 151.90718 -100.515625 151.85938C -99.437965 151.82329 -98.36031 151.78719 -97.25 151.75C -96.182655 151.7036 -95.11531 151.65718 -94.015625 151.60938C -91 152 -91 152 -88.839905 153.55426C -86.378456 156.8262 -86.46576 159.59026 -86.5459 163.52246C -86.54531 164.27406 -86.54473 165.02568 -86.54413 165.80006C -86.54691 168.27864 -86.578 170.75601 -86.609375 173.23438C -86.61684 174.95502 -86.62253 176.67566 -86.626526 178.3963C -86.641785 182.92075 -86.68107 187.44469 -86.72534 191.96893C -86.76629 196.5873 -86.78454 201.20573 -86.80469 205.82422C -86.847565 214.88304 -86.91582 223.94148 -87 233C -86.21375 233.3047 -85.427505 233.6094 -84.61743 233.92334C -82.15239 234.93732 -80.47344 235.9339 -78.4375 237.625C -77.60025 238.29402 -77.60025 238.29402 -76.74609 238.97656C -71.3252 245.25848 -70.399086 251.47688 -70.46875 259.5625C -70.46301 261.04858 -70.46301 261.04858 -70.45715 262.5647C -70.454445 264.64893 -70.46173 266.73322 -70.478516 268.81738C -70.49994 271.991 -70.478676 275.16238 -70.453125 278.33594C -70.455765 280.36978 -70.46089 282.40366 -70.46875 284.4375C -70.460655 285.37732 -70.45255 286.3171 -70.444214 287.2854C -70.54534 294.45993 -72.19488 299.79892 -76.96484 305.2422C -77.94131 306.0504 -77.94131 306.0504 -78.9375 306.875C -79.5859 307.4293 -80.2343 307.98358 -80.90234 308.5547C -86.48442 312.40082 -91.70189 312.32065 -98.26953 312.33594C -99.2645 312.3426 -100.25947 312.34924 -101.28459 312.3561C -103.386734 312.3662 -105.4889 312.37094 -107.591064 312.3706C -110.79107 312.37497 -113.98969 312.4113 -117.18945 312.44922C -119.23698 312.45508 -121.2845 312.45905 -123.33203 312.46094C -124.28125 312.4753 -125.23047 312.4897 -126.20845 312.5045C -133.43686 312.4553 -138.75868 310.8404 -144.24219 306.03516C -144.78102 305.3842 -145.31984 304.73322 -145.875 304.0625C -146.42929 303.4141 -146.9836 302.76572 -147.55469 302.09766C -150.6514 297.60324 -151.24472 293.79678 -151.19531 288.38672C -151.18887 287.13956 -151.18242 285.8924 -151.17578 284.60742C -151.15903 283.31384 -151.14227 282.02026 -151.125 280.6875C -151.11598 279.3746 -151.10695 278.06168 -151.09766 276.70898C -151.07411 273.47247 -151.04123 270.23633 -151 267C -157.80135 270.71637 -162.64943 274.1648 -165 282C -165.75761 285.6253 -166.07796 289.1288 -166.17578 292.8203C -166.19963 293.68527 -166.22348 294.55023 -166.24805 295.4414C -166.2912 297.23804 -166.32234 299.035 -166.3418 300.83203C -166.55136 307.35294 -166.55136 307.35294 -168.79297 310.58594C -171.11269 312.0722 -172.27354 312.5426 -175 312.5C -175.66 312.5103 -176.32 312.52063 -177 312.53125C -179.94765 311.7483 -181.09558 310.35883 -183 308C -183.51758 305.05835 -183.51758 305.05835 -183.53125 301.65234C -183.5364 300.40646 -183.54156 299.16058 -183.54688 297.87695C -183.5314 296.57693 -183.51593 295.27692 -183.5 293.9375C -183.51547 292.66455 -183.53094 291.3916 -183.54688 290.08008C -183.49597 277.69028 -180.64853 268.05954 -172 259C -166.23506 253.49661 -158.31166 248 -150 248C -149.72156 247.01 -149.72156 247.01 -149.4375 246C -146.91426 240.73412 -143.48888 235.8837 -137.87207 233.8894C -136.92429 233.5959 -135.9765 233.3024 -135 233C -135.00888 232.04422 -135.01776 231.08844 -135.02692 230.1037C -135.10799 221.09872 -135.16795 212.09384 -135.20724 203.0886C -135.22813 198.4588 -135.25645 193.82932 -135.30176 189.1997C -135.3452 184.73228 -135.36914 180.26514 -135.3795 175.79753C -135.3869 174.09264 -135.40134 172.38777 -135.42293 170.68301C -135.45193 168.29582 -135.45596 165.9098 -135.4541 163.52246C -135.46848 162.81683 -135.48286 162.1112 -135.49768 161.3842C -135.46939 158.02199 -135.20569 156.27342 -133.1601 153.55426C -130.2392 151.45258 -128.30719 151.59534 -124.75 151.75C -123.67234 151.78609 -122.59469 151.82219 -121.484375 151.85938C -120.66453 151.90578 -119.84469 151.9522 -119 152C -119.026184 150.6933 -119.05237 149.38658 -119.079346 148.04028C -119.169945 143.18564 -119.22729 138.33107 -119.27466 133.47583C -119.29978 131.37576 -119.333885 129.27579 -119.3772 127.176025C -119.43795 124.15489 -119.46623 121.13492 -119.48828 118.11328C -119.51409 117.17664 -119.539894 116.24 -119.56648 115.27498C -119.568375 110.85871 -119.53603 108.710396 -116.81445 105.103516C -114.07644 103.05714 -111.35673 101.07835 -108.48047 99.23047C -107.458885 98.569824 -106.4373 97.90918 -105.384766 97.228516C -103.80212 96.218216 -103.80212 96.218216 -102.1875 95.1875C -100.57585 94.14819 -100.57585 94.14819 -98.93164 93.08789C -96.29129 91.38633 -93.647385 89.6906 -91 88C -92.30155 83.92036 -92.30155 83.92036 -94 80C -94.388695 76.50177 -94.33607 74.57637 -92.546875 71.50781C -89.069626 68.08389 -85.54205 67.07362 -80.9375 65.6875C -80.12217 65.42389 -79.30684 65.16027 -78.4668 64.88867C -75.1572 63.841675 -72.49445 63 -69 63C -71.43424 60.48462 -73.82342 58.141808 -76.55859 55.945312C -83.579056 50.18953 -83.579056 50.18953 -84.78516 46.78125C -84.93198 43.35978 -84.2133 41.286854 -82.1875 38.5625C -79.10183 36.358448 -76.6025 35.882217 -72.91016 35.82422C -71.73357 35.78845 -71.73357 35.78845 -70.5332 35.751953C -68.890236 35.709095 -67.246925 35.677784 -65.603516 35.658203C -64.81783 35.63049 -64.03215 35.60277 -63.222656 35.57422C -62.508595 35.559635 -61.794537 35.545055 -61.058838 35.53003C -58.06688 34.759777 -56.848198 33.44035 -55 31C -54.621628 28.46919 -54.621628 28.46919 -55.003906 25.753906C -55.084473 24.75166 -55.16504 23.749414 -55.248047 22.716797C -55.457336 20.61741 -55.670864 18.518442 -55.88867 16.419922C -56.498615 8.698922 -56.498615 8.698922 -53.734375 4.8242188C -51 3 -51 3 -47.6875 2.25C -42.396168 3.3262033 -39.766655 6.2926626 -36 10C -34.76158 11.137735 -33.512264 12.263777 -32.25 13.375C -31.45336 14.098164 -31.45336 14.098164 -30.640625 14.8359375C -28.65025 16.248156 -27.448956 16.827665 -25 17C -20.220188 14.983397 -17.752731 11.449511 -14.8125 7.375C -10.330352 1.2491777 -7.938465 -0.89602476 0 0zM-14.4375 31.4375C -22.05933 34.780407 -29.141476 34.296814 -37 32C -37.21914 32.568478 -37.438282 33.13695 -37.664062 33.722656C -41.241337 42.43317 -45.547367 47.77368 -54 52C -53.320877 54.04727 -53.320877 54.04727 -52 56C -49.940853 56.55261 -49.940853 56.55261 -47.625 56.5C -44.577705 56.540768 -43.360115 56.712456 -40.945312 58.640625C -36.459682 64.081024 -31.652678 71.33714 -31.3125 78.5625C -32.071323 82.35662 -32.938206 83.70366 -36 86C -34.800236 89.085106 -33.499973 92.05047 -32 95C -31.287148 94.71125 -30.574297 94.4225 -29.839844 94.125C -21.031713 90.710815 -15.026915 90.46613 -6 93C -5.648086 92.20336 -5.2961717 91.406715 -4.9335938 90.58594C -1.0333053 82.21508 2.6210756 76.98822 11 73C 10.525625 72.05125 10.05125 71.1025 9.5625 70.125C 6.2755065 62.361435 6.6731358 54.961338 9 47C 8.191758 46.636486 7.383516 46.27297 6.5507812 45.898438C -2.2607214 41.753098 -6.0884237 38.349678 -11 30C -12.3280735 29.915337 -12.3280735 29.915337 -14.4375 31.4375zM-58.328125 76.21484C -59.127342 76.48877 -59.926563 76.762695 -60.75 77.04492C -61.575 77.33947 -62.4 77.634026 -63.25 77.9375C -64.510704 78.37353 -64.510704 78.37353 -65.796875 78.81836C -67.86806 79.53621 -69.93533 80.263664 -72 81C -72 84.17436 -71.58465 85.06293 -70 87.6875C -69.01 89.32719 -69.01 89.32719 -68 91C -63.425213 88.54461 -59.92652 85.35144 -56.1875 81.8125C -55.59002 81.25369 -54.99254 80.694885 -54.376953 80.11914C -52.914253 78.75005 -51.456608 77.375565 -50 76C -53.259956 74.91442 -55.105423 75.0869 -58.328125 76.21484zM-119 168C -119 189.12 -119 210.24 -119 232C -113.72 232 -108.44 232 -103 232C -103 210.88 -103 189.76 -103 168C -108.28 168 -113.56 168 -119 168zM-133 251C -136.33669 256.49307 -135.33437 263.48892 -135.31567 269.71948C -135.31252 271.92743 -135.336 274.13403 -135.36133 276.3418C -135.3636 277.7578 -135.3643 279.17383 -135.36328 280.58984C -135.36626 281.86722 -135.36925 283.1446 -135.37231 284.4607C -134.96053 288.3753 -134.19443 290.73636 -132 294C -126.50694 297.33667 -119.51109 296.33435 -113.28052 296.31567C -111.07258 296.3125 -108.86598 296.336 -106.6582 296.36133C -105.24219 296.3636 -103.82617 296.36432 -102.41016 296.36328C -101.132774 296.36627 -99.85539 296.36923 -98.53931 296.3723C -94.6247 295.9605 -92.26364 295.19443 -89 293C -85.66332 287.50693 -86.66564 280.51108 -86.684326 274.28052C -86.687485 272.07257 -86.664 269.86597 -86.63867 267.6582C -86.6364 266.2422 -86.6357 264.82617 -86.63672 263.41016C -86.633736 262.13278 -86.63076 260.8554 -86.627686 259.5393C -87.03948 255.62471 -87.80558 253.26364 -90 250C -95.49306 246.66331 -102.48891 247.66563 -108.71948 247.68433C -110.92742 247.68748 -113.13402 247.664 -115.3418 247.63867C -116.75781 247.6364 -118.17383 247.6357 -119.58984 247.63672C -120.867226 247.63374 -122.14461 247.63075 -123.46069 247.62769C -127.3753 248.03947 -129.73636 248.80557 -133 251z" stroke="none" fill="#000000" fill-rule="nonzero" />
    <path transform="matrix(1 0 0 1 90.22461 95.492065)"  d="M0 0C 1.2786695 -0.0112793 2.557339 -0.02255859 3.8747559 -0.03417969C 5.289553 -0.02640266 6.704348 -0.01821 8.119141 -0.00964355C 9.610765 -0.01506435 11.102385 -0.02218677 12.593994 -0.03088379C 16.643618 -0.04912547 20.692833 -0.04204633 24.742462 -0.02936745C 28.97936 -0.01924407 33.216225 -0.02863128 37.453125 -0.03491211C 44.568424 -0.04219046 51.683556 -0.03259594 58.79883 -0.0135498C 67.02642 0.00821938 75.25362 0.00116814 83.48119 -0.02085543C 90.54373 -0.03900413 97.606155 -0.04157037 104.66871 -0.03110075C 108.88752 -0.02486287 113.10615 -0.02403817 117.32495 -0.0372467C 121.29119 -0.04879699 125.25693 -0.04079505 129.22311 -0.01766968C 130.67918 -0.01237811 132.13528 -0.01390409 133.59134 -0.02272034C 135.5778 -0.03363977 137.56436 -0.01752243 139.55078 0C 141.21881 0.00226215 141.21881 0.00226215 142.92053 0.00457001C 146.42747 0.62291026 147.60373 1.7431033 149.77539 4.5079346C 150.30664 6.5079346 150.30664 6.5079346 150.27539 8.507935C 150.29086 9.497934 150.29086 9.497934 150.30664 10.507935C 149.52567 13.448073 148.1215 14.602693 145.77539 16.507935C 142.94061 17.026917 142.94061 17.026917 139.62988 17.053833C 138.3889 17.073551 137.14792 17.09327 135.86932 17.113586C 134.52031 17.11525 133.17128 17.11648 131.82227 17.11731C 130.43791 17.132294 129.05357 17.149021 127.66925 17.16742C 124.03279 17.211075 120.39657 17.231087 116.75989 17.246155C 113.04616 17.265732 109.332695 17.307701 105.61914 17.347778C 98.33796 17.423061 91.05689 17.473364 83.77539 17.507935C 89.69511 23.497152 95.62288 29.478233 101.56111 35.44909C 104.3182 38.221836 107.072426 40.997303 109.82031 43.779175C 112.472145 46.463593 115.131226 49.140625 117.79551 51.812683C 118.81082 52.83354 119.823494 53.85704 120.83346 54.88319C 122.24816 56.31966 123.67318 57.74595 125.09863 59.171753C 125.90694 59.986717 126.71524 60.80168 127.548035 61.641342C 129.73193 63.471523 130.99066 64.13452 133.77539 64.507935C 133.75444 63.68068 133.73349 62.853424 133.71191 62.0011C 133.62877 58.2535 133.57674 54.506096 133.52539 50.757935C 133.49188 49.455982 133.45836 48.15403 133.42383 46.812622C 133.41093 45.562233 133.39804 44.31184 133.38477 43.02356C 133.36382 41.87146 133.34286 40.71936 133.32129 39.53235C 133.87021 35.87647 134.89182 34.739994 137.77539 32.507935C 139.77539 31.976685 139.77539 31.976685 141.77539 32.007935C 142.4354 31.997622 143.0954 31.98731 143.77539 31.976685C 146.82907 32.78782 147.8665 33.977737 149.77539 36.507935C 150.37654 39.5053 150.33597 42.459026 150.30664 45.507935C 150.31047 46.38063 150.3143 47.253326 150.31824 48.152466C 150.32095 49.994926 150.3136 51.837425 150.29688 53.67981C 150.27547 56.498394 150.29668 59.31443 150.32227 62.132935C 150.31963 63.924606 150.3145 65.71628 150.30664 67.507935C 150.31474 68.34969 150.32283 69.19145 150.33118 70.058716C 150.31227 71.24014 150.31227 71.24014 150.29297 72.445435C 150.28978 73.135086 150.2866 73.82473 150.28333 74.53528C 149.5275 77.47066 148.11398 78.61462 145.77539 80.507935C 142.92053 81.0113 142.92053 81.0113 139.55078 81.01587C 138.27211 81.027145 136.99344 81.03843 135.67603 81.05005C 134.26123 81.042274 132.84644 81.03408 131.43164 81.02551C 129.94002 81.03094 128.4484 81.038055 126.95679 81.04675C 122.907166 81.064995 118.85795 81.057915 114.80832 81.045235C 110.57142 81.03511 106.33456 81.0445 102.09766 81.05078C 94.98236 81.05806 87.867226 81.04846 80.75195 81.02942C 72.52436 81.00765 64.297165 81.0147 56.069588 81.03673C 49.00705 81.05487 41.94463 81.05744 34.882072 81.04697C 30.66326 81.04073 26.444632 81.03991 22.22583 81.053116C 18.259586 81.06467 14.293855 81.05666 10.327667 81.03354C 8.871601 81.028244 7.4154916 81.02977 5.959442 81.03859C 3.972977 81.04951 1.9864179 81.033394 0 81.01587C -1.6680267 81.0136 -1.6680267 81.0136 -3.369751 81.0113C -6.899193 80.38899 -8.081861 79.33519 -10.224609 76.507935C -10.732544 73.320435 -10.732544 73.320435 -10.7421875 69.507935C -10.749197 68.811516 -10.7562065 68.115105 -10.763428 67.39758C -10.781001 65.100624 -10.769388 62.804905 -10.755859 60.507935C -10.758554 58.908974 -10.762437 57.310013 -10.767456 55.71106C -10.77335 52.361942 -10.7647915 49.013252 -10.746094 45.664185C -10.723304 41.37315 -10.736427 37.083115 -10.760384 32.792114C -10.774844 29.49093 -10.770234 26.189985 -10.759872 22.888794C -10.757206 21.30676 -10.760472 19.724707 -10.769791 18.1427C -10.779962 15.930533 -10.764451 13.719981 -10.7421875 11.507935C -10.739005 10.249809 -10.735823 8.991685 -10.732544 7.6954346C -9.712238 1.2925922 -6.028033 0.00817513 0 0zM26.77539 16.507935C 30.976805 21.53871 35.373985 26.191216 40.070312 30.763794C 43.572655 34.208008 44.706738 35.426674 45.02539 40.445435C 44.971596 42.91557 44.888912 44.280895 43.77539 46.507935C 40.394302 48.19848 37.376457 48.40065 33.77539 47.507935C 31.953613 46.265015 31.953613 46.265015 30.126953 44.589966C 29.088734 43.639122 29.088734 43.639122 28.029541 42.669067C 23.89514 38.705273 19.85655 34.651157 15.837891 30.570435C 14.143547 28.850746 12.447058 27.133167 10.748047 25.41809C 10.008205 24.666649 9.268364 23.915205 8.5061035 23.140991C 7.0507603 21.393553 7.0507603 21.393553 5.7753906 21.507935C 5.7753906 35.697933 5.7753906 49.887936 5.7753906 64.507935C 38.44539 64.507935 71.11539 64.507935 104.77539 64.507935C 80.86057 32.4656 80.86057 32.4656 48.17383 13.812622C 40.92433 13.307374 33.72269 14.448703 26.77539 16.507935z" stroke="none" fill="#000000" fill-rule="nonzero" />
    <path transform="matrix(1 0 0 1 117.9375 431.48242)"  d="M0 0C 1.0085303 -0.00700928 2.0170605 -0.01401855 3.0561523 -0.02124023C 6.391881 -0.03885406 9.726763 -0.02718497 13.0625 -0.01367188C 15.378908 -0.0163658 17.695314 -0.02024739 20.011719 -0.02526855C 24.867296 -0.03116822 29.722582 -0.02258526 34.578125 -0.00390625C 40.806145 0.01888316 47.033478 0.00576265 53.261475 -0.01819611C 58.044975 -0.0326412 62.828312 -0.02805393 67.61182 -0.01768494C 69.90836 -0.0150141 72.20493 -0.01829988 74.501465 -0.02760315C 77.70971 -0.03774714 80.91684 -0.02229671 84.125 0C 85.55272 -0.01214539 85.55272 -0.01214539 87.00928 -0.02453613C 93.35604 0.05729722 93.35604 0.05729722 96.651245 2.2042236C 98.376564 5.032392 98.569275 6.7431984 98.58008 10.048828C 98.59269 11.156777 98.60529 12.264727 98.618286 13.40625C 98.61019 14.597988 98.60209 15.789726 98.59375 17.017578C 98.59949 18.859325 98.59949 18.859325 98.60535 20.738281C 98.60807 23.333992 98.60069 25.929731 98.583984 28.52539C 98.562584 32.502575 98.58378 36.47795 98.609375 40.45508C 98.606735 42.975914 98.60161 45.49675 98.59375 48.01758C 98.601845 49.209316 98.60995 50.401054 98.618286 51.628906C 98.605675 52.736855 98.59307 53.844803 98.58008 54.98633C 98.5769 55.960217 98.573715 56.9341 98.570435 57.9375C 97.92046 61.239044 96.647125 62.433353 94.0625 64.51758C 92.0625 65.04883 92.0625 65.04883 90.0625 65.01758C 89.0725 65.03305 89.0725 65.03305 88.0625 65.04883C 84.96077 64.22493 83.97351 63.12618 82.0625 60.51758C 81.496605 57.17868 81.59751 53.879864 81.671875 50.501953C 81.6759 49.64102 81.67993 48.780087 81.68408 47.893066C 81.70497 44.684353 81.76082 41.475945 81.8125 38.26758C 81.895 31.090078 81.9775 23.912579 82.0625 16.517578C 55.6625 16.517578 29.2625 16.517578 2.0625 16.517578C 2.2206862 30.818174 2.2206862 30.818174 2.4228516 45.118164C 2.4345355 46.91275 2.444728 48.707348 2.453125 50.501953C 2.473589 51.43153 2.4940526 52.361103 2.5151367 53.318848C 2.518697 59.89485 2.518697 59.89485 0.16308594 63.11035C -2.1009989 64.62711 -3.2370157 65.05978 -5.9375 65.01758C -6.5975 65.02789 -7.2575 65.0382 -7.9375 65.04883C -10.856734 64.27341 -12.03112 62.828903 -13.9375 60.51758C -14.445435 57.9375 -14.445435 57.9375 -14.455078 54.98633C -14.467687 53.87838 -14.480295 52.77043 -14.493286 51.628906C -14.485189 50.43717 -14.477093 49.24543 -14.46875 48.01758C -14.472577 46.789745 -14.476404 45.561913 -14.480347 44.296875C -14.483068 41.701164 -14.475689 39.105423 -14.458984 36.509766C -14.437581 32.53258 -14.458779 28.557205 -14.484375 24.580078C -14.481731 22.05924 -14.476607 19.538404 -14.46875 17.017578C -14.476847 15.82584 -14.484943 14.634102 -14.493286 13.40625C -14.480678 12.298301 -14.468069 11.1903515 -14.455078 10.048828C -14.451896 9.074942 -14.448713 8.101055 -14.445435 7.0976562C -13.9375 4.517578 -13.9375 4.517578 -12.526245 2.2042236C -8.512106 -0.41110894 -4.6939974 -0.03993116 0 0z" stroke="none" fill="#000000" fill-rule="nonzero" />
    <path transform="matrix(1 0 0 1 386 127.46875)"  d="M0 0C 4.0356326 1.071965 5.890037 4.3445525 7.9228516 7.7958984C 8.587818 9.072806 9.243284 10.354692 9.890625 11.640625C 10.240102 12.326265 10.589579 13.011906 10.949646 13.718323C 11.683193 15.165238 12.412466 16.614326 13.137695 18.06543C 14.243853 20.269003 15.37495 22.4585 16.507812 24.648438C 17.220318 26.06171 17.931307 27.47575 18.640625 28.890625C 19.146774 29.859808 19.146774 29.859808 19.663147 30.848572C 22.002985 35.621918 22.438805 39.216213 22 44.53125C 20.5 47.03125 20.5 47.03125 18 48.53125C 15.220118 49.078114 12.747914 49.261166 10 48.53125C 6.303839 45.410515 4.251872 41.67791 2.109375 37.421875C 1.7598981 36.736237 1.4104211 36.050594 1.050354 35.344177C 0.3168069 33.897263 -0.4124664 32.448174 -1.1376953 30.99707C -2.2438524 28.793497 -3.3749502 26.604 -4.5078125 24.414062C -5.220319 23.00079 -5.931307 21.58675 -6.640625 20.171875C -7.1467733 19.202692 -7.1467733 19.202692 -7.663147 18.213928C -10.002986 13.440583 -10.438805 9.846286 -10 4.53125C -7.4469967 0.2762442 -4.6096897 0.0720264 0 0z" stroke="none" fill="#000000" fill-rule="nonzero" />
    <path transform="matrix(1 0 0 1 361.8816 167.43018)"  d="M0 0C 2.5755222 0.6927819 3.800845 1.7011216 5.7629395 3.4995117C 6.8020043 4.449994 6.8020043 4.449994 7.8620605 5.4196777C 11.985867 9.349385 16.03738 13.345178 20.055908 17.382324C 20.917646 18.240196 21.779385 19.098066 22.667236 19.981934C 23.485146 20.801132 24.303057 21.620333 25.145752 22.464355C 25.885593 23.205324 26.625435 23.946295 27.387695 24.709717C 30.296654 27.83616 30.473074 30.336515 30.38794 34.59326C 30.118408 36.569824 30.118408 36.569824 28.618408 39.069824C 25.794771 40.764008 23.539705 41.321987 20.236816 41.13965C 17.661295 40.446865 16.435972 39.438526 14.473877 37.640137C 13.781167 37.00648 13.088457 36.372826 12.374756 35.71997C 8.25095 31.790262 4.1994357 27.79447 0.1809082 23.757324C -0.68083006 22.899452 -1.5425683 22.041582 -2.43042 21.157715C -3.6572852 19.928917 -3.6572852 19.928917 -4.9089355 18.675293C -5.648777 17.934324 -6.388618 17.193354 -7.150879 16.429932C -10.059838 13.303488 -10.236258 10.803133 -10.151123 6.5463867C -9.881592 4.569824 -9.881592 4.569824 -8.381592 2.0698242C -5.5579557 0.3756425 -3.3028889 -0.18233792 0 0z" stroke="none" fill="#000000" fill-rule="nonzero" />
    <path transform="matrix(1 0 0 1 440 311.5)"  d="M0 0C 0.66 -0.0103125 1.32 -0.020625 2 -0.03125C 4.917961 0.7438334 6.0931087 2.1910417 8 4.5C 8.517578 7.09375 8.517578 7.09375 8.53125 10C 8.5364065 11.051875 8.541562 12.10375 8.546875 13.1875C 8.531406 14.280625 8.515938 15.37375 8.5 16.5C 8.515469 17.593124 8.530937 18.68625 8.546875 19.8125C 8.5417185 20.864374 8.536563 21.91625 8.53125 23C 8.526738 23.959063 8.522226 24.918125 8.517578 25.90625C 7.857725 29.212986 6.5888643 30.409086 4 32.5C 2 33.03125 2 33.03125 0 33C -0.99 33.01547 -0.99 33.01547 -2 33.03125C -4.917961 32.25617 -6.0931087 30.808958 -8 28.5C -8.517578 25.90625 -8.517578 25.90625 -8.53125 23C -8.5364065 21.948126 -8.541562 20.89625 -8.546875 19.8125C -8.531406 18.719376 -8.515938 17.62625 -8.5 16.5C -8.515469 15.406875 -8.530937 14.31375 -8.546875 13.1875C -8.539141 11.609688 -8.539141 11.609688 -8.53125 10C -8.526738 9.040937 -8.522226 8.081875 -8.517578 7.09375C -7.6032987 2.5120027 -4.67434 -0.07303656 0 0z" stroke="none" fill="#000000" fill-rule="nonzero" />
    <path transform="matrix(1 0 0 1 432 143.5)"  d="M0 0C 0.66 -0.0103125 1.32 -0.020625 2 -0.03125C 4.917961 0.7438334 6.0931087 2.1910417 8 4.5C 8.517578 7.09375 8.517578 7.09375 8.53125 10C 8.5364065 11.051875 8.541562 12.10375 8.546875 13.1875C 8.531406 14.280625 8.515938 15.37375 8.5 16.5C 8.515469 17.593124 8.530937 18.68625 8.546875 19.8125C 8.5417185 20.864374 8.536563 21.91625 8.53125 23C 8.526738 23.959063 8.522226 24.918125 8.517578 25.90625C 7.857725 29.212986 6.5888643 30.409086 4 32.5C 2 33.03125 2 33.03125 0 33C -0.99 33.01547 -0.99 33.01547 -2 33.03125C -4.917961 32.25617 -6.0931087 30.808958 -8 28.5C -8.517578 25.90625 -8.517578 25.90625 -8.53125 23C -8.5364065 21.948126 -8.541562 20.89625 -8.546875 19.8125C -8.531406 18.719376 -8.515938 17.62625 -8.5 16.5C -8.515469 15.406875 -8.530937 14.31375 -8.546875 13.1875C -8.539141 11.609688 -8.539141 11.609688 -8.53125 10C -8.526738 9.040937 -8.522226 8.081875 -8.517578 7.09375C -7.6032987 2.5120027 -4.67434 -0.07303656 0 0z" stroke="none" fill="#000000" fill-rule="nonzero" />
    <path transform="matrix(1 0 0 1 228 400)"  d="M0 0C 2.5 1.5 2.5 1.5 4 4C 4.791013 8.020983 4.621534 10.96411 2.5 14.5C -1.0358897 16.621534 -3.9790173 16.791014 -8 16C -10.5 14.5 -10.5 14.5 -12 12C -12.791013 7.9790173 -12.621533 5.0358896 -10.5 1.5C -6.9641104 -0.6215338 -4.0209827 -0.791013 0 0z" stroke="none" fill="#000000" fill-rule="nonzero" />
    <path transform="matrix(1 0 0 1 108 400)"  d="M0 0C 2.5 1.5 2.5 1.5 4 4C 4.791013 8.020983 4.621534 10.96411 2.5 14.5C -1.0358897 16.621534 -3.9790173 16.791014 -8 16C -10.5 14.5 -10.5 14.5 -12 12C -12.791013 7.9790173 -12.621533 5.0358896 -10.5 1.5C -6.9641104 -0.6215338 -4.0209827 -0.791013 0 0z" stroke="none" fill="#000000" fill-rule="nonzero" />
    <path transform="matrix(1 0 0 1 444 360)"  d="M0 0C 2.5 1.5 2.5 1.5 4 4C 4.791013 8.020983 4.621534 10.96411 2.5 14.5C -1.0358897 16.621534 -3.9790173 16.791014 -8 16C -10.5 14.5 -10.5 14.5 -12 12C -12.791013 7.9790173 -12.621533 5.0358896 -10.5 1.5C -6.9641104 -0.6215338 -4.0209827 -0.791013 0 0z" stroke="none" fill="#000000" fill-rule="nonzero" />
    <path transform="matrix(1 0 0 1 476 328)"  d="M0 0C 2.5 1.5 2.5 1.5 4 4C 4.791013 8.020983 4.621534 10.96411 2.5 14.5C -1.0358897 16.621534 -3.9790173 16.791014 -8 16C -10.5 14.5 -10.5 14.5 -12 12C -12.791013 7.9790173 -12.621533 5.0358896 -10.5 1.5C -6.9641104 -0.6215338 -4.0209827 -0.791013 0 0z" stroke="none" fill="#000000" fill-rule="nonzero" />
    <path transform="matrix(1 0 0 1 388 312)"  d="M0 0C 2.5 1.5 2.5 1.5 4 4C 4.791013 8.020983 4.621534 10.96411 2.5 14.5C -1.0358897 16.621534 -3.9790173 16.791014 -8 16C -10.5 14.5 -10.5 14.5 -12 12C -12.791013 7.9790173 -12.621533 5.0358896 -10.5 1.5C -6.9641104 -0.6215338 -4.0209827 -0.791013 0 0z" stroke="none" fill="#000000" fill-rule="nonzero" />
    <path transform="matrix(1 0 0 1 492 288)"  d="M0 0C 2.5 1.5 2.5 1.5 4 4C 4.791013 8.020983 4.621534 10.96411 2.5 14.5C -1.0358897 16.621534 -3.9790173 16.791014 -8 16C -10.5 14.5 -10.5 14.5 -12 12C -12.791013 7.9790173 -12.621533 5.0358896 -10.5 1.5C -6.9641104 -0.6215338 -4.0209827 -0.791013 0 0z" stroke="none" fill="#000000" fill-rule="nonzero" />
    <path transform="matrix(1 0 0 1 348 216)"  d="M0 0C 2.5 1.5 2.5 1.5 4 4C 4.791013 8.020983 4.621534 10.96411 2.5 14.5C -1.0358897 16.621534 -3.9790173 16.791014 -8 16C -10.5 14.5 -10.5 14.5 -12 12C -12.791013 7.9790173 -12.621533 5.0358896 -10.5 1.5C -6.9641104 -0.6215338 -4.0209827 -0.791013 0 0z" stroke="none" fill="#000000" fill-rule="nonzero" />
    <path transform="matrix(1 0 0 1 228 192)"  d="M0 0C 2.5 1.5 2.5 1.5 4 4C 4.791013 8.020983 4.621534 10.96411 2.5 14.5C -1.0358897 16.621534 -3.9790173 16.791014 -8 16C -10.5 14.5 -10.5 14.5 -12 12C -12.791013 7.9790173 -12.621533 5.0358896 -10.5 1.5C -6.9641104 -0.6215338 -4.0209827 -0.791013 0 0z" stroke="none" fill="#000000" fill-rule="nonzero" />
    <path transform="matrix(1 0 0 1 196 192)"  d="M0 0C 2.5 1.5 2.5 1.5 4 4C 4.791013 8.020983 4.621534 10.96411 2.5 14.5C -1.0358897 16.621534 -3.9790173 16.791014 -8 16C -10.5 14.5 -10.5 14.5 -12 12C -12.791013 7.9790173 -12.621533 5.0358896 -10.5 1.5C -6.9641104 -0.6215338 -4.0209827 -0.791013 0 0z" stroke="none" fill="#000000" fill-rule="nonzero" />
    <path transform="matrix(1 0 0 1 164 192)"  d="M0 0C 2.5 1.5 2.5 1.5 4 4C 4.791013 8.020983 4.621534 10.96411 2.5 14.5C -1.0358897 16.621534 -3.9790173 16.791014 -8 16C -10.5 14.5 -10.5 14.5 -12 12C -12.791013 7.9790173 -12.621533 5.0358896 -10.5 1.5C -6.9641104 -0.6215338 -4.0209827 -0.791013 0 0z" stroke="none" fill="#000000" fill-rule="nonzero" />
    <path transform="matrix(1 0 0 1 132 192)"  d="M0 0C 2.5 1.5 2.5 1.5 4 4C 4.791013 8.020983 4.621534 10.96411 2.5 14.5C -1.0358897 16.621534 -3.9790173 16.791014 -8 16C -10.5 14.5 -10.5 14.5 -12 12C -12.791013 7.9790173 -12.621533 5.0358896 -10.5 1.5C -6.9641104 -0.6215338 -4.0209827 -0.791013 0 0z" stroke="none" fill="#000000" fill-rule="nonzero" />
    <path transform="matrix(1 0 0 1 100 192)"  d="M0 0C 2.5 1.5 2.5 1.5 4 4C 4.791013 8.020983 4.621534 10.96411 2.5 14.5C -1.0358897 16.621534 -3.9790173 16.791014 -8 16C -10.5 14.5 -10.5 14.5 -12 12C -12.791013 7.9790173 -12.621533 5.0358896 -10.5 1.5C -6.9641104 -0.6215338 -4.0209827 -0.791013 0 0z" stroke="none" fill="#000000" fill-rule="nonzero" />
    <path transform="matrix(1 0 0 1 484 176)"  d="M0 0C 2.5 1.5 2.5 1.5 4 4C 4.791013 8.020983 4.621534 10.96411 2.5 14.5C -1.0358897 16.621534 -3.9790173 16.791014 -8 16C -10.5 14.5 -10.5 14.5 -12 12C -12.791013 7.9790173 -12.621533 5.0358896 -10.5 1.5C -6.9641104 -0.6215338 -4.0209827 -0.791013 0 0z" stroke="none" fill="#000000" fill-rule="nonzero" />
    <path transform="matrix(1 0 0 1 340 144)"  d="M0 0C 2.5 1.5 2.5 1.5 4 4C 4.791013 8.020983 4.621534 10.96411 2.5 14.5C -1.0358897 16.621534 -3.9790173 16.791014 -8 16C -10.5 14.5 -10.5 14.5 -12 12C -12.791013 7.9790173 -12.621533 5.0358896 -10.5 1.5C -6.9641104 -0.6215338 -4.0209827 -0.791013 0 0z" stroke="none" fill="#000000" fill-rule="nonzero" />
    <path transform="matrix(1 0 0 1 476 136)"  d="M0 0C 2.5 1.5 2.5 1.5 4 4C 4.791013 8.020983 4.621534 10.96411 2.5 14.5C -1.0358897 16.621534 -3.9790173 16.791014 -8 16C -10.5 14.5 -10.5 14.5 -12 12C -12.791013 7.9790173 -12.621533 5.0358896 -10.5 1.5C -6.9641104 -0.6215338 -4.0209827 -0.791013 0 0z" stroke="none" fill="#000000" fill-rule="nonzero" />
    <path transform="matrix(1 0 0 1 436 112)"  d="M0 0C 2.5 1.5 2.5 1.5 4 4C 4.791013 8.020983 4.621534 10.96411 2.5 14.5C -1.0358897 16.621534 -3.9790173 16.791014 -8 16C -10.5 14.5 -10.5 14.5 -12 12C -12.791013 7.9790173 -12.621533 5.0358896 -10.5 1.5C -6.9641104 -0.6215338 -4.0209827 -0.791013 0 0z" stroke="none" fill="#000000" fill-rule="nonzero" />
    <path transform="matrix(1 0 0 1 372 96)"  d="M0 0C 2.5 1.5 2.5 1.5 4 4C 4.791013 8.020983 4.621534 10.96411 2.5 14.5C -1.0358897 16.621534 -3.9790173 16.791014 -8 16C -10.5 14.5 -10.5 14.5 -12 12C -12.791013 7.9790173 -12.621533 5.0358896 -10.5 1.5C -6.9641104 -0.6215338 -4.0209827 -0.791013 0 0z" stroke="none" fill="#000000" fill-rule="nonzero" />
    <path transform="matrix(1 0 0 1 228 64)"  d="M0 0C 2.5 1.5 2.5 1.5 4 4C 4.791013 8.020983 4.621534 10.96411 2.5 14.5C -1.0358897 16.621534 -3.9790173 16.791014 -8 16C -10.5 14.5 -10.5 14.5 -12 12C -12.791013 7.9790173 -12.621533 5.0358896 -10.5 1.5C -6.9641104 -0.6215338 -4.0209827 -0.791013 0 0z" stroke="none" fill="#000000" fill-rule="nonzero" />
    <path transform="matrix(1 0 0 1 196 64)"  d="M0 0C 2.5 1.5 2.5 1.5 4 4C 4.791013 8.020983 4.621534 10.96411 2.5 14.5C -1.0358897 16.621534 -3.9790173 16.791014 -8 16C -10.5 14.5 -10.5 14.5 -12 12C -12.791013 7.9790173 -12.621533 5.0358896 -10.5 1.5C -6.9641104 -0.6215338 -4.0209827 -0.791013 0 0z" stroke="none" fill="#000000" fill-rule="nonzero" />
    <path transform="matrix(1 0 0 1 164 64)"  d="M0 0C 2.5 1.5 2.5 1.5 4 4C 4.791013 8.020983 4.621534 10.96411 2.5 14.5C -1.0358897 16.621534 -3.9790173 16.791014 -8 16C -10.5 14.5 -10.5 14.5 -12 12C -12.791013 7.9790173 -12.621533 5.0358896 -10.5 1.5C -6.9641104 -0.6215338 -4.0209827 -0.791013 0 0z" stroke="none" fill="#000000" fill-rule="nonzero" />
    <path transform="matrix(1 0 0 1 132 64)"  d="M0 0C 2.5 1.5 2.5 1.5 4 4C 4.791013 8.020983 4.621534 10.96411 2.5 14.5C -1.0358897 16.621534 -3.9790173 16.791014 -8 16C -10.5 14.5 -10.5 14.5 -12 12C -12.791013 7.9790173 -12.621533 5.0358896 -10.5 1.5C -6.9641104 -0.6215338 -4.0209827 -0.791013 0 0z" stroke="none" fill="#000000" fill-rule="nonzero" />
    <path transform="matrix(1 0 0 1 100 64)"  d="M0 0C 2.5 1.5 2.5 1.5 4 4C 4.791013 8.020983 4.621534 10.96411 2.5 14.5C -1.0358897 16.621534 -3.9790173 16.791014 -8 16C -10.5 14.5 -10.5 14.5 -12 12C -12.791013 7.9790173 -12.621533 5.0358896 -10.5 1.5C -6.9641104 -0.6215338 -4.0209827 -0.791013 0 0z" stroke="none" fill="#000000" fill-rule="nonzero" />
</g>
</svg>