<?xml version="1.0" encoding="UTF-8"?>
<svg version="1.1" xmlns="http://www.w3.org/2000/svg" width="512" height="512">
<path d="M0 0 C0.78375 0.21269531 1.5675 0.42539062 2.375 0.64453125 C14.50415818 4.00170896 22.58513106 8.51821729 28.90625 19.66796875 C31.0889748 24.32184984 31.14844857 28.66698986 31.14717102 33.7474823 C31.15084771 34.53267551 31.1545244 35.31786873 31.1583125 36.12685567 C31.16933446 38.76060246 31.17319066 41.39430978 31.17700195 44.02807617 C31.18326773 45.91551844 31.18991463 47.80295948 31.19691467 49.69039917 C31.21794392 55.89124698 31.22831601 62.092095 31.23828125 68.29296875 C31.24232923 70.42870916 31.24644617 72.56444944 31.25063133 74.70018959 C31.26968051 84.73445084 31.28391211 94.76870475 31.2922433 104.8029806 C31.30201506 116.38075057 31.32833422 127.95832931 31.36874419 139.5360319 C31.39891655 148.48819776 31.41371325 157.44030883 31.41702431 166.39252454 C31.41937351 171.73772849 31.42831722 177.08272808 31.45348549 182.42787743 C31.47679069 187.45859306 31.48098951 192.48897014 31.47072411 197.5197258 C31.47022923 199.3623384 31.47653531 201.20496781 31.49028015 203.04752922 C31.61429309 220.66290024 31.61429309 220.66290024 27 228 C26.46375 229.03125 25.9275 230.0625 25.375 231.125 C13.45954149 245.54897609 -12.33929857 255.69639595 -30.22094727 259.46850586 C-30.80803467 259.64389893 -31.39512207 259.81929199 -32 260 C-32.33 260.66 -32.66 261.32 -33 262 C-32.39437729 261.98889694 -31.78875458 261.97779388 -31.16477966 261.96635437 C-24.78814641 261.85463282 -18.41179673 261.77987163 -12.03442383 261.7253418 C-9.66321496 261.70039526 -7.2920814 261.66642551 -4.92114258 261.62280273 C13.54583985 261.29185323 28.11966428 261.90634534 43 274 C43.83273437 274.62648438 44.66546875 275.25296875 45.5234375 275.8984375 C54.56336694 283.56954481 62.01535232 297.06525065 63.19482231 308.96568871 C63.27892765 311.1264537 63.30449029 313.27973575 63.30639648 315.44213867 C63.31472 316.25603561 63.32304352 317.06993256 63.33161926 317.90849304 C63.35556757 320.57836787 63.36446926 323.24799819 63.37109375 325.91796875 C63.38006616 327.78168305 63.38918811 329.64539663 63.39845276 331.5091095 C63.41490007 335.40509794 63.42263606 339.30100082 63.42553711 343.19702148 C63.43094046 348.19083705 63.46871867 353.18385124 63.51428127 358.17743969 C63.5439941 362.02158062 63.55125928 365.8655263 63.55226326 369.70977211 C63.55647104 371.55141209 63.56892769 373.39305236 63.58978081 375.23457909 C63.61659812 377.80567493 63.61190156 380.37488129 63.59936523 382.94604492 C63.62161667 384.08617035 63.62161667 384.08617035 63.64431763 385.24932861 C63.59135402 389.05831095 63.31633935 390.66721586 60.65003967 393.47212219 C57.38697633 395.3534382 55.71107024 395.61851171 52 395 C49.35173035 393.40405273 49.35173035 393.40405273 47 391 C46.3742218 387.82836914 46.3742218 387.82836914 46.37231445 384.03515625 C46.36504333 383.34183701 46.35777222 382.64851776 46.35028076 381.93418884 C46.33169035 379.64310616 46.347765 377.35358364 46.36328125 375.0625 C46.35523499 373.46027237 46.34471333 371.85805544 46.33183289 370.25585938 C46.30325811 366.03202686 46.30270759 361.80868429 46.30969238 357.58477783 C46.31700368 350.85377552 46.28531418 344.12293402 46.24724388 337.39205933 C46.23849448 335.05690822 46.24365728 332.72211233 46.25080872 330.38696289 C46.24513834 315.03593866 44.889891 301.51956678 34.01953125 289.8203125 C23.75238131 280.56597619 12.72365606 279.71545701 -1 278 C-1 299.12 -1 320.24 -1 342 C2.96 342 6.92 342 11 342 C15.5001713 346.5001713 15.5001713 346.5001713 15.50793457 351.00976562 C15.51921387 352.01918213 15.53049316 353.02859863 15.54211426 354.06860352 C15.53401733 355.17002686 15.52592041 356.2714502 15.51757812 357.40625 C15.5245874 358.5708374 15.53159668 359.7354248 15.53881836 360.93530273 C15.55644432 364.79044333 15.54475841 368.64485174 15.53125 372.5 C15.53394357 375.17513953 15.53781853 377.85025669 15.54284668 380.52539062 C15.55012197 386.1341955 15.54053871 391.74278963 15.52148438 397.3515625 C15.49971557 403.83417907 15.50676705 410.31629242 15.52879 416.79889679 C15.54694759 422.36676589 15.54950066 427.93448359 15.53903532 433.50237274 C15.53280222 436.8269567 15.53353198 440.15125252 15.54518127 443.47583008 C15.55531748 447.18215157 15.53988485 450.88750107 15.51757812 454.59375 C15.52567505 455.69517334 15.53377197 456.79659668 15.54211426 457.93139648 C15.53083496 458.94081299 15.51955566 459.95022949 15.50793457 460.99023438 C15.50642647 461.86627319 15.50491837 462.74231201 15.50336456 463.64489746 C14.83350282 466.77899391 13.44063755 467.9944513 11 470 C9 470.53125 9 470.53125 7 470.5 C6.01 470.51546875 6.01 470.51546875 5 470.53125 C1.88312023 469.70332881 0.91567712 468.63169868 -1 466 C-1.59579234 462.54835148 -1.50458284 459.12628551 -1.45410156 455.63183594 C-1.45468567 454.57786621 -1.45526978 453.52389648 -1.45587158 452.43798828 C-1.45308414 448.95311589 -1.42195968 445.46909804 -1.390625 441.984375 C-1.38316499 439.56870999 -1.37747093 437.15303894 -1.37347412 434.73736572 C-1.35819905 428.3782888 -1.31890049 422.01957711 -1.2746582 415.66064453 C-1.23374624 409.17225078 -1.21547178 402.68379804 -1.1953125 396.1953125 C-1.15240856 383.46338581 -1.08490262 370.73171233 -1 358 C-2.31194336 358.02094727 -3.62388672 358.04189453 -4.97558594 358.06347656 C-9.84331344 358.1358797 -14.71099335 358.18180113 -19.57910156 358.21972656 C-21.68595382 358.23984126 -23.79275025 358.26713667 -25.89941406 358.30175781 C-28.92787447 358.35028168 -31.95559678 358.37297016 -34.984375 358.390625 C-36.39707672 358.42159271 -36.39707672 358.42159271 -37.83831787 358.45318604 C-44.31854695 358.4554093 -44.31854695 358.4554093 -47.59185791 356.2678833 C-49.18026505 353.70967412 -49.5130139 352.31573482 -49.54589844 349.32324219 C-49.56561707 348.40258972 -49.58533569 347.48193726 -49.60565186 346.53338623 C-49.60749481 345.05506317 -49.60749481 345.05506317 -49.609375 343.546875 C-49.62591125 342.53151672 -49.64244751 341.51615845 -49.65948486 340.47003174 C-49.7080339 337.22996005 -49.7293516 333.99035795 -49.75 330.75 C-49.77815383 328.55205962 -49.80808042 326.35414118 -49.83984375 324.15625 C-49.91379443 318.77091878 -49.9653965 313.38572 -50 308 C-50.61719406 308.41617584 -51.23438812 308.83235168 -51.87028503 309.26113892 C-52.68032486 309.80483124 -53.49036469 310.34852356 -54.32495117 310.90869141 C-55.12777023 311.44861725 -55.93058929 311.98854309 -56.75773621 312.54483032 C-67.69238607 319.64112781 -82.16030293 319.69008172 -94.63671875 317.3046875 C-101.56671709 315.19285702 -105.6261722 312.24921854 -112 308 C-112.33 319.22 -112.66 330.44 -113 342 C-109.87015625 341.95359375 -106.7403125 341.9071875 -103.515625 341.859375 C-100.48406598 341.82817941 -97.45252484 341.80389159 -94.42089844 341.78027344 C-92.31404618 341.76015874 -90.20724975 341.73286333 -88.10058594 341.69824219 C-85.07212553 341.64971832 -82.04440322 341.62702984 -79.015625 341.609375 C-78.07382385 341.58872986 -77.13202271 341.56808472 -76.16168213 341.54681396 C-69.62167925 341.54457019 -69.62167925 341.54457019 -66.40722656 343.89941406 C-64.8904686 346.16349899 -64.45780493 347.29951563 -64.5 350 C-64.4896875 350.66 -64.479375 351.32 -64.46875 352 C-65.27910136 355.05073452 -66.47334946 356.09387239 -69 358 C-71.96516587 358.58305145 -74.88633078 358.50532764 -77.89941406 358.45410156 C-78.79732666 358.45468567 -79.69523926 358.45526978 -80.62036133 358.45587158 C-83.58584359 358.45308668 -86.55031851 358.42197534 -89.515625 358.390625 C-91.57256521 358.38316406 -93.62951254 358.37747044 -95.6864624 358.37347412 C-101.09862922 358.35820628 -106.51036621 358.31891426 -111.92236328 358.2746582 C-117.44557887 358.23373049 -122.96886396 358.21546843 -128.4921875 358.1953125 C-139.32831378 358.15242136 -150.16412114 358.08415587 -161 358 C-160.99631283 358.55291592 -160.99262566 359.10583183 -160.98882675 359.67550278 C-160.90048849 373.12931135 -160.83455208 386.58306912 -160.79275131 400.03710556 C-160.77185835 406.54340149 -160.74350892 413.04948843 -160.69824219 419.55566406 C-160.6548463 425.83207509 -160.63087578 432.10828484 -160.62049103 438.38483429 C-160.61308847 440.78189514 -160.59863341 443.17894473 -160.57707977 445.5759201 C-160.54812984 448.92813605 -160.54404059 452.27951552 -160.54589844 455.63183594 C-160.53151733 456.62733459 -160.51713623 457.62283325 -160.50231934 458.64849854 C-160.54275723 465.37185386 -160.54275723 465.37185386 -162.90338135 468.61480713 C-165.1634051 470.10795839 -166.31429279 470.54196418 -169 470.5 C-169.99 470.51546875 -169.99 470.51546875 -171 470.53125 C-173.90214124 469.76036873 -175.09143083 468.2820873 -177 466 C-177.50336456 463.64489746 -177.50336456 463.64489746 -177.50793457 460.99023438 C-177.51921387 459.98081787 -177.53049316 458.97140137 -177.54211426 457.93139648 C-177.53401733 456.82997314 -177.52592041 455.7285498 -177.51757812 454.59375 C-177.5245874 453.4291626 -177.53159668 452.2645752 -177.53881836 451.06469727 C-177.55644432 447.20955667 -177.54475841 443.35514826 -177.53125 439.5 C-177.53394357 436.82486047 -177.53781853 434.14974331 -177.54284668 431.47460938 C-177.55012197 425.8658045 -177.54053871 420.25721037 -177.52148438 414.6484375 C-177.49971557 408.16582093 -177.50676705 401.68370758 -177.52879 395.20110321 C-177.54694759 389.63323411 -177.54950066 384.06551641 -177.53903532 378.49762726 C-177.53280222 375.1730433 -177.53353198 371.84874748 -177.54518127 368.52416992 C-177.55531748 364.81784843 -177.53988485 361.11249893 -177.51757812 357.40625 C-177.52567505 356.30482666 -177.53377197 355.20340332 -177.54211426 354.06860352 C-177.53083496 353.05918701 -177.51955566 352.04977051 -177.50793457 351.00976562 C-177.50642647 350.13372681 -177.50491837 349.25768799 -177.50336456 348.35510254 C-176.832737 345.21742303 -175.45040532 344.00085353 -173 342 C-170.84857178 341.51898193 -170.84857178 341.51898193 -168.50683594 341.54589844 C-167.61399902 341.54638184 -166.72116211 341.54686523 -165.80126953 341.54736328 C-164.87169434 341.56782715 -163.94211914 341.58829102 -162.984375 341.609375 C-162.12344238 341.61340332 -161.26250977 341.61743164 -160.37548828 341.62158203 C-157.16677466 341.64247283 -153.9583654 341.69831856 -150.75 341.75 C-143.5725 341.8325 -136.395 341.915 -129 342 C-129 320.88 -129 299.76 -129 278 C-134.28 278 -139.56 278 -145 278 C-144.9685791 279.96791504 -144.9685791 279.96791504 -144.93652344 281.97558594 C-144.8641203 286.84331344 -144.81819887 291.71099335 -144.78027344 296.57910156 C-144.76015874 298.68595382 -144.73286333 300.79275025 -144.69824219 302.89941406 C-144.64971832 305.92787447 -144.62702984 308.95559678 -144.609375 311.984375 C-144.58872986 312.92617615 -144.56808472 313.86797729 -144.54681396 314.83831787 C-144.54457019 321.37832075 -144.54457019 321.37832075 -146.89941406 324.59277344 C-149.16349899 326.1095314 -150.29951563 326.54219507 -153 326.5 C-153.99 326.51546875 -153.99 326.51546875 -155 326.53125 C-158.10173118 325.70735266 -159.08899088 324.60860113 -161 322 C-161.56596343 318.66071699 -161.46468015 315.36266243 -161.390625 311.984375 C-161.38496521 311.01340881 -161.37930542 310.04244263 -161.37347412 309.04205322 C-161.35110311 305.94419831 -161.30090473 302.84750467 -161.25 299.75 C-161.22993597 297.64845422 -161.21168503 295.54689028 -161.1953125 293.4453125 C-161.1512358 288.2964283 -161.08220258 283.14841097 -161 278 C-164.21521799 278.44170583 -167.42800914 278.89915481 -170.640625 279.359375 C-171.54635254 279.4836084 -172.45208008 279.6078418 -173.38525391 279.73583984 C-183.77267528 281.24140046 -191.89282457 285.11500065 -199 293 C-207.89186737 305.27077698 -208.14818793 317.81339753 -208.1418457 332.43066406 C-208.14488183 333.88346461 -208.14840453 335.33626421 -208.15237427 336.7890625 C-208.16022502 339.90356805 -208.16539348 343.01806234 -208.16866493 346.13257599 C-208.17460115 351.05747441 -208.19116299 355.9823016 -208.21000671 360.90716553 C-208.2163427 362.59617992 -208.22266834 364.28519436 -208.22898388 365.97420883 C-208.23214969 366.81958316 -208.2353155 367.66495749 -208.23857725 368.53594923 C-208.28060674 379.99237849 -208.31366515 391.44877208 -208.32592773 402.90527344 C-208.33429968 410.64764897 -208.35674914 418.38984541 -208.3952834 426.13213134 C-208.41505625 430.22569497 -208.4274442 434.31899083 -208.42244911 438.41260529 C-208.41781361 442.25744177 -208.43154693 446.10176893 -208.45946121 449.94650269 C-208.46638883 451.3574125 -208.46648266 452.7683748 -208.45926094 454.17928314 C-208.4504021 456.104246 -208.46838133 458.02927678 -208.48774719 459.9541626 C-208.49013555 461.03148777 -208.4925239 462.10881294 -208.49498463 463.21878433 C-209.12184013 466.67099674 -210.28322056 467.85130293 -213 470 C-215 470.53125 -215 470.53125 -217 470.5 C-217.66 470.5103125 -218.32 470.520625 -219 470.53125 C-221.95127757 469.7473169 -223.0963931 468.36517946 -225 466 C-225.50336456 463.0581665 -225.50336456 463.0581665 -225.50793457 459.56347656 C-225.51417453 458.91924083 -225.5204145 458.27500509 -225.52684355 457.61124706 C-225.5427889 455.4539999 -225.53016421 453.29788039 -225.51757812 451.140625 C-225.52299904 449.59301596 -225.53012154 448.04541209 -225.53881836 446.49781799 C-225.55707064 442.29270938 -225.54997326 438.08799292 -225.53730202 433.88287735 C-225.52716967 429.47488605 -225.53656969 425.06692818 -225.54284668 420.65893555 C-225.55012852 413.2476602 -225.54052774 405.83654413 -225.52148438 398.42529297 C-225.49977875 389.87976543 -225.50671868 381.33462059 -225.52879 372.78910255 C-225.54700564 365.44024211 -225.54947041 358.09149623 -225.53903532 350.74262047 C-225.53282584 346.35923381 -225.5318928 341.97602624 -225.54518127 337.59265137 C-225.55682681 333.46223734 -225.54855716 329.33231018 -225.52560425 325.20194817 C-225.52036044 323.69441469 -225.52175576 322.18683953 -225.53065491 320.6793232 C-225.61327783 305.2470849 -221.5242188 290.31585089 -210.8125 278.68359375 C-198.40063431 267.15446851 -184.8895328 261.64470531 -168.16015625 261.8046875 C-166.47701576 261.80893234 -166.47701576 261.80893234 -164.75987244 261.81326294 C-161.19397082 261.82441225 -157.62832506 261.84950749 -154.0625 261.875 C-151.63737343 261.88503657 -149.21224291 261.89416124 -146.78710938 261.90234375 C-140.85798637 261.92433441 -134.92901147 261.95775973 -129 262 C-129.79383253 259.86742127 -129.79383253 259.86742127 -131.70800781 259.2890625 C-132.44889648 259.06992187 -133.18978516 258.85078125 -133.953125 258.625 C-134.78996826 258.3671875 -135.62681152 258.109375 -136.48901367 257.84375 C-137.8557019 257.42609375 -137.8557019 257.42609375 -139.25 257 C-158.03348007 250.99187609 -180.46706003 242.7970365 -191 225 C-192.84736398 220.41255837 -193.31987601 216.23105661 -193.3359375 211.3359375 C-193.3425943 210.6214444 -193.3492511 209.90695129 -193.35610962 209.17080688 C-193.36617988 207.66988684 -193.37092839 206.16892254 -193.37060547 204.66796875 C-193.37500142 202.37425701 -193.41143743 200.08243742 -193.44921875 197.7890625 C-193.4550837 196.32552737 -193.45905525 194.86198317 -193.4609375 193.3984375 C-193.47530853 192.71607025 -193.48967957 192.033703 -193.50448608 191.33065796 C-193.47199602 187.9460014 -193.21079763 186.26897108 -191.09619141 183.57080078 C-188.82237613 181.86689588 -187.80380389 181.45619056 -185 181.5 C-184.01 181.48453125 -184.01 181.48453125 -183 181.46875 C-180.08015244 182.24433451 -178.90594674 183.68743176 -177 186 C-176.50170898 188.60620117 -176.50170898 188.60620117 -176.49609375 191.54296875 C-176.46805664 193.15461914 -176.46805664 193.15461914 -176.43945312 194.79882812 C-176.43880859 195.91708984 -176.43816406 197.03535156 -176.4375 198.1875 C-176.70985329 211.14213778 -176.70985329 211.14213778 -170.92578125 222.2265625 C-132.49547646 245.52076594 -87.59100587 254.61194111 -43.32519531 244.38183594 C-31.36119997 241.43480661 -20.0478975 237.44114294 -9 232 C-8.25105469 231.63438965 -7.50210938 231.2687793 -6.73046875 230.89208984 C-4.3931002 229.73939503 -2.06948622 228.5632289 0.25 227.375 C0.96575195 227.01494873 1.68150391 226.65489746 2.41894531 226.28393555 C7.78211802 223.45494562 11.06766817 220.74460941 13.08624554 214.80229759 C14.02731298 210.88634574 14.25428145 207.52125586 14.26069641 203.49917603 C14.26452196 202.77675638 14.26834751 202.05433673 14.27228898 201.31002557 C14.28254863 198.9066407 14.27864033 196.50349789 14.2746582 194.10009766 C14.27900859 192.36984538 14.28419283 190.63959504 14.29014587 188.90934753 C14.3035123 184.22126895 14.30411714 179.5332711 14.30158257 174.84517717 C14.30051121 170.92630504 14.30540049 167.00744914 14.310188 163.08858049 C14.32127515 153.84029126 14.32172511 144.59204265 14.31567383 135.34375 C14.30963466 125.81490083 14.32194543 116.28619934 14.3432439 106.75737536 C14.36087888 98.56521975 14.36685824 90.37311106 14.36360615 82.18093717 C14.3617961 77.29301459 14.36440172 72.40519735 14.37832069 67.51729202 C14.3909252 62.91910732 14.38893016 58.32115227 14.37590981 53.72297096 C14.37355014 52.04000965 14.37625676 50.35703205 14.38453293 48.67408943 C14.88215581 34.6445599 14.88215581 34.6445599 8.7421875 22.58984375 C-35.18057732 -2.87534896 -105.40746601 4.70007837 -152 16 C-152.98532715 16.23686523 -153.9706543 16.47373047 -154.98583984 16.71777344 C-161.9187307 18.48303188 -168.72368152 20.2567444 -173.4375 25.9375 C-175.73300223 30.43668437 -176.12456543 34.42879186 -176.13130188 39.43373108 C-176.13531006 40.51183548 -176.13931824 41.58993988 -176.14344788 42.70071411 C-176.1426548 44.45966507 -176.1426548 44.45966507 -176.1418457 46.25415039 C-176.14532013 47.49691238 -176.14879456 48.73967438 -176.15237427 50.02009583 C-176.159723 52.71723507 -176.16539996 55.41432524 -176.16866493 58.11146736 C-176.17458939 62.37663419 -176.19114156 66.64171823 -176.21000671 70.90684509 C-176.21634331 72.36844344 -176.22266895 73.83004184 -176.22898388 75.29164028 C-176.23214969 76.02337707 -176.2353155 76.75511387 -176.23857725 77.5090245 C-176.28062887 87.43446878 -176.31365049 97.35987287 -176.32592773 107.28540039 C-176.33430255 113.98729679 -176.3567663 120.68898646 -176.3952834 127.39077944 C-176.41505401 130.93554574 -176.42744521 134.48000297 -176.42244911 138.02482796 C-176.41694853 141.97517034 -176.44217785 145.92498851 -176.4699707 149.87524414 C-176.46006859 151.63723145 -176.46006859 151.63723145 -176.44996643 153.43481445 C-176.46866791 155.04774132 -176.46866791 155.04774132 -176.48774719 156.69325256 C-176.49013555 157.62698731 -176.4925239 158.56072206 -176.49498463 159.52275181 C-177.15260006 162.74854797 -178.48049498 163.95172036 -181 166 C-183 166.53125 -183 166.53125 -185 166.5 C-185.99 166.51546875 -185.99 166.51546875 -187 166.53125 C-189.92093299 165.75537718 -191.09407216 164.3143543 -193 162 C-193.50336456 159.4117794 -193.50336456 159.4117794 -193.50793457 156.42318726 C-193.52485352 154.72012924 -193.52485352 154.72012924 -193.54211426 152.98266602 C-193.53401733 151.74105713 -193.52592041 150.49944824 -193.51757812 149.22021484 C-193.5245874 147.90920807 -193.53159668 146.59820129 -193.53881836 145.24746704 C-193.55705742 141.65195547 -193.54997932 138.05690296 -193.53730202 134.46138334 C-193.5271645 130.69174189 -193.53657095 126.92213936 -193.54284668 123.15249634 C-193.55012629 116.81562262 -193.54053289 110.47893526 -193.52148438 104.14208984 C-193.49977119 96.83482158 -193.50672494 89.52800073 -193.52879 82.22074354 C-193.54700263 75.93601883 -193.54947214 69.65142811 -193.53903532 63.36668551 C-193.53282518 59.61827761 -193.53189468 55.87007915 -193.54518127 52.12168503 C-193.55682287 48.59041304 -193.54856479 45.0597107 -193.52560425 41.5284996 C-193.51787528 39.62917595 -193.52960598 37.72980357 -193.54211426 35.83050537 C-193.44657646 26.07038069 -191.50525 17.77807028 -184.67358398 10.51049805 C-178.69224602 5.11202424 -171.83842107 2.64116799 -164.1875 0.5 C-163.15286621 0.20520752 -162.11823242 -0.08958496 -161.05224609 -0.39331055 C-143.12158944 -5.33087367 -124.55455247 -8.61917737 -106 -10 C-105.1941748 -10.06171387 -104.38834961 -10.12342773 -103.55810547 -10.18701172 C-68.71233119 -12.69070086 -33.65625378 -9.36565395 0 0 Z M-113 263 C-112.65803495 274.86618712 -111.34646871 284.35607641 -103 293.2421875 C-95.22695178 300.07396817 -87.6905172 301.37152353 -77.61328125 301.27734375 C-69.41272317 300.64789551 -62.43619437 297.18051438 -57 291 C-50.35581898 282.26896305 -48.86706638 273.78091684 -49 263 C-49.78375 263.144375 -50.5675 263.28875 -51.375 263.4375 C-71.18158126 266.51093502 -93.266831 266.63505745 -113 263 Z M-33 278 C-33 299.12 -33 320.24 -33 342 C-27.72 342 -22.44 342 -17 342 C-17 320.88 -17 299.76 -17 278 C-22.28 278 -27.56 278 -33 278 Z " fill="#000000" transform="translate(241,26)"/>
<path d="M0 0 C3.23613354 1.74253345 3.82395315 2.47185944 5 6 C5.10062523 7.43386619 5.15445821 8.87135925 5.17578125 10.30859375 C5.19962891 11.13810547 5.22347656 11.96761719 5.24804688 12.82226562 C5.29091326 14.56160148 5.32221975 16.30126177 5.34179688 18.04101562 C5.36951172 18.87181641 5.39722656 19.70261719 5.42578125 20.55859375 C5.44765503 21.69252563 5.44765503 21.69252563 5.4699707 22.84936523 C6.22411345 25.90935761 7.50145657 27.12263257 10 29 C12.53080873 29.37837097 12.53080873 29.37837097 15.24609375 28.99609375 C16.24833984 28.91552734 17.25058594 28.83496094 18.28320312 28.75195312 C20.38258979 28.54266442 22.4815582 28.32913597 24.58007812 28.11132812 C32.30522527 27.50105638 32.30522527 27.50105638 36.1875 30.2890625 C38.41550316 33.62146378 38.72270757 35.06525876 38 39 C35.86597802 43.09020879 33.19938226 45.82068169 29.875 49 C26.70306225 52.11264919 24.50976285 54.41213433 24 59 C26.16034592 63.76383972 29.50665916 66.21564051 33.625 69.1875 C39.88328377 73.76656754 39.88328377 73.76656754 41 76 C41.57784912 83.16532905 41.57784912 83.16532905 39.3125 86.4375 C34.21292346 89.88315983 27.75540082 89.26029534 21.79492188 89.34179688 C18.49983886 89.47483779 16.42347574 89.67610016 13.76977539 91.70581055 C11.57050627 94.55675991 11.6283222 95.74527368 11.96875 99.28125 C12.04480469 100.28800781 12.12085938 101.29476562 12.19921875 102.33203125 C12.29847656 103.37746094 12.39773438 104.42289062 12.5 105.5 C12.69664457 107.57115256 12.87452942 109.64419446 13.03125 111.71875 C13.11955078 112.63591797 13.20785156 113.55308594 13.29882812 114.49804688 C12.89517215 117.87767631 11.62633736 118.92363213 9 121 C5.75 122.125 5.75 122.125 2 122 C-2.60942287 119.58640456 -6.09591116 115.94201522 -9.625 112.1875 C-11.85633594 109.91568631 -13.03994529 108.9836958 -16.0625 107.75 C-20.24657977 108.10609189 -22.33742074 109.95516926 -25 113 C-26.87316156 115.55358349 -28.65673602 118.14032856 -30.38671875 120.79296875 C-32 123 -32 123 -35 125 C-42.06306306 125.67267267 -42.06306306 125.67267267 -45.4375 123.25 C-47.73191274 119.94604565 -48.10652662 116.84835518 -48.31640625 112.890625 C-48.37924805 111.75947266 -48.37924805 111.75947266 -48.44335938 110.60546875 C-48.48267578 109.82816406 -48.52199219 109.05085938 -48.5625 108.25 C-48.60568359 107.45722656 -48.64886719 106.66445313 -48.69335938 105.84765625 C-48.79902991 103.89862185 -48.89997966 101.94933252 -49 100 C-52.90478455 101.61928269 -55.56172556 104.19326046 -58.625 107.0625 C-64.83927306 112.86859695 -64.83927306 112.86859695 -69.3125 113.375 C-73 113 -73 113 -75.8125 110.8125 C-77.83510721 108.21200502 -79.01869159 106.12234496 -80 103 C-82.05352415 104.05594653 -84.06220177 105.15582196 -86.05786133 106.31860352 C-88.10741389 107.48989789 -90.19854444 108.59009608 -92.31640625 109.6328125 C-98.73201155 113.08578388 -98.73201155 113.08578388 -102.72622681 118.91262817 C-103.79470492 124.25937129 -103.52536061 129.64408157 -103.3125 135.0625 C-103.29548307 136.70763151 -103.28436409 138.35283516 -103.27929688 139.99804688 C-103.25423761 144.00276399 -103.14925704 147.99806555 -103 152 C-102.18015625 151.95359375 -101.3603125 151.9071875 -100.515625 151.859375 C-99.43796875 151.82328125 -98.3603125 151.7871875 -97.25 151.75 C-96.18265625 151.70359375 -95.1153125 151.6571875 -94.015625 151.609375 C-91 152 -91 152 -88.83990479 153.55426025 C-86.37845758 156.82620091 -86.46575752 159.59025274 -86.54589844 163.52246094 C-86.54531433 164.27406998 -86.54473022 165.02567902 -86.54412842 165.80006409 C-86.54691002 168.27864135 -86.57800383 170.75600845 -86.609375 173.234375 C-86.61683716 174.95501041 -86.62253021 176.67565432 -86.62652588 178.39630127 C-86.64178425 182.92075139 -86.68106758 187.44468628 -86.7253418 191.96893311 C-86.76629025 196.58729076 -86.78453597 201.20573181 -86.8046875 205.82421875 C-86.84756182 214.88303863 -86.91581546 223.94147644 -87 233 C-86.21375244 233.30470215 -85.42750488 233.6094043 -84.61743164 233.92333984 C-82.15238588 234.93731725 -80.4734421 235.93389264 -78.4375 237.625 C-77.60025391 238.29402344 -77.60025391 238.29402344 -76.74609375 238.9765625 C-71.32520296 245.25848963 -70.39908824 251.47688369 -70.46875 259.5625 C-70.46300964 261.04858765 -70.46300964 261.04858765 -70.45715332 262.56469727 C-70.45444438 264.64893618 -70.4617338 266.7332097 -70.47851562 268.81738281 C-70.49993933 271.99101212 -70.47867859 275.16237784 -70.453125 278.3359375 C-70.45576846 280.36979662 -70.4608938 282.40365434 -70.46875 284.4375 C-70.46065308 285.37730713 -70.45255615 286.31711426 -70.44421387 287.28540039 C-70.54534081 294.45992113 -72.19487656 299.79892474 -76.96484375 305.2421875 C-77.94130859 306.05042969 -77.94130859 306.05042969 -78.9375 306.875 C-79.58589844 307.42929687 -80.23429687 307.98359375 -80.90234375 308.5546875 C-86.48441972 312.40081061 -91.70188777 312.32063614 -98.26953125 312.3359375 C-99.26450119 312.3425943 -100.25947113 312.3492511 -101.28459167 312.35610962 C-103.38673051 312.36621898 -105.48890133 312.37092717 -107.59106445 312.37060547 C-110.79107172 312.37497077 -113.98969038 312.41128761 -117.18945312 312.44921875 C-119.23697448 312.45508899 -121.28450235 312.459057 -123.33203125 312.4609375 C-124.28124954 312.47530853 -125.23046783 312.48967957 -126.20845032 312.50448608 C-133.43685415 312.45529602 -138.75867855 310.84039144 -144.2421875 306.03515625 C-144.78101563 305.38417969 -145.31984375 304.73320312 -145.875 304.0625 C-146.42929687 303.41410156 -146.98359375 302.76570313 -147.5546875 302.09765625 C-150.65139306 297.60324845 -151.24471944 293.7967792 -151.1953125 288.38671875 C-151.18886719 287.13955078 -151.18242187 285.89238281 -151.17578125 284.60742188 C-151.15902344 283.31384766 -151.14226562 282.02027344 -151.125 280.6875 C-151.11597656 279.37458984 -151.10695313 278.06167969 -151.09765625 276.70898438 C-151.07411797 273.47247087 -151.0412352 270.23632851 -151 267 C-157.80134551 270.71636388 -162.64943596 274.16478655 -165 282 C-165.75761038 285.62530598 -166.07795987 289.12880492 -166.17578125 292.8203125 C-166.19962891 293.68527344 -166.22347656 294.55023438 -166.24804688 295.44140625 C-166.29119734 297.23803486 -166.32234837 299.03498977 -166.34179688 300.83203125 C-166.5513629 307.35294605 -166.5513629 307.35294605 -168.79296875 310.5859375 C-171.11268118 312.07219573 -172.27354437 312.54260087 -175 312.5 C-175.66 312.5103125 -176.32 312.520625 -177 312.53125 C-179.9476541 311.74827938 -181.09558547 310.35883279 -183 308 C-183.51757812 305.05834961 -183.51757812 305.05834961 -183.53125 301.65234375 C-183.53640625 300.40646484 -183.5415625 299.16058594 -183.546875 297.87695312 C-183.53140625 296.57693359 -183.5159375 295.27691406 -183.5 293.9375 C-183.51546875 292.66455078 -183.5309375 291.39160156 -183.546875 290.08007812 C-183.49596671 277.69027185 -180.64852839 268.05954757 -172 259 C-166.23506042 253.49660777 -158.31165442 248 -150 248 C-149.7215625 247.01 -149.7215625 247.01 -149.4375 246 C-146.91426211 240.73411224 -143.48887612 235.88369478 -137.87207031 233.8894043 C-136.92428711 233.59590088 -135.97650391 233.30239746 -135 233 C-135.00888245 232.04422058 -135.01776489 231.08844116 -135.0269165 230.10369873 C-135.10798444 221.09873141 -135.1679567 212.09383808 -135.20724869 203.08858871 C-135.22812826 198.45880684 -135.25645249 193.82931943 -135.30175781 189.19970703 C-135.34520263 184.73228306 -135.36913432 180.26514241 -135.37950897 175.7975235 C-135.38690283 174.09263905 -135.40134132 172.3877702 -135.42292023 170.68300629 C-135.45193694 168.29581636 -135.45595686 165.9097987 -135.45410156 163.52246094 C-135.46848267 162.81683517 -135.48286377 162.11120941 -135.49768066 161.38420105 C-135.46938566 158.021993 -135.20569073 156.27341958 -133.16009521 153.55426025 C-130.23920289 151.45258121 -128.30719216 151.59533947 -124.75 151.75 C-123.67234375 151.78609375 -122.5946875 151.8221875 -121.484375 151.859375 C-120.66453125 151.90578125 -119.8446875 151.9521875 -119 152 C-119.02618408 150.69329346 -119.05236816 149.38658691 -119.0793457 148.0402832 C-119.16994324 143.18564012 -119.22728445 138.33107155 -119.2746582 133.47583008 C-119.29978051 131.3757673 -119.33388458 129.27579177 -119.37719727 127.17602539 C-119.43794871 124.1548916 -119.46623263 121.13491504 -119.48828125 118.11328125 C-119.51408768 117.17664139 -119.5398941 116.24000153 -119.56648254 115.27497864 C-119.56837665 110.85870932 -119.53603294 108.71039933 -116.81445312 105.10351562 C-114.07644231 103.0571328 -111.35672995 101.07834606 -108.48046875 99.23046875 C-107.45888672 98.56982422 -106.43730469 97.90917969 -105.38476562 97.22851562 C-103.80211914 96.21821289 -103.80211914 96.21821289 -102.1875 95.1875 C-100.57584961 94.14819336 -100.57584961 94.14819336 -98.93164062 93.08789062 C-96.29128771 91.38632986 -93.64738149 89.69059625 -91 88 C-92.30155006 83.92035719 -92.30155006 83.92035719 -94 80 C-94.38869263 76.50176633 -94.33606747 74.57637378 -92.546875 71.5078125 C-89.06962657 68.0838961 -85.54205584 67.07362126 -80.9375 65.6875 C-80.12216797 65.42388672 -79.30683594 65.16027344 -78.46679688 64.88867188 C-75.15720229 63.84167605 -72.49445003 63 -69 63 C-71.43423848 60.48462024 -73.82341674 58.1418058 -76.55859375 55.9453125 C-83.57905801 50.18952762 -83.57905801 50.18952762 -84.78515625 46.78125 C-84.93197311 43.35977884 -84.2133022 41.28685468 -82.1875 38.5625 C-79.1018268 36.35844771 -76.60249959 35.88221804 -72.91015625 35.82421875 C-71.73356445 35.78844727 -71.73356445 35.78844727 -70.53320312 35.75195312 C-68.89023579 35.70909311 -67.24692528 35.67778307 -65.60351562 35.65820312 C-64.81783203 35.63048828 -64.03214844 35.60277344 -63.22265625 35.57421875 C-62.50859619 35.55963623 -61.79453613 35.54505371 -61.05883789 35.5300293 C-58.06687868 34.75977631 -56.84819936 33.440351 -55 31 C-54.62162903 28.46919127 -54.62162903 28.46919127 -55.00390625 25.75390625 C-55.08447266 24.75166016 -55.16503906 23.74941406 -55.24804688 22.71679688 C-55.45733558 20.61741021 -55.67086403 18.5184418 -55.88867188 16.41992188 C-56.49861598 8.69892206 -56.49861598 8.69892206 -53.734375 4.82421875 C-51 3 -51 3 -47.6875 2.25 C-42.39616645 3.32620343 -39.76665471 6.29266269 -36 10 C-34.76158023 11.13773524 -33.51226313 12.2637769 -32.25 13.375 C-31.45335937 14.09816406 -31.45335937 14.09816406 -30.640625 14.8359375 C-28.65024921 16.24815651 -27.44895549 16.8276661 -25 17 C-20.220189 14.98339697 -17.75273077 11.44951041 -14.8125 7.375 C-10.33035202 1.24917772 -7.93846495 -0.89602476 0 0 Z M-14.4375 31.4375 C-22.05933072 34.78040821 -29.14147548 34.29681514 -37 32 C-37.21914063 32.56847656 -37.43828125 33.13695312 -37.6640625 33.72265625 C-41.24133577 42.43317124 -45.54736693 47.77368346 -54 52 C-53.32087754 54.04727078 -53.32087754 54.04727078 -52 56 C-49.94085315 56.55260944 -49.94085315 56.55260944 -47.625 56.5 C-44.57770499 56.54076649 -43.36011488 56.7124558 -40.9453125 58.640625 C-36.459684 64.08102584 -31.65267691 71.33714237 -31.3125 78.5625 C-32.07132379 82.35661897 -32.93820747 83.7036556 -36 86 C-34.80023567 89.08510827 -33.49997444 92.05047042 -32 95 C-31.28714844 94.71125 -30.57429688 94.4225 -29.83984375 94.125 C-21.03171397 90.71081241 -15.02691433 90.46612931 -6 93 C-5.64808594 92.20335937 -5.29617188 91.40671875 -4.93359375 90.5859375 C-1.03330524 82.2150833 2.62107556 76.98822168 11 73 C10.525625 72.05125 10.05125 71.1025 9.5625 70.125 C6.27550648 62.36143435 6.67313577 54.96133712 9 47 C8.19175781 46.63648438 7.38351562 46.27296875 6.55078125 45.8984375 C-2.26072154 41.75309843 -6.08842379 38.34967955 -11 30 C-12.32807366 29.91533583 -12.32807366 29.91533583 -14.4375 31.4375 Z M-58.328125 76.21484375 C-59.12734375 76.48876953 -59.9265625 76.76269531 -60.75 77.04492188 C-61.575 77.33947266 -62.4 77.63402344 -63.25 77.9375 C-64.51070312 78.37352539 -64.51070312 78.37352539 -65.796875 78.81835938 C-67.86805731 79.53621233 -69.93533262 80.26366119 -72 81 C-72 84.1743622 -71.58464929 85.06292462 -70 87.6875 C-69.01 89.3271875 -69.01 89.3271875 -68 91 C-63.42521306 88.54460588 -59.92652182 85.35144038 -56.1875 81.8125 C-55.59001953 81.25369141 -54.99253906 80.69488281 -54.37695312 80.11914062 C-52.91425275 78.75005307 -51.45660838 77.37556721 -50 76 C-53.25995807 74.91442108 -55.10542427 75.08689849 -58.328125 76.21484375 Z M-119 168 C-119 189.12 -119 210.24 -119 232 C-113.72 232 -108.44 232 -103 232 C-103 210.88 -103 189.76 -103 168 C-108.28 168 -113.56 168 -119 168 Z M-133 251 C-136.33668135 256.49306047 -135.33435933 263.48890698 -135.31567383 269.71948242 C-135.31251442 271.92742315 -135.33599663 274.13402154 -135.36132812 276.34179688 C-135.3636016 277.75781082 -135.36430439 279.17382834 -135.36328125 280.58984375 C-135.36626221 281.86722412 -135.36924316 283.14460449 -135.37231445 284.46069336 C-134.96052115 288.37529499 -134.19442124 290.73635592 -132 294 C-126.50693953 297.33668135 -119.51109302 296.33435933 -113.28051758 296.31567383 C-111.07257685 296.31251442 -108.86597846 296.33599663 -106.65820312 296.36132812 C-105.24218918 296.3636016 -103.82617166 296.36430439 -102.41015625 296.36328125 C-101.13277588 296.36626221 -99.85539551 296.36924316 -98.53930664 296.37231445 C-94.62470501 295.96052115 -92.26364408 295.19442124 -89 293 C-85.66331865 287.50693953 -86.66564067 280.51109302 -86.68432617 274.28051758 C-86.68748558 272.07257685 -86.66400337 269.86597846 -86.63867188 267.65820312 C-86.6363984 266.24218918 -86.63569561 264.82617166 -86.63671875 263.41015625 C-86.63373779 262.13277588 -86.63075684 260.85539551 -86.62768555 259.53930664 C-87.03947885 255.62470501 -87.80557876 253.26364408 -90 250 C-95.49306047 246.66331865 -102.48890698 247.66564067 -108.71948242 247.68432617 C-110.92742315 247.68748558 -113.13402154 247.66400337 -115.34179688 247.63867188 C-116.75781082 247.6363984 -118.17382834 247.63569561 -119.58984375 247.63671875 C-120.86722412 247.63373779 -122.14460449 247.63075684 -123.46069336 247.62768555 C-127.37529499 248.03947885 -129.73635592 248.80557876 -133 251 Z " fill="#000000" transform="translate(455,184)"/>
<path d="M0 0 C1.27866943 -0.0112793 2.55733887 -0.02255859 3.87475586 -0.03417969 C5.28955305 -0.02640266 6.704348 -0.01821 8.11914062 -0.00964355 C9.61076542 -0.01506435 11.10238485 -0.02218677 12.59399414 -0.03088379 C16.6436169 -0.04912547 20.69283223 -0.04204633 24.74246216 -0.02936745 C28.97936099 -0.01924407 33.21622481 -0.02863128 37.453125 -0.03491211 C44.56842312 -0.04219046 51.68355521 -0.03259594 58.79882812 -0.0135498 C67.02641862 0.00821938 75.25361265 0.00116814 83.48119354 -0.02085543 C90.54373317 -0.03900413 97.6061534 -0.04157037 104.6687088 -0.03110075 C108.88752237 -0.02486287 113.10614956 -0.02403817 117.32495117 -0.0372467 C121.29119435 -0.04879699 125.25692611 -0.04079505 129.22311401 -0.01766968 C130.6791804 -0.01237811 132.1352898 -0.01390409 133.59133911 -0.02272034 C135.57780425 -0.03363977 137.56436338 -0.01752243 139.55078125 0 C141.21880798 0.00226215 141.21880798 0.00226215 142.92053223 0.00457001 C146.42748135 0.62291028 147.6037293 1.74310328 149.77539062 4.50793457 C150.30664062 6.50793457 150.30664062 6.50793457 150.27539062 8.50793457 C150.29085937 9.49793457 150.29085937 9.49793457 150.30664062 10.50793457 C149.52566627 13.44807332 148.12150764 14.60269288 145.77539062 16.50793457 C142.94061279 17.0269165 142.94061279 17.0269165 139.62988281 17.05383301 C138.38889832 17.07355164 137.14791382 17.09327026 135.86932373 17.11358643 C134.52030482 17.11524945 133.17128531 17.11648039 131.82226562 17.11730957 C130.43790758 17.13229418 129.05356739 17.14902194 127.66925049 17.16741943 C124.03278779 17.21107475 120.39656623 17.2310876 116.7598877 17.24615479 C113.0461604 17.26573275 109.33269327 17.30770186 105.61914062 17.34777832 C98.3379606 17.42306044 91.05688983 17.47336354 83.77539062 17.50793457 C89.69510663 23.49715276 95.62287625 29.47823262 101.56110764 35.4490881 C104.31819714 38.22183531 107.07242593 40.9973045 109.8203125 43.7791748 C112.47214258 46.46359428 115.13122839 49.14062456 117.79550934 51.81268501 C118.81082385 52.83354376 119.82349358 53.85703997 120.83345795 54.88319206 C122.248161 56.31966183 123.67318029 57.74594957 125.09863281 59.17175293 C125.90693542 59.98671738 126.71523804 60.80168182 127.54803467 61.64134216 C129.73194019 63.47152178 130.99065813 64.13452522 133.77539062 64.50793457 C133.75444336 63.68067871 133.73349609 62.85342285 133.71191406 62.00109863 C133.62877443 58.25350087 133.57673532 54.50609708 133.52539062 50.75793457 C133.491875 49.45598145 133.45835937 48.15402832 133.42382812 46.81262207 C133.4109375 45.56223145 133.39804688 44.31184082 133.38476562 43.02355957 C133.36381836 41.87145996 133.34287109 40.71936035 133.32128906 39.53234863 C133.87020212 35.87646964 134.89180862 34.73999595 137.77539062 32.50793457 C139.77539062 31.97668457 139.77539062 31.97668457 141.77539062 32.00793457 C142.43539062 31.99762207 143.09539062 31.98730957 143.77539062 31.97668457 C146.82907818 32.78782033 147.86650832 33.97773745 149.77539062 36.50793457 C150.37653616 39.50529678 150.33596826 42.45902734 150.30664062 45.50793457 C150.31046753 46.38062988 150.31429443 47.2533252 150.3182373 48.15246582 C150.32095553 49.99492549 150.31360057 51.83742381 150.296875 53.67980957 C150.2754631 56.49839391 150.29667864 59.31442942 150.32226562 62.13293457 C150.31962233 63.92460686 150.31449732 65.71627756 150.30664062 67.50793457 C150.31473755 68.34969238 150.32283447 69.1914502 150.33117676 70.05871582 C150.31226379 71.2401416 150.31226379 71.2401416 150.29296875 72.44543457 C150.28978638 73.13508301 150.286604 73.82473145 150.2833252 74.53527832 C149.5275021 77.47065471 148.11398154 78.61462015 145.77539062 80.50793457 C142.92053223 81.01129913 142.92053223 81.01129913 139.55078125 81.01586914 C138.27211182 81.02714844 136.99344238 81.03842773 135.67602539 81.05004883 C134.2612282 81.0422718 132.84643325 81.03407914 131.43164062 81.0255127 C129.94001583 81.03093349 128.4483964 81.03805591 126.95678711 81.04675293 C122.90716435 81.06499461 118.85794902 81.05791547 114.80831909 81.04523659 C110.57142026 81.03511321 106.33455644 81.04450042 102.09765625 81.05078125 C94.98235813 81.0580596 87.86722604 81.04846509 80.75195312 81.02941895 C72.52436263 81.00764976 64.2971686 81.014701 56.06958771 81.03672457 C49.00704808 81.05487327 41.94462785 81.05743951 34.88207245 81.04696989 C30.66325888 81.04073201 26.44463169 81.03990731 22.22583008 81.05311584 C18.2595869 81.06466613 14.29385514 81.05666419 10.32766724 81.03353882 C8.87160085 81.02824725 7.41549145 81.02977323 5.95944214 81.03858948 C3.972977 81.04950891 1.98641787 81.03339157 0 81.01586914 C-1.66802673 81.01360699 -1.66802673 81.01360699 -3.36975098 81.01129913 C-6.89919286 80.38899297 -8.08186048 79.33518721 -10.22460938 76.50793457 C-10.73254395 73.32043457 -10.73254395 73.32043457 -10.7421875 69.50793457 C-10.74919678 68.81151855 -10.75620605 68.11510254 -10.76342773 67.39758301 C-10.78100133 65.10062525 -10.76938857 62.80490436 -10.75585938 60.50793457 C-10.75855451 58.90897384 -10.7624371 57.3100147 -10.76745605 55.71105957 C-10.77335019 52.36194231 -10.7647913 49.01325214 -10.74609375 45.66418457 C-10.72330373 41.37314866 -10.73642733 37.08311346 -10.76038361 32.79211426 C-10.77484417 29.49093091 -10.77023453 26.18998446 -10.75987244 22.88879395 C-10.75720584 21.30676149 -10.7604726 19.72470746 -10.76979065 18.1427002 C-10.77996116 15.93053294 -10.76445128 13.71998157 -10.7421875 11.50793457 C-10.73900513 10.24980957 -10.73582275 8.99168457 -10.73254395 7.69543457 C-9.71223807 1.2925922 -6.02803287 0.00817513 0 0 Z M26.77539062 16.50793457 C30.97680458 21.53870894 35.37398405 26.19121592 40.0703125 30.76379395 C43.57265519 34.20800646 44.70673909 35.42667297 45.02539062 40.44543457 C44.97159458 42.91556953 44.88891094 44.28089394 43.77539062 46.50793457 C40.39430332 48.19847822 37.37645772 48.4006498 33.77539062 47.50793457 C31.95361328 46.26501465 31.95361328 46.26501465 30.12695312 44.58996582 C29.08873413 43.63912109 29.08873413 43.63912109 28.02954102 42.66906738 C23.89514009 38.70527263 19.85655108 34.65115928 15.83789062 30.57043457 C14.14354736 28.85074585 12.44705786 27.1331681 10.74804688 25.41809082 C10.00820557 24.66664795 9.26836426 23.91520508 8.50610352 23.14099121 C7.05076021 21.39355306 7.05076021 21.39355306 5.77539062 21.50793457 C5.77539062 35.69793457 5.77539062 49.88793457 5.77539062 64.50793457 C38.44539063 64.50793457 71.11539063 64.50793457 104.77539062 64.50793457 C80.86057186 32.46560094 80.86057186 32.46560094 48.17382812 13.81262207 C40.92433355 13.30737382 33.72269074 14.44870258 26.77539062 16.50793457 Z " fill="#000000" transform="translate(90.224609375,95.4920654296875)"/>
<path d="M0 0 C1.00853027 -0.00700928 2.01706055 -0.01401855 3.05615234 -0.02124023 C6.39188114 -0.03885406 9.72676248 -0.02718497 13.0625 -0.01367188 C15.37890791 -0.0163658 17.69531472 -0.02024739 20.01171875 -0.02526855 C24.86729698 -0.03116822 29.72258096 -0.02258526 34.578125 -0.00390625 C40.80614646 0.01888316 47.03347845 0.00576265 53.26147461 -0.01819611 C58.04497485 -0.0326412 62.82831127 -0.02805393 67.61181641 -0.01768494 C69.90836671 -0.0150141 72.20493183 -0.01829988 74.50146484 -0.02760315 C77.7097114 -0.03774714 80.91683706 -0.02229671 84.125 0 C85.55271729 -0.01214539 85.55271729 -0.01214539 87.00927734 -0.02453613 C93.35603861 0.05729722 93.35603861 0.05729722 96.65124512 2.20422363 C98.37656069 5.03239208 98.56927631 6.74319837 98.58007812 10.04882812 C98.59268677 11.15677734 98.60529541 12.26472656 98.61828613 13.40625 C98.61018921 14.59798828 98.60209229 15.78972656 98.59375 17.01757812 C98.59949036 18.85932617 98.59949036 18.85932617 98.60534668 20.73828125 C98.60806842 23.33399272 98.60068911 25.92973149 98.58398438 28.52539062 C98.56258075 32.50257412 98.58377963 36.47795094 98.609375 40.45507812 C98.60673177 42.97591545 98.60160691 45.49675166 98.59375 48.01757812 C98.60184692 49.20931641 98.60994385 50.40105469 98.61828613 51.62890625 C98.60567749 52.73685547 98.59306885 53.84480469 98.58007812 54.98632812 C98.57689575 55.96021484 98.57371338 56.93410156 98.57043457 57.9375 C97.92046634 61.23904494 96.64712403 62.43335467 94.0625 64.51757812 C92.0625 65.04882812 92.0625 65.04882812 90.0625 65.01757812 C89.0725 65.03304687 89.0725 65.03304687 88.0625 65.04882812 C84.96076882 64.22493078 83.97350912 63.12617926 82.0625 60.51757812 C81.49660194 57.17868082 81.59751299 53.87986188 81.671875 50.50195312 C81.67590332 49.64102051 81.67993164 48.78008789 81.68408203 47.89306641 C81.70497283 44.68435278 81.76081856 41.47594353 81.8125 38.26757812 C81.895 31.09007812 81.9775 23.91257812 82.0625 16.51757812 C55.6625 16.51757812 29.2625 16.51757812 2.0625 16.51757812 C2.22068611 30.81817458 2.22068611 30.81817458 2.42285156 45.11816406 C2.43453548 46.91275075 2.44472801 48.70734804 2.453125 50.50195312 C2.47358887 51.43152832 2.49405273 52.36110352 2.51513672 53.31884766 C2.51869709 59.89485151 2.51869709 59.89485151 0.16308594 63.11035156 C-2.10099899 64.62710953 -3.23701563 65.05977319 -5.9375 65.01757812 C-6.5975 65.02789062 -7.2575 65.03820312 -7.9375 65.04882812 C-10.8567339 64.27340662 -12.03112068 62.82890292 -13.9375 60.51757812 C-14.44543457 57.9375 -14.44543457 57.9375 -14.45507812 54.98632812 C-14.46768677 53.87837891 -14.48029541 52.77042969 -14.49328613 51.62890625 C-14.48518921 50.43716797 -14.47709229 49.24542969 -14.46875 48.01757812 C-14.4725769 46.78974609 -14.47640381 45.56191406 -14.48034668 44.296875 C-14.48306842 41.70116353 -14.47568911 39.10542476 -14.45898438 36.50976562 C-14.43758075 32.53258213 -14.45877963 28.55720531 -14.484375 24.58007812 C-14.48173177 22.0592408 -14.47660691 19.53840459 -14.46875 17.01757812 C-14.47684692 15.82583984 -14.48494385 14.63410156 -14.49328613 13.40625 C-14.48067749 12.29830078 -14.46806885 11.19035156 -14.45507812 10.04882812 C-14.45189575 9.07494141 -14.44871338 8.10105469 -14.44543457 7.09765625 C-13.9375 4.51757812 -13.9375 4.51757812 -12.52624512 2.20422363 C-8.51210617 -0.41110894 -4.69399733 -0.03993116 0 0 Z " fill="#000000" transform="translate(117.9375,431.482421875)"/>
<path d="M0 0 C4.03563273 1.07196494 5.89003683 4.34455275 7.92285156 7.79589844 C8.58781774 9.07280592 9.24328402 10.3546925 9.890625 11.640625 C10.24010193 12.32626526 10.58957886 13.01190552 10.949646 13.71832275 C11.68319308 15.16523811 12.4124664 16.61432721 13.13769531 18.06542969 C14.2438523 20.26900318 15.37495028 22.45849967 16.5078125 24.6484375 C17.22031865 26.06171025 17.93130665 27.47574961 18.640625 28.890625 C19.14677338 29.85980865 19.14677338 29.85980865 19.66314697 30.84857178 C22.0029858 35.62191658 22.43880442 39.21621387 22 44.53125 C20.5 47.03125 20.5 47.03125 18 48.53125 C15.22011721 49.07811219 12.74791413 49.26116469 10 48.53125 C6.30383939 45.41051657 4.25187222 41.67791147 2.109375 37.421875 C1.75989807 36.73623474 1.41042114 36.05059448 1.050354 35.34417725 C0.31680692 33.89726189 -0.4124664 32.44817279 -1.13769531 30.99707031 C-2.2438523 28.79349682 -3.37495028 26.60400033 -4.5078125 24.4140625 C-5.22031865 23.00078975 -5.93130665 21.58675039 -6.640625 20.171875 C-7.14677338 19.20269135 -7.14677338 19.20269135 -7.66314697 18.21392822 C-10.0029858 13.44058342 -10.43880442 9.84628613 -10 4.53125 C-7.44699652 0.2762442 -4.60968987 0.0720264 0 0 Z " fill="#000000" transform="translate(386,127.46875)"/>
<path d="M0 0 C2.57552221 0.69278193 3.80084494 1.70112153 5.76293945 3.49951172 C6.80200439 4.4499939 6.80200439 4.4499939 7.86206055 5.41967773 C11.98586657 9.34938555 16.03738054 13.34517789 20.0559082 17.38232422 C20.91764648 18.24019531 21.77938477 19.09806641 22.66723633 19.98193359 C23.48514648 20.80113281 24.30305664 21.62033203 25.14575195 22.46435547 C25.88559326 23.20532471 26.62543457 23.94629395 27.38769531 24.7097168 C30.29665457 27.83616067 30.47307438 30.33651555 30.38793945 34.59326172 C30.1184082 36.56982422 30.1184082 36.56982422 28.6184082 39.06982422 C25.79477203 40.76400593 23.53970528 41.32198636 20.23681641 41.13964844 C17.6612942 40.4468665 16.43597147 39.43852691 14.47387695 37.64013672 C13.78116699 37.00648193 13.08845703 36.37282715 12.37475586 35.7199707 C8.25094984 31.79026289 4.19943587 27.79447054 0.1809082 23.75732422 C-0.68083008 22.89945313 -1.54256836 22.04158203 -2.43041992 21.15771484 C-3.65728516 19.92891602 -3.65728516 19.92891602 -4.90893555 18.67529297 C-5.64877686 17.93432373 -6.38861816 17.19335449 -7.15087891 16.42993164 C-10.05983817 13.30348777 -10.23625797 10.80313289 -10.15112305 6.54638672 C-9.8815918 4.56982422 -9.8815918 4.56982422 -8.3815918 2.06982422 C-5.55795562 0.37564251 -3.30288887 -0.18233793 0 0 Z " fill="#000000" transform="translate(361.881591796875,167.43017578125)"/>
<path d="M0 0 C0.66 -0.0103125 1.32 -0.020625 2 -0.03125 C4.91796104 0.7438334 6.0931088 2.19104167 8 4.5 C8.51757812 7.09375 8.51757812 7.09375 8.53125 10 C8.53640625 11.051875 8.5415625 12.10375 8.546875 13.1875 C8.53140625 14.280625 8.5159375 15.37375 8.5 16.5 C8.51546875 17.593125 8.5309375 18.68625 8.546875 19.8125 C8.54171875 20.864375 8.5365625 21.91625 8.53125 23 C8.52673828 23.9590625 8.52222656 24.918125 8.51757812 25.90625 C7.857725 29.21298564 6.58886445 30.40908706 4 32.5 C2 33.03125 2 33.03125 0 33 C-0.99 33.01546875 -0.99 33.01546875 -2 33.03125 C-4.91796104 32.2561666 -6.0931088 30.80895833 -8 28.5 C-8.51757812 25.90625 -8.51757812 25.90625 -8.53125 23 C-8.53640625 21.948125 -8.5415625 20.89625 -8.546875 19.8125 C-8.53140625 18.719375 -8.5159375 17.62625 -8.5 16.5 C-8.51546875 15.406875 -8.5309375 14.31375 -8.546875 13.1875 C-8.53914063 11.6096875 -8.53914063 11.6096875 -8.53125 10 C-8.52673828 9.0409375 -8.52222656 8.081875 -8.51757812 7.09375 C-7.60329874 2.51200272 -4.67433964 -0.07303656 0 0 Z " fill="#000000" transform="translate(440,311.5)"/>
<path d="M0 0 C0.66 -0.0103125 1.32 -0.020625 2 -0.03125 C4.91796104 0.7438334 6.0931088 2.19104167 8 4.5 C8.51757812 7.09375 8.51757812 7.09375 8.53125 10 C8.53640625 11.051875 8.5415625 12.10375 8.546875 13.1875 C8.53140625 14.280625 8.5159375 15.37375 8.5 16.5 C8.51546875 17.593125 8.5309375 18.68625 8.546875 19.8125 C8.54171875 20.864375 8.5365625 21.91625 8.53125 23 C8.52673828 23.9590625 8.52222656 24.918125 8.51757812 25.90625 C7.857725 29.21298564 6.58886445 30.40908706 4 32.5 C2 33.03125 2 33.03125 0 33 C-0.99 33.01546875 -0.99 33.01546875 -2 33.03125 C-4.91796104 32.2561666 -6.0931088 30.80895833 -8 28.5 C-8.51757812 25.90625 -8.51757812 25.90625 -8.53125 23 C-8.53640625 21.948125 -8.5415625 20.89625 -8.546875 19.8125 C-8.53140625 18.719375 -8.5159375 17.62625 -8.5 16.5 C-8.51546875 15.406875 -8.5309375 14.31375 -8.546875 13.1875 C-8.53914063 11.6096875 -8.53914063 11.6096875 -8.53125 10 C-8.52673828 9.0409375 -8.52222656 8.081875 -8.51757812 7.09375 C-7.60329874 2.51200272 -4.67433964 -0.07303656 0 0 Z " fill="#000000" transform="translate(432,143.5)"/>
<path d="M0 0 C2.5 1.5 2.5 1.5 4 4 C4.791013 8.02098277 4.62153384 10.96411027 2.5 14.5 C-1.03588973 16.62153384 -3.97901723 16.791013 -8 16 C-10.5 14.5 -10.5 14.5 -12 12 C-12.791013 7.97901723 -12.62153384 5.03588973 -10.5 1.5 C-6.96411027 -0.62153384 -4.02098277 -0.791013 0 0 Z " fill="#000000" transform="translate(228,400)"/>
<path d="M0 0 C2.5 1.5 2.5 1.5 4 4 C4.791013 8.02098277 4.62153384 10.96411027 2.5 14.5 C-1.03588973 16.62153384 -3.97901723 16.791013 -8 16 C-10.5 14.5 -10.5 14.5 -12 12 C-12.791013 7.97901723 -12.62153384 5.03588973 -10.5 1.5 C-6.96411027 -0.62153384 -4.02098277 -0.791013 0 0 Z " fill="#000000" transform="translate(108,400)"/>
<path d="M0 0 C2.5 1.5 2.5 1.5 4 4 C4.791013 8.02098277 4.62153384 10.96411027 2.5 14.5 C-1.03588973 16.62153384 -3.97901723 16.791013 -8 16 C-10.5 14.5 -10.5 14.5 -12 12 C-12.791013 7.97901723 -12.62153384 5.03588973 -10.5 1.5 C-6.96411027 -0.62153384 -4.02098277 -0.791013 0 0 Z " fill="#000000" transform="translate(444,360)"/>
<path d="M0 0 C2.5 1.5 2.5 1.5 4 4 C4.791013 8.02098277 4.62153384 10.96411027 2.5 14.5 C-1.03588973 16.62153384 -3.97901723 16.791013 -8 16 C-10.5 14.5 -10.5 14.5 -12 12 C-12.791013 7.97901723 -12.62153384 5.03588973 -10.5 1.5 C-6.96411027 -0.62153384 -4.02098277 -0.791013 0 0 Z " fill="#000000" transform="translate(476,328)"/>
<path d="M0 0 C2.5 1.5 2.5 1.5 4 4 C4.791013 8.02098277 4.62153384 10.96411027 2.5 14.5 C-1.03588973 16.62153384 -3.97901723 16.791013 -8 16 C-10.5 14.5 -10.5 14.5 -12 12 C-12.791013 7.97901723 -12.62153384 5.03588973 -10.5 1.5 C-6.96411027 -0.62153384 -4.02098277 -0.791013 0 0 Z " fill="#000000" transform="translate(388,312)"/>
<path d="M0 0 C2.5 1.5 2.5 1.5 4 4 C4.791013 8.02098277 4.62153384 10.96411027 2.5 14.5 C-1.03588973 16.62153384 -3.97901723 16.791013 -8 16 C-10.5 14.5 -10.5 14.5 -12 12 C-12.791013 7.97901723 -12.62153384 5.03588973 -10.5 1.5 C-6.96411027 -0.62153384 -4.02098277 -0.791013 0 0 Z " fill="#000000" transform="translate(492,288)"/>
<path d="M0 0 C2.5 1.5 2.5 1.5 4 4 C4.791013 8.02098277 4.62153384 10.96411027 2.5 14.5 C-1.03588973 16.62153384 -3.97901723 16.791013 -8 16 C-10.5 14.5 -10.5 14.5 -12 12 C-12.791013 7.97901723 -12.62153384 5.03588973 -10.5 1.5 C-6.96411027 -0.62153384 -4.02098277 -0.791013 0 0 Z " fill="#000000" transform="translate(348,216)"/>
<path d="M0 0 C2.5 1.5 2.5 1.5 4 4 C4.791013 8.02098277 4.62153384 10.96411027 2.5 14.5 C-1.03588973 16.62153384 -3.97901723 16.791013 -8 16 C-10.5 14.5 -10.5 14.5 -12 12 C-12.791013 7.97901723 -12.62153384 5.03588973 -10.5 1.5 C-6.96411027 -0.62153384 -4.02098277 -0.791013 0 0 Z " fill="#000000" transform="translate(228,192)"/>
<path d="M0 0 C2.5 1.5 2.5 1.5 4 4 C4.791013 8.02098277 4.62153384 10.96411027 2.5 14.5 C-1.03588973 16.62153384 -3.97901723 16.791013 -8 16 C-10.5 14.5 -10.5 14.5 -12 12 C-12.791013 7.97901723 -12.62153384 5.03588973 -10.5 1.5 C-6.96411027 -0.62153384 -4.02098277 -0.791013 0 0 Z " fill="#000000" transform="translate(196,192)"/>
<path d="M0 0 C2.5 1.5 2.5 1.5 4 4 C4.791013 8.02098277 4.62153384 10.96411027 2.5 14.5 C-1.03588973 16.62153384 -3.97901723 16.791013 -8 16 C-10.5 14.5 -10.5 14.5 -12 12 C-12.791013 7.97901723 -12.62153384 5.03588973 -10.5 1.5 C-6.96411027 -0.62153384 -4.02098277 -0.791013 0 0 Z " fill="#000000" transform="translate(164,192)"/>
<path d="M0 0 C2.5 1.5 2.5 1.5 4 4 C4.791013 8.02098277 4.62153384 10.96411027 2.5 14.5 C-1.03588973 16.62153384 -3.97901723 16.791013 -8 16 C-10.5 14.5 -10.5 14.5 -12 12 C-12.791013 7.97901723 -12.62153384 5.03588973 -10.5 1.5 C-6.96411027 -0.62153384 -4.02098277 -0.791013 0 0 Z " fill="#000000" transform="translate(132,192)"/>
<path d="M0 0 C2.5 1.5 2.5 1.5 4 4 C4.791013 8.02098277 4.62153384 10.96411027 2.5 14.5 C-1.03588973 16.62153384 -3.97901723 16.791013 -8 16 C-10.5 14.5 -10.5 14.5 -12 12 C-12.791013 7.97901723 -12.62153384 5.03588973 -10.5 1.5 C-6.96411027 -0.62153384 -4.02098277 -0.791013 0 0 Z " fill="#000000" transform="translate(100,192)"/>
<path d="M0 0 C2.5 1.5 2.5 1.5 4 4 C4.791013 8.02098277 4.62153384 10.96411027 2.5 14.5 C-1.03588973 16.62153384 -3.97901723 16.791013 -8 16 C-10.5 14.5 -10.5 14.5 -12 12 C-12.791013 7.97901723 -12.62153384 5.03588973 -10.5 1.5 C-6.96411027 -0.62153384 -4.02098277 -0.791013 0 0 Z " fill="#000000" transform="translate(484,176)"/>
<path d="M0 0 C2.5 1.5 2.5 1.5 4 4 C4.791013 8.02098277 4.62153384 10.96411027 2.5 14.5 C-1.03588973 16.62153384 -3.97901723 16.791013 -8 16 C-10.5 14.5 -10.5 14.5 -12 12 C-12.791013 7.97901723 -12.62153384 5.03588973 -10.5 1.5 C-6.96411027 -0.62153384 -4.02098277 -0.791013 0 0 Z " fill="#000000" transform="translate(340,144)"/>
<path d="M0 0 C2.5 1.5 2.5 1.5 4 4 C4.791013 8.02098277 4.62153384 10.96411027 2.5 14.5 C-1.03588973 16.62153384 -3.97901723 16.791013 -8 16 C-10.5 14.5 -10.5 14.5 -12 12 C-12.791013 7.97901723 -12.62153384 5.03588973 -10.5 1.5 C-6.96411027 -0.62153384 -4.02098277 -0.791013 0 0 Z " fill="#000000" transform="translate(476,136)"/>
<path d="M0 0 C2.5 1.5 2.5 1.5 4 4 C4.791013 8.02098277 4.62153384 10.96411027 2.5 14.5 C-1.03588973 16.62153384 -3.97901723 16.791013 -8 16 C-10.5 14.5 -10.5 14.5 -12 12 C-12.791013 7.97901723 -12.62153384 5.03588973 -10.5 1.5 C-6.96411027 -0.62153384 -4.02098277 -0.791013 0 0 Z " fill="#000000" transform="translate(436,112)"/>
<path d="M0 0 C2.5 1.5 2.5 1.5 4 4 C4.791013 8.02098277 4.62153384 10.96411027 2.5 14.5 C-1.03588973 16.62153384 -3.97901723 16.791013 -8 16 C-10.5 14.5 -10.5 14.5 -12 12 C-12.791013 7.97901723 -12.62153384 5.03588973 -10.5 1.5 C-6.96411027 -0.62153384 -4.02098277 -0.791013 0 0 Z " fill="#000000" transform="translate(372,96)"/>
<path d="M0 0 C2.5 1.5 2.5 1.5 4 4 C4.791013 8.02098277 4.62153384 10.96411027 2.5 14.5 C-1.03588973 16.62153384 -3.97901723 16.791013 -8 16 C-10.5 14.5 -10.5 14.5 -12 12 C-12.791013 7.97901723 -12.62153384 5.03588973 -10.5 1.5 C-6.96411027 -0.62153384 -4.02098277 -0.791013 0 0 Z " fill="#000000" transform="translate(228,64)"/>
<path d="M0 0 C2.5 1.5 2.5 1.5 4 4 C4.791013 8.02098277 4.62153384 10.96411027 2.5 14.5 C-1.03588973 16.62153384 -3.97901723 16.791013 -8 16 C-10.5 14.5 -10.5 14.5 -12 12 C-12.791013 7.97901723 -12.62153384 5.03588973 -10.5 1.5 C-6.96411027 -0.62153384 -4.02098277 -0.791013 0 0 Z " fill="#000000" transform="translate(196,64)"/>
<path d="M0 0 C2.5 1.5 2.5 1.5 4 4 C4.791013 8.02098277 4.62153384 10.96411027 2.5 14.5 C-1.03588973 16.62153384 -3.97901723 16.791013 -8 16 C-10.5 14.5 -10.5 14.5 -12 12 C-12.791013 7.97901723 -12.62153384 5.03588973 -10.5 1.5 C-6.96411027 -0.62153384 -4.02098277 -0.791013 0 0 Z " fill="#000000" transform="translate(164,64)"/>
<path d="M0 0 C2.5 1.5 2.5 1.5 4 4 C4.791013 8.02098277 4.62153384 10.96411027 2.5 14.5 C-1.03588973 16.62153384 -3.97901723 16.791013 -8 16 C-10.5 14.5 -10.5 14.5 -12 12 C-12.791013 7.97901723 -12.62153384 5.03588973 -10.5 1.5 C-6.96411027 -0.62153384 -4.02098277 -0.791013 0 0 Z " fill="#000000" transform="translate(132,64)"/>
<path d="M0 0 C2.5 1.5 2.5 1.5 4 4 C4.791013 8.02098277 4.62153384 10.96411027 2.5 14.5 C-1.03588973 16.62153384 -3.97901723 16.791013 -8 16 C-10.5 14.5 -10.5 14.5 -12 12 C-12.791013 7.97901723 -12.62153384 5.03588973 -10.5 1.5 C-6.96411027 -0.62153384 -4.02098277 -0.791013 0 0 Z " fill="#000000" transform="translate(100,64)"/>
</svg>
