<?xml version="1.0" encoding="UTF-8"?>
<svg version="1.1" xmlns="http://www.w3.org/2000/svg" width="512" height="512">
<path d="M0 0 C1.44195296 -0.00457085 2.88390374 -0.00987908 4.32585144 -0.0158844 C7.33915081 -0.02478428 10.35218473 -0.02242972 13.36547852 -0.01245117 C17.19834326 -0.00098616 21.03028324 -0.02114992 24.86302662 -0.05036831 C27.83934711 -0.06885333 30.81545121 -0.06841329 33.7918148 -0.06273079 C35.20339947 -0.06257896 36.61500012 -0.06850702 38.02652931 -0.08102226 C51.20748656 -0.18141798 61.45910869 2.16521128 71.16796875 11.43359375 C81.50498087 22.26186981 82.83259545 33.72995315 82.68945312 48.05932617 C82.66791846 50.62709008 82.6893848 53.19208409 82.71484375 55.75976562 C82.71220165 57.41537067 82.70707911 59.07097401 82.69921875 60.7265625 C82.70731567 61.48196823 82.7154126 62.23737396 82.72375488 63.01567078 C82.60176269 70.02715248 80.28925609 75.41471999 75.45068359 80.50976562 C74.43617532 81.48386241 73.41184618 82.44781418 72.37890625 83.40234375 C71.26149644 84.47893598 70.14431572 85.55576602 69.02734375 86.6328125 C67.28319698 88.28994857 65.53431415 89.94171852 63.78027344 91.58837891 C62.07084986 93.20070875 60.38072284 94.83149594 58.69140625 96.46484375 C57.90544571 97.1855304 57.90544571 97.1855304 57.10360718 97.92077637 C52.29455965 102.5979807 51.35844203 107.71744596 50.90727234 114.15112305 C50.90266495 115.42383057 50.89805756 116.69653809 50.89331055 118.0078125 C50.88819962 118.71789459 50.88308868 119.42797668 50.87782288 120.15957642 C50.8640522 122.48017065 50.86487372 124.80046381 50.8671875 127.12109375 C50.8632944 128.7495942 50.85895847 130.37809364 50.85420227 132.0065918 C50.84676753 135.40905052 50.84701184 138.81140541 50.85229492 142.21386719 C50.85809364 146.55802163 50.84113565 150.90175027 50.81795025 155.24583435 C50.80316909 158.60545301 50.80234702 161.96497006 50.80545998 165.32461548 C50.80494922 166.92567795 50.79975797 168.52674647 50.78964806 170.1277771 C50.72976542 180.93352669 51.11429754 189.56612137 58.16796875 198.43359375 C68.11920131 207.36418707 88.25678413 207.32337812 101.0324707 209.3059082 C131.26994838 214.01999748 131.26994838 214.01999748 141.16796875 225.43359375 C146.87000543 234.17570834 146.58404007 243.16497004 146.73779297 253.20043945 C146.7743383 255.05212342 146.82879458 256.90354747 146.90185547 258.75415039 C147.006212 261.44121089 147.04987776 264.12371507 147.08203125 266.8125 C147.14700302 268.03339073 147.14700302 268.03339073 147.21328735 269.27894592 C147.19615208 274.59450554 145.83670525 277.25033688 142.20099449 281.12525177 C141.38354657 282.000478 140.56609865 282.87570423 139.72387958 283.77745247 C135.72304266 287.93518285 131.68742282 292.05193017 127.60195923 296.12658691 C126.68167037 297.04843576 125.76138152 297.97028461 124.81320512 298.92006826 C122.28760634 301.44980013 119.75894917 303.97645447 117.2297256 306.50256157 C114.49180133 309.23820739 111.7567758 311.97674882 109.0213623 314.71490479 C103.67559916 320.06509734 98.32715723 325.41260407 92.97772582 330.75912863 C88.63163772 335.1029532 84.28653291 339.44775909 79.9421196 343.79325867 C79.32252426 344.41300724 78.70292892 345.03275581 78.06455796 345.67128465 C76.80573873 346.93042361 75.54692174 348.18956482 74.28810696 349.44870824 C62.50729296 361.2323683 50.72342515 373.01297066 38.93849795 384.79251689 C28.82428281 394.90225702 18.7127032 405.01462694 8.60302734 415.12890625 C-3.14684523 426.88412666 -14.89833333 438.63772814 -26.65241683 450.38873816 C-27.90463888 451.64064166 -29.15685884 452.89254725 -30.40907669 454.14445496 C-31.02516037 454.76038435 -31.64124404 455.37631375 -32.27599692 456.01090768 C-36.62026875 460.35431556 -40.96337808 464.69888379 -45.30604172 469.04389954 C-50.5918087 474.33246667 -55.87934471 479.61925736 -61.16917913 484.9037562 C-63.8685284 487.60047259 -66.56706305 490.29799122 -69.26344681 492.99767303 C-72.18223969 495.91998216 -75.10487022 498.83842217 -78.02792358 501.75646973 C-78.8846184 502.61539526 -79.74131322 503.4743208 -80.62396848 504.35927439 C-81.40467195 505.1373701 -82.18537541 505.91546582 -82.98973656 506.7171402 C-83.66417757 507.39141886 -84.33861859 508.06569753 -85.03349721 508.76040888 C-88.06458507 511.5802445 -90.00839496 512.68338474 -94.08152008 512.68806934 C-94.95300863 512.69390154 -95.82449718 512.69973373 -96.72239447 512.70574266 C-97.68045571 512.70196333 -98.63851695 512.69818401 -99.62561035 512.69429016 C-100.64286147 512.69811571 -101.66011258 512.70194126 -102.70818949 512.70588273 C-106.13298547 512.71624062 -109.55761467 512.71221528 -112.98242188 512.70825195 C-115.43116919 512.71259685 -117.87991514 512.71777924 -120.32865906 512.72373962 C-126.29901992 512.73576832 -132.26931468 512.73827826 -138.2396816 512.73593936 C-143.09084854 512.73415809 -147.94200181 512.73590172 -152.79316711 512.7401638 C-153.48295942 512.74075899 -154.17275173 512.74135418 -154.88344684 512.74196741 C-156.28463805 512.74317912 -157.68582925 512.74439326 -159.08702046 512.74560978 C-172.23364212 512.75649161 -185.38023814 512.75431966 -198.52686125 512.74822494 C-210.56211513 512.74305394 -222.59728811 512.75431488 -234.63252598 512.77332316 C-246.98254864 512.7926795 -259.33253299 512.80096152 -271.68257093 512.7971999 C-278.61932506 512.79528466 -285.5560103 512.79780681 -292.49275208 512.81191444 C-299.01308662 512.82504075 -305.53328547 512.82259829 -312.05362892 512.80950356 C-314.45185716 512.80712692 -316.85009665 512.80991103 -319.248312 512.81812668 C-322.51188384 512.82850395 -325.77490097 512.82056627 -329.03845215 512.80781555 C-329.99651339 512.81518984 -330.95457463 512.82256412 -331.94166803 512.83016187 C-332.81315658 512.82295533 -333.68464513 512.81574878 -334.58254242 512.80832386 C-335.33617994 512.80837888 -336.08981746 512.80843389 -336.86629248 512.80849057 C-339.42608149 512.32029917 -340.30105443 511.52095012 -341.83203125 509.43359375 C-342.14323037 506.46544983 -342.27615289 503.71193825 -342.265625 500.7421875 C-342.27086685 499.88230728 -342.2761087 499.02242706 -342.2815094 498.13648987 C-342.28793575 496.31325356 -342.28658468 494.48997583 -342.27807617 492.66674805 C-342.26963584 489.9053118 -342.29820355 487.14599371 -342.33007812 484.38476562 C-342.40141133 468.87622319 -339.81704806 460.66497954 -328.83203125 449.43359375 C-323.52456423 444.18965364 -318.09804489 439.06811971 -312.69439507 433.92379379 C-307.58619912 429.04110529 -302.52345286 424.1113394 -297.45912063 419.18322349 C-292.12909437 413.99681856 -286.78209169 408.8317801 -281.37182617 403.72900391 C-276.57916399 399.20849114 -271.85302075 394.62493825 -267.16050911 390.00018692 C-265.37583672 388.26197301 -263.57020553 386.54498559 -261.74300957 384.85152817 C-253.11069144 376.82914917 -246.05980064 370.23476866 -245.54552555 357.93597603 C-245.78758732 345.1245642 -247.41414243 332.40161308 -256.46484375 322.6796875 C-259.55684068 319.92565303 -262.89353382 317.75552838 -266.39453125 315.55859375 C-271.78734191 312.06478992 -275.78497004 307.57477738 -277.83203125 301.43359375 C-277.96494858 298.75838043 -278.04427499 296.11011523 -278.0703125 293.43359375 C-278.07838425 292.64267334 -278.08645599 291.85175293 -278.09477234 291.03686523 C-278.10860337 289.35907167 -278.11932992 287.68125009 -278.12719727 286.00341797 C-278.13865722 284.30443962 -278.15901297 282.60549554 -278.1887207 280.90673828 C-278.54380793 260.58940099 -272.58181292 249.66887272 -258.51631558 235.02219343 C-256.07616641 232.5415913 -253.62199426 230.07585457 -251.16127014 227.61566162 C-250.2199728 226.67105427 -249.27888476 225.72623833 -248.33798498 224.78123498 C-245.78028274 222.21363594 -243.21954779 219.6490813 -240.65822947 217.08509016 C-237.88547448 214.30839568 -235.11554149 211.52888815 -232.34516907 208.74981689 C-225.67365661 202.0586552 -218.9973996 195.37223743 -212.32051602 188.68643606 C-209.17005188 185.53157522 -206.02007116 182.37623179 -202.87002373 179.2209549 C-192.39153567 168.7254759 -181.91180075 158.23124426 -171.42844486 147.74062729 C-168.71571477 145.02598762 -166.00299009 142.31134255 -163.2902832 139.59667969 C-162.61613565 138.9220484 -161.9419881 138.24741711 -161.24741184 137.55234244 C-150.31296663 126.60958647 -139.38707533 115.65833106 -128.46470661 104.70352241 C-117.23276612 93.43849617 -105.99329524 82.18102805 -94.74639696 70.93093514 C-88.43888995 64.62126585 -82.13469617 58.3083631 -75.83891487 51.98699188 C-70.48169233 46.60804276 -65.11766643 41.23599622 -59.74471385 35.87275764 C-57.00622679 33.13880779 -54.27103357 30.4017688 -51.54455566 27.65583801 C-48.58378362 24.67412474 -45.60760814 21.70826677 -42.629776 18.74359131 C-41.35197292 17.44933436 -41.35197292 17.44933436 -40.04835564 16.12893081 C-27.7898692 4.00053599 -16.97997978 -0.04737353 0 0 Z M-19.89453125 20.43359375 C-20.64863281 20.94921875 -21.40273438 21.46484375 -22.1796875 21.99609375 C-22.72496094 22.47046875 -23.27023437 22.94484375 -23.83203125 23.43359375 C-23.83203125 24.09359375 -23.83203125 24.75359375 -23.83203125 25.43359375 C-24.82203125 25.76359375 -25.81203125 26.09359375 -26.83203125 26.43359375 C-28.43375868 28.00935864 -28.43375868 28.00935864 -29.99948978 29.96895695 C-33.8424626 34.49392468 -37.94642223 38.68177663 -42.1526947 42.86778259 C-43.36835589 44.08366706 -43.36835589 44.08366706 -44.60857588 45.32411486 C-47.30691386 48.02176199 -50.00880181 50.71582451 -52.71069336 53.40991211 C-54.65309359 55.34982571 -56.59472494 57.2905082 -58.53637695 59.23117065 C-62.70792702 63.39984383 -66.88124548 67.56673968 -71.05573845 71.73246574 C-77.09174643 77.75589002 -83.1244877 83.78257772 -89.15635461 89.81014854 C-98.94500721 99.59174622 -108.73552762 109.37147191 -118.52758789 119.1496582 C-119.11278049 119.73402299 -119.69797309 120.31838778 -120.3008988 120.92046059 C-124.45706147 125.07071986 -128.61329047 129.22091271 -132.76953125 133.37109375 C-137.52942749 138.12405552 -142.28928876 142.87705229 -147.04907227 147.63012695 C-147.92897086 148.50878336 -147.92897086 148.50878336 -148.82664519 149.4051904 C-158.59193881 159.15681945 -168.35528472 168.91039629 -178.11723143 178.66537577 C-184.13864662 184.68230236 -190.16183899 190.69743955 -196.18730754 196.71030707 C-200.30785687 200.82245892 -204.42666226 204.93635188 -208.5440725 209.05164682 C-210.92252989 211.4287537 -213.30209118 213.80472839 -215.68328285 216.17909813 C-218.25788902 218.74655627 -220.82945842 221.31701689 -223.4002533 223.88829041 C-224.16199527 224.64643742 -224.92373725 225.40458444 -225.70856231 226.1857056 C-226.73143037 227.21063518 -226.73143037 227.21063518 -227.77496243 228.25627041 C-228.36960716 228.84999335 -228.96425189 229.44371629 -229.57691616 230.05543083 C-230.94425298 231.24614396 -230.94425298 231.24614396 -230.83203125 232.43359375 C-230.25733093 232.43723938 -229.68263062 232.44088501 -229.09051514 232.44464111 C-223.05441288 232.48677873 -217.01904907 232.556338 -210.98339844 232.64111328 C-208.73738019 232.66916433 -206.49126613 232.69045692 -204.24511719 232.70458984 C-181.20579001 232.85818536 -181.20579001 232.85818536 -170.83203125 237.43359375 C-168.90863585 238.22289395 -168.90863585 238.22289395 -166.83203125 238.43359375 C-165.16412105 237.50359707 -165.16412105 237.50359707 -163.72005749 235.92009926 C-163.12771633 235.33401315 -162.53537518 234.74792705 -161.92508429 234.14408076 C-160.96336821 233.15437928 -160.96336821 233.15437928 -159.98222351 232.14468384 C-159.29362442 231.45612348 -158.60502534 230.76756312 -157.89555961 230.0581373 C-155.57677832 227.73351315 -153.27638096 225.39149442 -150.9753418 223.04931641 C-149.32222345 221.38497226 -147.66796005 219.72176478 -146.01263428 218.05961609 C-142.44293004 214.4706752 -138.88109766 210.87415845 -135.32495689 207.27177811 C-130.17862778 202.05936368 -125.01676372 196.86254936 -119.84959791 191.67080693 C-111.46121025 183.24217538 -103.08184595 174.80463921 -94.71020508 166.359375 C-93.9582315 165.60079937 -93.9582315 165.60079937 -93.19106654 164.82689898 C-87.60008242 159.1865624 -82.01046777 153.54487006 -76.42150879 147.90252686 C-74.39604975 145.85781631 -72.37053433 143.81316163 -70.3449707 141.76855469 C-69.84517717 141.26405511 -69.34538363 140.75955554 -68.83044484 140.2397681 C-60.49590107 131.82743806 -52.14964342 123.42683048 -43.7945388 115.034922 C-38.18150041 109.39598616 -32.58361894 103.74243438 -26.99598157 98.07832742 C-23.51757553 94.55839735 -20.02679267 91.05094717 -16.53245544 87.54683876 C-14.91267034 85.91740476 -13.29807988 84.28278813 -11.68908119 82.6427021 C-9.49393342 80.40657836 -7.28105903 78.18962467 -5.06278992 75.97647095 C-4.42833802 75.32113141 -3.79388613 74.66579187 -3.14020842 73.99059355 C0.77163549 70.13651694 3.42772124 68.47087003 9.16796875 68.43359375 C12.0717097 69.80904999 12.90336714 70.78090977 14.10546875 73.74609375 C14.2216843 78.74336261 11.50599926 82.26176923 8.18793106 85.76601505 C6.95316598 87.00555062 5.71009232 88.236844 4.46051025 89.46144104 C3.43267713 90.48676899 3.43267713 90.48676899 2.38407969 91.53281063 C0.09023317 93.81756143 -2.21413874 96.09139231 -4.51855469 98.36547852 C-6.16660572 100.00285929 -7.81395277 101.64094889 -9.46064758 103.2796936 C-13.00550291 106.80490727 -16.55481548 110.32554966 -20.1075058 113.8428669 C-25.24576361 118.93090828 -30.37358744 124.0293445 -35.49780121 129.13152611 C-43.81500785 137.41292422 -52.13671028 145.68978563 -60.46337891 153.96166992 C-60.96137738 154.45639803 -61.45937585 154.95112613 -61.97246519 155.460846 C-69.04790392 162.48940251 -76.12777453 169.5134782 -83.20940664 176.53579383 C-83.9582235 177.27834078 -83.9582235 177.27834078 -84.72216797 178.03588867 C-85.22077346 178.53031358 -85.71937896 179.02473848 -86.23309371 179.53414596 C-94.53944605 187.77145163 -102.83407251 196.02044546 -111.11962724 204.27866977 C-116.68658827 209.82596025 -122.26682381 215.35943587 -127.85711718 220.88320744 C-131.32457489 224.31557621 -134.7795202 227.76032431 -138.23097801 231.20877457 C-139.83869402 232.8100263 -141.4516015 234.40608424 -143.06991768 235.99662209 C-145.27144434 238.16179734 -147.453933 240.3444984 -149.63250732 242.5327301 C-150.28316217 243.16386154 -150.93381702 243.79499298 -151.60418868 244.44524962 C-155.02267525 247.71215058 -155.02267525 247.71215058 -155.8132515 252.14614773 C-155.48944881 252.90100492 -155.16564613 253.6558621 -154.83203125 254.43359375 C-151.90690594 261.25888614 -150.70146786 266.84652398 -150.26953125 274.24609375 C-150.22634766 274.93896484 -150.18316406 275.63183594 -150.13867188 276.34570312 C-150.03341672 278.04148061 -149.93230262 279.73751427 -149.83203125 281.43359375 C-144.30261174 276.82515215 -139.18145791 271.9243831 -134.10049438 266.82904053 C-133.24584009 265.97594622 -132.39118579 265.12285191 -131.51063287 264.24390626 C-129.15503811 261.89159551 -126.80168663 259.53708172 -124.44928908 257.18157625 C-121.90583665 254.63585297 -119.35949819 252.09301913 -116.8135376 249.54980469 C-111.83424363 244.57494843 -106.85764595 239.59740344 -101.88202222 234.61887667 C-97.83988932 230.57448316 -93.79677872 226.53106947 -89.75297165 222.48834991 C-88.88891467 221.62452279 -88.88891467 221.62452279 -88.007402 220.7432446 C-86.8371647 219.57332703 -85.66692516 218.40341171 -84.4966834 217.2334986 C-73.5352291 206.27489291 -62.5768371 195.31322911 -51.61949603 184.35051087 C-42.21209839 174.93863979 -32.80207364 165.529402 -23.39013672 156.12207031 C-12.45824272 145.19552276 -1.52796608 134.26736151 9.39971793 123.3366034 C10.56374443 122.17225834 11.72777303 121.00791538 12.89180374 119.84357452 C13.75089771 118.98424915 13.75089771 118.98424915 14.6273471 118.10756366 C18.66912295 114.06492332 22.71206021 110.02344671 26.75544357 105.98241425 C31.67703545 101.06362107 36.59685364 96.14306219 41.51437633 91.22020075 C44.02462247 88.70731946 46.53567453 86.19525742 49.04888535 83.68534088 C51.76807392 80.96966289 54.48340606 78.25015049 57.19833374 75.5302124 C58.40077809 74.33111414 58.40077809 74.33111414 59.62751424 73.10779166 C60.7108449 72.02054939 60.7108449 72.02054939 61.81606102 70.91134262 C62.44374142 70.28349987 63.07142182 69.65565711 63.71812284 69.00878882 C67.77486059 64.60131816 66.35390581 57.91095272 66.35327148 52.2578125 C66.35545334 50.07401918 66.37360011 47.89073485 66.39257812 45.70703125 C66.39551311 44.31640798 66.3974972 42.9257823 66.3984375 41.53515625 C66.40254639 40.27010254 66.40665527 39.00504883 66.41088867 37.70166016 C66.18427361 34.65294733 65.7812004 32.98071748 64.16796875 30.43359375 C57.45683419 35.9296997 51.44076102 42.08119323 45.35546875 48.24609375 C43.28933015 50.33880648 41.2199031 52.42818665 39.1484375 54.515625 C38.23989014 55.43577393 37.33134277 56.35592285 36.39526367 57.30395508 C33.78413296 59.80060017 32.8725863 60.35700489 29.29296875 60.74609375 C26.16796875 60.43359375 26.16796875 60.43359375 23.79296875 58.87109375 C21.49190562 55.41949905 21.61540358 53.53749737 22.16796875 49.43359375 C23.99911716 46.64873812 26.31573568 44.46928564 28.73046875 42.1875 C29.3963501 41.53152328 30.06223145 40.87554657 30.74829102 40.19969177 C32.87228503 38.11478385 35.01933094 36.05556549 37.16796875 33.99609375 C38.61487215 32.58431093 40.06020459 31.17091616 41.50390625 29.75585938 C45.04065791 26.2961569 48.59828188 22.85929059 52.16796875 19.43359375 C49.16030836 16.09190822 46.53000383 15.69701559 42.16796875 15.43359375 C38.54477981 15.29649393 34.92634819 15.26971865 31.30078125 15.265625 C30.26662079 15.2622966 29.23246033 15.2589682 28.16696167 15.25553894 C25.98680056 15.25049337 23.80663179 15.24812988 21.62646484 15.24829102 C18.31074163 15.24610546 14.99535192 15.22792681 11.6796875 15.20898438 C9.55338654 15.20604968 7.42708402 15.20406539 5.30078125 15.203125 C4.31925079 15.19593948 3.33772034 15.18875397 2.32644653 15.18135071 C-5.61808183 15.20741639 -13.23140224 15.73297364 -19.89453125 20.43359375 Z M31.83929271 122.64267397 C30.98385724 123.50193145 30.98385724 123.50193145 30.11114025 124.37854767 C29.45470443 125.03545924 28.79826861 125.69237081 28.12194079 126.36918879 C27.39375889 127.103012 26.665577 127.83683522 25.91532898 128.59289551 C25.1470664 129.36312593 24.37880381 130.13335635 23.58726054 130.92692709 C20.99031897 133.53164277 18.39694313 136.13988121 15.8034668 138.74804688 C13.95113353 140.60720466 12.09855314 142.46611625 10.2457428 144.32479858 C6.24307425 148.34061872 2.24201032 152.35803178 -1.75820351 156.376297 C-8.08773205 162.73399753 -14.42300334 169.08595849 -20.75932312 175.43688965 C-22.9269804 177.6096722 -25.0946133 179.78247907 -27.26224804 181.95528412 C-27.80408856 182.49841068 -28.34592909 183.04153723 -28.90418902 183.60112217 C-35.07858919 189.79026954 -41.25212507 195.98027854 -47.42504883 202.17089844 C-47.98955241 202.73701676 -48.55405599 203.30313508 -49.13566574 203.88640851 C-58.26255238 213.03977198 -67.38378624 222.19875104 -76.50336073 231.3593989 C-85.87065019 240.76851618 -95.24566227 250.16989137 -104.62737817 259.56462431 C-110.4099464 265.35576532 -116.18624723 271.15301591 -121.9545209 276.95839578 C-125.91678058 280.94505092 -129.88642158 284.92425808 -133.86178825 288.89784306 C-136.15091444 291.18639499 -138.43560127 293.47908101 -140.71369553 295.77862167 C-157.2847496 312.49881413 -157.2847496 312.49881413 -166.42808819 317.94417572 C-174.37741461 322.86936313 -178.53324105 329.3661306 -181.3681488 338.08184814 C-182.02832828 341.42876115 -181.96241644 344.74296497 -181.94555664 348.13964844 C-181.94570267 348.91076462 -181.94584869 349.6818808 -181.94599915 350.47636414 C-181.94530374 353.01942785 -181.93752874 355.56241787 -181.9296875 358.10546875 C-181.927822 359.87095093 -181.92639872 361.63643362 -181.92539978 363.4019165 C-181.921585 368.04450921 -181.91176357 372.68707055 -181.9006958 377.32965088 C-181.89045935 382.06872127 -181.88589737 386.80779674 -181.88085938 391.546875 C-181.87014038 400.84246169 -181.85307642 410.13802511 -181.83203125 419.43359375 C-178.83591059 417.99908852 -176.76962918 416.60202204 -174.44921875 414.2109375 C-173.83949219 413.59025391 -173.22976562 412.96957031 -172.6015625 412.33007812 C-171.97636719 411.68361328 -171.35117188 411.03714844 -170.70703125 410.37109375 C-169.45667051 409.08635445 -168.20416609 407.80369694 -166.94921875 406.5234375 C-166.39862793 405.95488037 -165.84803711 405.38632324 -165.28076172 404.80053711 C-162.90520642 402.5590922 -161.75185947 402.42776308 -158.39453125 402.18359375 C-154.83203125 402.43359375 -154.83203125 402.43359375 -152.89453125 403.43359375 C-151.0906181 406.82919498 -150.84571836 409.79053167 -151.83203125 413.43359375 C-154.59652393 417.15184208 -157.92312821 420.18578641 -161.33203125 423.30859375 C-163.11704441 424.9895023 -164.89850183 426.67419765 -166.67578125 428.36328125 C-167.86977539 429.46518799 -167.86977539 429.46518799 -169.08789062 430.58935547 C-171.06106951 432.2527177 -171.06106951 432.2527177 -170.83203125 434.43359375 C-164.68986208 437.4826312 -158.65014113 438.51184724 -151.90625 439.5546875 C-149.55923061 439.93676187 -147.21222586 440.31892613 -144.86523438 440.70117188 C-141.19267704 441.28804531 -137.51954502 441.87109157 -133.84594727 442.45141602 C-130.28108319 443.01784102 -126.71868851 443.59823137 -123.15625 444.1796875 C-121.5276429 444.42989906 -121.5276429 444.42989906 -119.86613464 444.68516541 C-113.7719199 445.68467801 -108.54579787 447.12920855 -102.97688293 449.83314514 C-100.85227965 450.65933585 -100.85227965 450.65933585 -98.94055057 449.69796419 C-96.5937898 448.29073262 -94.88649965 446.73878878 -92.95087051 444.8041153 C-91.80507896 443.66614699 -91.80507896 443.66614699 -90.63614011 442.50518942 C-89.80345569 441.66804356 -88.97077128 440.8308977 -88.112854 439.96838379 C-87.22330544 439.08195521 -86.33375688 438.19552663 -85.4172523 437.28223658 C-82.94762647 434.82097107 -80.48429103 432.35349243 -78.02193999 429.88495183 C-75.36571851 427.22421207 -72.70375742 424.56922534 -70.04252625 421.91349792 C-64.83041096 416.71028422 -59.62372726 411.50166773 -54.41895923 406.29110563 C-50.19074474 402.05837863 -45.96058737 397.82760259 -41.72902679 393.59822083 C-41.12731536 392.99681586 -40.52560394 392.3954109 -39.90565883 391.77578154 C-38.68340044 390.55416259 -37.46113756 389.33254814 -36.23887023 388.11093813 C-24.77384758 376.65162077 -13.31496732 365.186177 -1.85816988 353.71863705 C7.98154536 343.86998157 17.82649908 334.02658813 27.67529297 324.18701172 C39.10424663 312.76874935 50.52996397 301.34726467 61.95049882 289.92058134 C63.16707079 288.70337225 64.38364695 287.48616734 65.60022736 286.26896667 C66.19885933 285.67002615 66.79749131 285.07108562 67.41426365 284.45399538 C71.64190162 280.22462738 75.87186253 275.99759118 80.10271454 271.7714386 C85.25399568 266.62575343 90.40172526 261.47654723 95.54486623 256.32272542 C98.17117875 253.69113952 100.79909656 251.06120988 103.43133736 248.4355526 C106.27855633 245.59534756 109.11802972 242.74752678 111.95672607 239.89880371 C112.79833338 239.06165785 113.63994068 238.224512 114.50705123 237.36199808 C115.26048127 236.60335254 116.01391132 235.844707 116.79017258 235.0630722 C117.44719878 234.4057213 118.10422498 233.74837039 118.78116107 233.07109976 C120.38339376 231.53686681 120.38339376 231.53686681 120.16796875 229.43359375 C117.39808838 228.88669519 114.62729258 228.3455169 111.85546875 227.80859375 C110.95062744 227.63255615 110.04578613 227.45651855 109.11352539 227.27514648 C102.89078987 226.08563279 96.65697802 225.012168 90.40234375 224.0078125 C88.85453308 223.75561948 87.30676313 223.5031764 85.7590332 223.25048828 C83.45280484 222.87402638 81.14639895 222.50238461 78.83676147 222.1473999 C68.24369783 220.51751943 58.26286924 218.49686074 49.16796875 212.43359375 C48.78514059 212.81832051 48.40231244 213.20304726 48.00788343 213.59943241 C25.32532848 236.39384268 2.62976724 259.17521028 -20.08281247 281.93970161 C-22.80904702 284.67218981 -25.53517246 287.40478685 -28.26123047 290.13745117 C-28.80394849 290.68148075 -29.34666652 291.22551033 -29.90583055 291.78602565 C-38.69678093 300.59874115 -47.47885929 309.42024715 -56.25769873 318.24502521 C-65.26371026 327.29777057 -74.27917179 336.34102319 -83.30350244 345.37550741 C-88.87310996 350.95198046 -94.43518738 356.53575318 -99.98790269 362.12904752 C-104.24429978 366.41496293 -108.51376601 370.68761038 -112.78832245 374.95542336 C-114.54143875 376.70991847 -116.29025436 378.46872278 -118.03447342 380.23206329 C-120.41198616 382.63436132 -122.80432265 385.02084048 -125.20108032 387.40391541 C-125.89175586 388.10915515 -126.5824314 388.8143949 -127.29403651 389.54100555 C-130.95495066 393.14549623 -133.41946752 395.42948569 -138.83203125 395.43359375 C-141.70703125 394.49609375 -141.70703125 394.49609375 -143.83203125 392.43359375 C-144.51776354 389.06207666 -144.73716663 387.62100169 -143.83203125 384.43359375 C-142.49203438 382.53117418 -142.49203438 382.53117418 -140.75537014 380.6417923 C-140.11901917 379.94622758 -139.48266821 379.25066286 -138.82703388 378.53402042 C-135.69824904 375.23989788 -132.52817836 371.99537157 -129.30860901 368.78991699 C-128.22157972 367.70160607 -128.22157972 367.70160607 -127.11259025 366.59130907 C-124.70445921 364.18154214 -122.29279233 361.77534653 -119.88110352 359.36914062 C-118.14588801 357.63420742 -116.41089313 355.89905353 -114.67610168 354.16369629 C-110.95136483 350.43873235 -107.22510955 346.71529771 -103.49743843 342.99327087 C-98.10797076 337.61195838 -92.72129322 332.22785999 -87.33527493 326.84309536 C-78.59502126 318.10502592 -69.85254056 309.3691882 -61.10864258 300.63476562 C-52.61885868 292.15417216 -44.13013421 283.67252053 -35.64282227 275.18945312 C-35.11895011 274.66584369 -34.59507795 274.14223426 -34.05533088 273.60275787 C-31.42701154 270.97574365 -28.79871292 268.34870871 -26.17042458 265.72166348 C-4.3941692 243.9557611 17.38574472 222.19352308 39.16796875 200.43359375 C38.85486579 199.51392757 38.85486579 199.51392757 38.53543752 198.57568228 C38.26308784 197.76881834 37.99073816 196.9619544 37.71013546 196.13064003 C37.43952516 195.33190425 37.16891485 194.53316846 36.89010423 193.71022856 C35.32722507 188.78302974 35.03375519 184.0175852 34.96264648 178.87744141 C34.94270126 177.59656647 34.92275604 176.31569153 34.90220642 174.9960022 C34.88522729 173.61322141 34.8683483 172.2304394 34.8515625 170.84765625 C34.8309682 169.42133007 34.80997111 167.99500966 34.78858948 166.56869507 C34.73362431 162.83039035 34.68410332 159.0920329 34.63574219 155.3536377 C34.58533951 151.53258622 34.5297518 147.71161049 34.47460938 143.890625 C34.36734081 136.40501222 34.26582753 128.91933608 34.16796875 121.43359375 C32.99182762 121.32142104 32.99182762 121.32142104 31.83929271 122.64267397 Z M125.63474751 247.81304073 C124.87214282 248.56687068 124.10953814 249.32070063 123.32382423 250.0973739 C122.4771461 250.93946155 121.63046797 251.7815492 120.75813293 252.64915466 C119.86565296 253.53301899 118.97317299 254.41688331 118.05364817 255.3275314 C115.56414244 257.79332659 113.07789136 260.26238119 110.59221327 262.73203409 C108.46284144 264.84690134 106.33163994 266.95992011 104.20045546 269.07296049 C84.00589741 289.09635386 63.85447129 309.16332367 43.71120167 329.23829556 C41.08855265 331.85189548 38.46582356 334.46541501 35.84301758 337.07885742 C35.19110444 337.72845065 34.5391913 338.37804387 33.86752322 339.04732174 C23.30353016 349.57253175 12.7188389 360.0766797 2.1259487 370.57279753 C-8.74034971 381.340642 -19.58580506 392.12914045 -30.41169435 402.93761307 C-36.49419343 409.0091933 -42.58583644 415.07096565 -48.70134544 421.10931206 C-53.90928082 426.25155786 -59.09838992 431.41188207 -64.26356169 436.59709584 C-66.90073501 439.24331886 -69.54610341 441.87972808 -72.21606064 444.49290466 C-75.10869111 447.32448999 -77.95711796 450.19676041 -80.80314636 453.07518005 C-82.0832018 454.30819679 -82.0832018 454.30819679 -83.38911694 455.56612295 C-87.51537146 459.56890706 -87.51537146 459.56890706 -88.88858473 464.88247693 C-88.3832494 467.17888284 -87.66474979 469.23921219 -86.83203125 471.43359375 C-86.57077051 473.78247568 -86.35599972 476.13742636 -86.20703125 478.49609375 C-86.13226563 479.62144531 -86.0575 480.74679687 -85.98046875 481.90625 C-85.93148437 482.74027344 -85.8825 483.57429687 -85.83203125 484.43359375 C-80.33155281 479.83132895 -75.1713043 474.97011294 -70.05580139 469.94584656 C-69.19635797 469.10489671 -68.33691456 468.26394686 -67.4514274 467.39751369 C-65.08254996 465.07819135 -62.71575812 462.75678155 -60.35008705 460.43419135 C-58.83481321 458.94694392 -57.31872193 457.46053458 -55.80237579 455.97438049 C-35.97510208 436.54087012 -16.22801485 417.0261962 3.49353695 397.48546124 C5.99229714 395.01002312 8.49128948 392.53481961 10.99047852 390.05981445 C11.61155849 389.44472674 12.23263847 388.82963902 12.87253905 388.19591228 C22.9274132 378.24068762 33.02699009 368.33204502 43.14424758 358.44027033 C53.5510633 348.26346589 63.90948148 338.03924265 74.22477347 327.76967174 C80.5775394 321.44797161 86.9641682 315.16516759 93.40039033 308.92843733 C97.81512791 304.64340544 102.18157526 300.31273808 106.5140475 295.94456264 C109.00964128 293.43108965 111.52026774 290.94151064 114.09071541 288.50444221 C127.21264326 276.03346043 127.21264326 276.03346043 131.45113808 259.00727254 C131.32144235 254.09932194 130.92219972 249.28480625 130.16796875 244.43359375 C128.25396976 244.43359375 126.90569096 246.55280083 125.63474751 247.81304073 Z M-257.83203125 257.43359375 C-262.44906491 264.41360467 -262.48348917 271.97989361 -262.40844727 280.08251953 C-262.39445834 282.19460182 -262.42888672 284.30234447 -262.46679688 286.4140625 C-262.46774726 287.76953232 -262.46589358 289.12500765 -262.4609375 290.48046875 C-262.4616626 291.69573242 -262.4623877 292.91099609 -262.46313477 294.16308594 C-261.49575349 299.17625405 -258.452944 301.28070964 -254.4375 304.13671875 C-253.63957031 304.6471875 -252.84164062 305.15765625 -252.01953125 305.68359375 C-240.38176898 313.70187341 -234.46999698 324.01009781 -231.449646 337.62811279 C-230.2891516 344.77858862 -230.40249534 351.93293756 -230.43359375 359.16015625 C-230.43156664 360.84158453 -230.42864993 362.52301194 -230.42489624 364.20443726 C-230.42050525 367.70571371 -230.42680038 371.20675856 -230.44091797 374.70800781 C-230.45803465 379.16720765 -230.44813249 383.62586656 -230.43020058 388.08504677 C-230.41929754 391.54944853 -230.42283832 395.01372454 -230.43058395 398.47813034 C-230.43256661 400.12136273 -230.43019577 401.76460701 -230.42314529 403.40782547 C-230.37491642 417.79763337 -231.7745517 430.64775447 -241.90625 441.6953125 C-249.18885754 448.57121247 -257.06731415 451.69486541 -266.86328125 453.25 C-267.69807007 453.3925975 -268.53285889 453.53519501 -269.39294434 453.68211365 C-272.03756138 454.1313429 -274.68454328 454.56414285 -277.33203125 454.99609375 C-279.07440629 455.28859861 -280.81659573 455.58221124 -282.55859375 455.87695312 C-285.98633757 456.45529151 -289.41448604 457.03108123 -292.84326172 457.60327148 C-294.08435699 457.81039261 -294.08435699 457.81039261 -295.3505249 458.021698 C-297.00239715 458.29588596 -298.6546205 458.5679671 -300.30718994 458.83792114 C-302.6421267 459.22008028 -304.9754209 459.61114275 -307.30859375 460.00390625 C-307.99949097 460.11436783 -308.69038818 460.22482941 -309.40222168 460.33863831 C-314.50740772 461.20980368 -319.24637748 462.52813842 -322.83203125 466.43359375 C-327.69542123 475.04233972 -327.69542123 475.04233972 -325.83203125 497.43359375 C-251.91203125 497.43359375 -177.99203125 497.43359375 -101.83203125 497.43359375 C-100.00643658 478.3981669 -100.00643658 478.3981669 -107.20703125 464.74609375 C-117.01028536 457.28748074 -135.89700344 457.39556552 -147.77197266 455.5612793 C-179.60185374 450.62101072 -179.60185374 450.62101072 -189.14453125 438.62109375 C-194.63708776 430.67214391 -196.97426931 423.15074334 -197.0090332 413.56665039 C-197.0156044 412.77740173 -197.0221756 411.98815308 -197.02894592 411.17498779 C-197.04864178 408.56457411 -197.06033775 405.95421808 -197.0703125 403.34375 C-197.07438803 402.44794157 -197.07846355 401.55213314 -197.08266258 400.629179 C-197.10351479 395.88096219 -197.11781609 391.13277415 -197.12719727 386.38452148 C-197.13821609 381.50934667 -197.17256569 376.63463402 -197.21236897 371.75962162 C-197.23868271 367.98719002 -197.24690246 364.21486566 -197.25047874 360.44235039 C-197.25531241 358.64723045 -197.26683298 356.85211425 -197.28551674 355.05708504 C-197.43120093 340.12365007 -195.47724057 328.0451491 -186.83203125 315.43359375 C-186.25453125 314.54671875 -185.67703125 313.65984375 -185.08203125 312.74609375 C-180.80345956 308.34867284 -175.5220368 304.89377093 -170.140625 301.97265625 C-167.50441516 300.21518302 -166.94602242 299.35509934 -165.83203125 296.43359375 C-165.39863486 291.86155081 -165.50784488 287.27400089 -165.51953125 282.68359375 C-165.50341797 281.43320312 -165.48730469 280.1828125 -165.47070312 278.89453125 C-165.46609751 270.18070076 -166.00594211 263.0259088 -171.95703125 256.18359375 C-172.47523438 255.5596875 -172.9934375 254.93578125 -173.52734375 254.29296875 C-181.01560791 248.25158953 -188.75573165 247.8390986 -198.08203125 247.90234375 C-199.33532227 247.89851685 -200.58861328 247.89468994 -201.87988281 247.89074707 C-205.19088099 247.88734536 -208.50111478 247.90331817 -211.81201172 247.92578125 C-213.83064822 247.9335884 -215.84858919 247.92580474 -217.8671875 247.91210938 C-221.77245891 247.88729582 -225.67671601 247.89041893 -229.58203125 247.90234375 C-230.77602539 247.89424683 -231.97001953 247.8861499 -233.20019531 247.87780762 C-243.01877251 247.98722141 -250.87131328 250.14912146 -257.83203125 257.43359375 Z M-248.88844299 392.36975098 C-249.7922319 393.2757605 -250.69602081 394.18177002 -251.62719727 395.11523438 C-252.12477539 395.61266647 -252.62235352 396.11009857 -253.13500977 396.62260437 C-254.78769872 398.2759929 -256.43681242 399.93290113 -258.0859375 401.58984375 C-259.22772333 402.7334936 -260.36972938 403.87692363 -261.51194763 405.0201416 C-264.52429422 408.03631465 -267.53362639 411.05547819 -270.5423584 414.07525635 C-273.61042204 417.15353137 -276.68130246 420.22899346 -279.75195312 423.3046875 C-285.78141957 429.34489352 -291.80770708 435.38825899 -297.83203125 441.43359375 C-292.3156228 443.00755625 -287.20142812 441.56950525 -281.63452148 440.5925293 C-279.67097045 440.25069653 -277.70363204 439.93085525 -275.73632812 439.61132812 C-262.51480132 437.44468841 -262.51480132 437.44468841 -251.95703125 429.74609375 C-251.15652344 428.84310547 -251.15652344 428.84310547 -250.33984375 427.921875 C-245.48733682 419.91398144 -245.44668353 412.0380379 -245.64453125 402.87109375 C-245.65806641 401.67162109 -245.67160156 400.47214844 -245.68554688 399.23632812 C-245.72062325 396.30160496 -245.76977698 393.36784493 -245.83203125 390.43359375 C-247.18142767 390.31934406 -247.18142767 390.31934406 -248.88844299 392.36975098 Z " fill="#000000" transform="translate(353.83203125,-0.43359375)"/>
</svg>
