<?xml version="1.0" encoding="UTF-8"?>
<svg version="1.1" xmlns="http://www.w3.org/2000/svg" width="512" height="512">
<path d="M0 0 C0.75464539 -0.0065712 1.50929077 -0.0131424 2.2868042 -0.01991272 C4.78902277 -0.03965547 7.29118134 -0.05130961 9.79345703 -0.0612793 C10.64717014 -0.06535482 11.50088326 -0.06943035 12.38046646 -0.07362938 C16.89784758 -0.09449295 21.41519829 -0.10879417 25.93261719 -0.11816406 C30.6024783 -0.12923731 35.27186405 -0.16364664 39.94155693 -0.20333576 C43.52919411 -0.22945638 47.11671716 -0.23785176 50.70444107 -0.24144554 C52.42605937 -0.24632227 54.14767221 -0.25796709 55.86919785 -0.27648354 C58.27776751 -0.30078207 60.68509579 -0.29992768 63.09375 -0.29296875 C64.16150162 -0.31218384 64.16150162 -0.31218384 65.25082397 -0.33178711 C68.58180708 -0.2966842 70.39682076 -0.02721652 73.11605835 1.9599762 C75.51066906 5.36266532 75.27955989 8.86595674 75.28564453 12.88012695 C75.30218079 13.71791687 75.31871704 14.55570679 75.33575439 15.41888428 C75.38424453 18.08833132 75.40560698 20.75720869 75.42626953 23.42700195 C75.45442846 25.23953063 75.48435578 27.05203276 75.51611328 28.86450195 C75.59000347 33.30195505 75.63957167 37.73909172 75.67626953 42.17700195 C77.25214844 42.75708008 77.25214844 42.75708008 78.85986328 43.34887695 C86.23989472 46.08124574 93.53346913 48.86070176 100.67626953 52.17700195 C101.42312012 51.42491455 102.1699707 50.67282715 102.93945312 49.89794922 C105.7062912 47.11303553 108.47641743 44.33141262 111.24755859 41.55078125 C112.44735485 40.34595066 113.64625279 39.14022483 114.84423828 37.93359375 C116.56454876 36.20117844 118.28804497 34.47198926 120.01220703 32.7434082 C120.54872894 32.20172501 121.08525085 31.66004181 121.63803101 31.10194397 C126.30015156 26.43911966 126.30015156 26.43911966 130.30126953 25.67700195 C141.82469075 27.38417547 154.04148201 45.15893668 162.36035156 53.40112305 C164.57618359 55.59453243 166.8014066 57.77772403 169.03515625 59.95288086 C171.75074173 62.59743021 174.44878156 65.25873719 177.13522339 67.93287659 C178.15631819 68.94358796 179.18340133 69.94828778 180.21658325 70.94664001 C181.65691246 72.34079975 183.07342567 73.75943708 184.48876953 75.17895508 C185.29958984 75.97724731 186.11041016 76.77553955 186.94580078 77.59802246 C189.21074824 80.97355469 189.07942798 83.19120886 188.67626953 87.17700195 C187.49438477 89.2590332 187.49438477 89.2590332 185.79736328 90.98950195 C185.15782715 91.65723633 184.51829102 92.3249707 183.859375 93.01293945 C183.1389502 93.72708008 182.41852539 94.4412207 181.67626953 95.17700195 C180.50862061 96.37196289 180.50862061 96.37196289 179.31738281 97.59106445 C176.81099323 100.14036997 174.27922019 102.66166601 171.73876953 105.17700195 C170.86414063 106.04711914 169.98951172 106.91723633 169.08837891 107.8137207 C166.95329504 109.93713745 164.81589748 112.05816573 162.67626953 114.17700195 C163.02407471 114.99322021 163.02407471 114.99322021 163.37890625 115.82592773 C164.438764 118.31693773 165.49504181 120.80945072 166.55126953 123.30200195 C167.09847656 124.5859082 167.09847656 124.5859082 167.65673828 125.89575195 C168.01123047 126.73364258 168.36572266 127.5715332 168.73095703 128.43481445 C169.05563965 129.19938965 169.38032227 129.96396484 169.71484375 130.75170898 C170.81493326 133.52679512 171.75399968 136.33842042 172.67626953 139.17700195 C173.80645508 139.18634766 174.93664062 139.19569336 176.10107422 139.20532227 C180.29841375 139.24522587 184.49502057 139.31098522 188.69189453 139.38452148 C190.50755392 139.41272905 192.32333605 139.43394469 194.13916016 139.44799805 C196.75112742 139.46943104 199.36161927 139.5160808 201.97314453 139.56762695 C202.783703 139.56885559 203.59426147 139.57008423 204.42938232 139.5713501 C207.76899552 139.65794282 210.12012778 139.78307221 212.88734436 141.74316406 C215.27526712 144.99193991 215.26016587 147.78031435 215.24145508 151.66430664 C215.25328323 152.41281891 215.26511139 153.16133118 215.27729797 153.93252563 C215.31017071 156.40494176 215.3131419 158.87625668 215.31298828 161.34887695 C215.32330613 163.0727788 215.33436959 164.79667634 215.34614563 166.52056885 C215.36558171 170.13532807 215.36899905 173.74970044 215.36254883 177.36450195 C215.3565635 181.98294136 215.40071509 186.59936319 215.45843792 191.21738815 C215.49553139 194.77954344 215.50033268 198.34121735 215.49616432 201.90354156 C215.49902683 203.60513107 215.51302684 205.30674145 215.53864098 207.00814056 C215.74001415 221.95960011 215.74001415 221.95960011 211.61865234 226.78344727 C210.33237057 227.94619823 209.01728405 229.07782468 207.67626953 230.17700195 C206.39049727 231.47861613 205.11603755 232.7914886 203.85229492 234.11450195 C202.4954032 235.47123843 201.1358558 236.82532314 199.77392578 238.17700195 C199.05136093 238.89815186 198.32879608 239.61930176 197.58433533 240.36230469 C195.30484349 242.6362561 193.02187714 244.90668149 190.73876953 247.17700195 C189.18059447 248.7301543 187.6226496 250.28353762 186.06494141 251.8371582 C182.27137194 255.61977781 178.47495339 259.39951885 174.67626953 263.17700195 C175.63200893 264.29974481 176.58884493 265.42155423 177.54614258 266.54296875 C178.07886276 267.16777634 178.61158295 267.79258392 179.16044617 268.43632507 C180.85390769 270.38099052 182.63243849 272.20021672 184.48876953 273.98950195 C187.16339104 276.5696556 188.46547073 278.07030823 189.17626953 281.80200195 C187.73419357 291.53601468 173.57250506 301.52733968 166.80126953 308.3605957 C166.08827698 309.08016008 165.37528442 309.79972446 164.64068604 310.54109383 C160.87540212 314.33878245 157.10617871 318.13251846 153.33447266 321.92382812 C150.22075808 325.05543667 147.11580773 328.19536485 144.01806641 331.34277344 C140.26258103 335.15837099 136.49265149 338.95910873 132.71185303 342.74962044 C131.27781633 344.19221375 129.84891831 345.63993452 128.425354 347.09286308 C126.4368781 349.12017526 124.43036427 351.12781245 122.41845703 353.13183594 C121.83747253 353.73282104 121.25648804 354.33380615 120.65789795 354.95300293 C116.85633952 358.68814759 114.21325449 360.04093124 108.67626953 360.17700195 C106.02810942 359.38971111 105.04742424 358.65420086 103.36376953 356.48950195 C102.32901601 353.00896737 102.81845145 350.70489706 103.67626953 347.17700195 C105.37934736 344.64824245 107.47503821 342.6176718 109.66479492 340.50732422 C110.28916946 339.88207352 110.91354401 339.25682281 111.55683899 338.61262512 C113.61529515 336.55833473 115.69414917 334.52609175 117.77392578 332.4934082 C119.2086979 331.06983164 120.64214726 329.64492077 122.07432556 328.21873474 C125.84074462 324.47518484 129.62483379 320.75000529 133.41290283 317.02838135 C137.27781422 313.22493206 141.12572014 309.40436375 144.97509766 305.58520508 C152.52561989 298.09896194 160.09492241 290.63201796 167.67626953 283.17700195 C166.26911637 279.77638181 164.64758725 278.28470497 161.67626953 276.17700195 C160.94462806 276.91002612 160.94462806 276.91002612 160.19820595 277.65785885 C148.34183587 289.53629202 136.48271536 301.41197153 124.62050819 313.28457546 C118.8841554 319.0260894 113.14874508 324.76853898 107.41552734 330.51318359 C102.4197453 335.518918 97.42222102 340.52290521 92.42257726 345.52478272 C89.77420865 348.17445749 87.12673401 350.82501207 84.48134232 353.47765923 C81.53161265 356.4354137 78.57800092 359.38926134 75.62402344 362.34277344 C74.74289383 363.22749832 73.86176422 364.11222321 72.95393372 365.02375793 C72.15183975 365.82447723 71.34974579 366.62519653 70.52334595 367.45018005 C69.47526732 368.49964137 69.47526732 368.49964137 68.4060154 369.57030392 C64.7000708 373.0126211 60.73159212 372.30394391 55.94970703 372.2746582 C54.65548325 372.27253578 54.65548325 372.27253578 53.33511353 372.27037048 C50.57379723 372.26476383 47.81256141 372.25221023 45.05126953 372.23950195 C43.18147903 372.23448781 41.31168727 372.22992475 39.44189453 372.22583008 C34.85332176 372.21479224 30.2648093 372.19752315 25.67626953 372.17700195 C25.55192535 372.77334946 25.42758118 373.36969696 25.29946899 373.9841156 C24.43058602 378.04033508 23.57856776 381.94381907 21.94970703 385.7746582 C21.67046387 386.44247314 21.3912207 387.11028809 21.10351562 387.79833984 C20.75627441 388.60392334 20.4090332 389.40950684 20.05126953 390.23950195 C18.93751953 392.85887695 17.82376953 395.47825195 16.67626953 398.17700195 C22.28626953 403.78700195 27.89626953 409.39700195 33.67626953 415.17700195 C37.43822644 413.2960235 39.1815147 411.87651239 42.02661133 408.91088867 C42.87817307 408.03012665 43.7297348 407.14936462 44.60710144 406.24191284 C45.5206691 405.28978912 46.43423676 404.33766541 47.37548828 403.35668945 C48.3335926 402.37197686 49.29282436 401.38836009 50.25312805 400.40579224 C54.32375817 396.24076733 58.39052903 392.07259787 62.41821289 387.8659668 C64.8865534 385.28936771 67.37661963 382.73559053 69.88212013 380.19513321 C71.28797511 378.75727209 72.66962828 377.29587513 74.05070496 375.834198 C81.22600955 368.59986465 81.22600955 368.59986465 86.63647461 368.39233398 C89.13693392 368.5741629 90.30225739 368.87021569 92.24596882 370.46455956 C94.47640002 373.1349665 94.49736664 375.22571768 94.3621788 378.6287384 C92.86793165 384.18010752 88.1766463 387.8450548 84.16113281 391.72973633 C83.13783316 392.75213359 82.11650904 393.77651137 81.09701538 394.80270386 C78.33174345 397.57481373 75.53956759 400.31828343 72.74150705 403.05724144 C69.81713353 405.92896642 66.9179469 408.82590014 64.01583862 411.72009277 C59.14261168 416.57311499 54.25349868 421.4096112 49.35253906 426.23461914 C42.43539434 433.04459452 35.54675939 439.88284877 28.66392922 446.72748089 C19.4484071 455.88902933 10.22450079 465.04238719 0.96823502 474.16278458 C-0.03476343 475.15164333 -1.03694976 476.14132657 -2.03827667 477.1318779 C-3.40150043 478.47998191 -4.76814428 479.82462489 -6.13497925 481.16906738 C-7.28261151 482.30054829 -7.28261151 482.30054829 -8.45342827 483.45488739 C-10.69734501 485.5210143 -11.94631681 486.10511364 -14.94873047 486.67700195 C-20.09745242 485.91422833 -22.72236871 482.75762651 -26.32373047 479.17700195 C-27.00564453 478.50926758 -27.68755859 477.8415332 -28.39013672 477.15356445 C-30.0508466 475.50962942 -31.69449978 473.85205475 -33.32373047 472.17700195 C-37.49631966 473.81387798 -40.2879812 476.87031164 -43.37451172 479.99731445 C-43.95154343 480.57480438 -44.52857513 481.15229431 -45.12309265 481.74728394 C-46.34330709 482.97051562 -47.56109398 484.19617301 -48.77661133 485.42407227 C-50.61415807 487.27971222 -52.45941585 489.12738732 -54.30615234 490.97387695 C-62.35948657 499.05235992 -62.35948657 499.05235992 -69.88305664 507.62182617 C-72.75807053 510.72534057 -74.43529383 512.07745527 -78.78370667 512.56468201 C-80.18305287 512.58549654 -81.58270412 512.58980929 -82.98217773 512.58105469 C-84.13162369 512.59134956 -84.13162369 512.59134956 -85.30429077 512.60185242 C-87.83309538 512.62013 -90.36128034 512.6162826 -92.89013672 512.6105957 C-94.64843447 512.61515622 -96.40673044 512.62046141 -98.1650238 512.6264801 C-101.8478012 512.63541244 -105.53036173 512.63298575 -109.21313477 512.62304688 C-113.93691184 512.61154186 -118.65994309 512.63179117 -123.38362217 512.66096401 C-127.01328802 512.67928959 -130.6427738 512.67904113 -134.27247429 512.67332649 C-136.01443467 512.67317291 -137.75640698 512.6792476 -139.49832344 512.69161797 C-141.93092145 512.70646242 -144.36212404 512.69590162 -146.79467773 512.67871094 C-147.51631607 512.68837891 -148.23795441 512.69804688 -148.98146057 512.70800781 C-152.15689222 512.66091169 -153.88204891 512.58264423 -156.26727295 510.39204407 C-157.94225265 506.88016545 -157.80536696 503.28979658 -157.83544922 499.47387695 C-157.85340042 498.63608704 -157.87135162 497.79829712 -157.8898468 496.93511963 C-157.94392103 494.26579788 -157.97783579 491.59665465 -158.01123047 488.92700195 C-158.04440615 487.11447713 -158.07889604 485.30197585 -158.11474609 483.48950195 C-158.1996457 479.05213081 -158.26647044 474.61481235 -158.32373047 470.17700195 C-159.37431641 469.7902832 -160.42490234 469.40356445 -161.50732422 469.00512695 C-168.88735566 466.27275817 -176.18093006 463.49330214 -183.32373047 460.17700195 C-184.07058105 460.92908936 -184.81743164 461.68117676 -185.58691406 462.45605469 C-188.35375213 465.24096837 -191.12387837 468.02259129 -193.89501953 470.80322266 C-195.09481578 472.00805325 -196.29371373 473.21377907 -197.49169922 474.42041016 C-199.2120097 476.15282547 -200.93550591 477.88201465 -202.65966797 479.6105957 C-203.19618988 480.1522789 -203.73271179 480.6939621 -204.28549194 481.25205994 C-208.9476125 485.91488424 -208.9476125 485.91488424 -212.94873047 486.67700195 C-221.61000587 485.39385004 -229.17366293 474.4739584 -235.13232422 468.5012207 C-236.14968047 467.48453957 -237.167185 466.46800679 -238.18482971 465.45161438 C-240.30005705 463.33785022 -242.41349281 461.22231579 -244.52563477 459.10546875 C-247.23467619 456.39068675 -249.94824245 453.6804786 -252.66313076 450.97154522 C-254.75724292 448.88103876 -256.84897738 446.78816634 -258.93998909 444.6945591 C-259.94041603 443.69346518 -260.94158606 442.6931133 -261.94351006 441.69351768 C-263.33625639 440.3033027 -264.72546877 438.90955 -266.11450195 437.515625 C-267.30075417 436.3281794 -267.30075417 436.3281794 -268.51097107 435.116745 C-270.64513785 432.83308001 -271.23889174 431.62240529 -271.82373047 428.55200195 C-270.58122507 420.16509051 -260.17729743 412.91081882 -254.38623047 407.17700195 C-253.51160156 406.30688477 -252.63697266 405.43676758 -251.73583984 404.5402832 C-249.60075597 402.41686646 -247.46335841 400.29583818 -245.32373047 398.17700195 C-245.55560059 397.63285645 -245.7874707 397.08871094 -246.02636719 396.52807617 C-247.08622494 394.03706617 -248.14250275 391.54455319 -249.19873047 389.05200195 C-249.56353516 388.19606445 -249.92833984 387.34012695 -250.30419922 386.45825195 C-250.65869141 385.62036133 -251.01318359 384.7824707 -251.37841797 383.91918945 C-251.70310059 383.15461426 -252.0277832 382.39003906 -252.36230469 381.60229492 C-253.4623942 378.82720879 -254.40146061 376.01558349 -255.32373047 373.17700195 C-256.45391602 373.16241943 -257.58410156 373.14783691 -258.74853516 373.1328125 C-262.94579546 373.07479511 -267.1425212 372.99756259 -271.33935547 372.91455078 C-273.15502235 372.88131759 -274.97079215 372.85328061 -276.78662109 372.83056641 C-279.39839489 372.79699054 -282.00922701 372.74467433 -284.62060547 372.6887207 C-285.43116394 372.68233078 -286.24172241 372.67594086 -287.07684326 372.6693573 C-290.1457676 372.58947846 -292.74175606 372.45611512 -295.5348053 371.11657715 C-298.17054419 368.25887585 -297.9064041 365.408516 -297.88891602 361.71142578 C-297.90074417 360.95330597 -297.91257233 360.19518616 -297.92475891 359.41409302 C-297.95769654 356.90377972 -297.96060268 354.39454855 -297.96044922 351.8840332 C-297.97076426 350.13628191 -297.98182738 348.38853489 -297.99360657 346.64079285 C-298.01305884 342.97298048 -298.01645487 339.30554946 -298.01000977 335.63769531 C-298.00402855 330.9508567 -298.04814475 326.26600911 -298.10589886 321.57957935 C-298.14299307 317.96681116 -298.14779345 314.35451762 -298.14362526 310.74158287 C-298.14648857 309.01487441 -298.16049501 307.28814548 -298.18610191 305.56162453 C-298.38754541 290.37724291 -298.38754541 290.37724291 -293.93286133 285.20776367 C-292.07701111 283.53488159 -292.07701111 283.53488159 -290.32373047 282.17700195 C-289.47552734 281.36875977 -288.62732422 280.56051758 -287.75341797 279.7277832 C-286.91037109 278.98915039 -286.06732422 278.25051758 -285.19873047 277.48950195 C-278.92544757 271.89198234 -273.00436721 265.94414383 -267.07373047 259.98950195 C-266.59208435 259.50599274 -266.11043823 259.02248352 -265.61419678 258.52432251 C-262.84732036 255.74523668 -260.08408216 252.96256764 -257.32373047 250.17700195 C-259.14634591 246.20530085 -261.76355465 243.54273372 -264.88623047 240.55200195 C-271.053359 234.59645216 -271.053359 234.59645216 -271.82373047 230.55200195 C-270.63881856 222.55384659 -261.02084775 215.73061549 -255.48266602 210.20654297 C-254.62654221 209.34866684 -253.7704184 208.49079071 -252.88835144 207.60691833 C-250.56412797 205.27907466 -248.23770408 202.95346035 -245.9100759 200.62902188 C-243.46717501 198.1886707 -241.02673508 195.74586035 -238.58589172 193.30345154 C-234.4950093 189.21075707 -230.40203869 185.12015987 -226.30786133 181.03076172 C-221.57353357 176.3018966 -216.84284837 171.5694104 -212.11399621 166.83507019 C-208.04520771 162.76174902 -203.97448055 158.69037296 -199.90211517 154.62062782 C-197.47319766 152.19326943 -195.0449613 149.76524002 -192.61847496 147.33545113 C-189.9211112 144.63467144 -187.21968696 141.93797654 -184.51782227 139.24169922 C-183.31080658 138.03164719 -183.31080658 138.03164719 -182.07940674 136.79714966 C-181.34632797 136.06689072 -180.61324921 135.33663177 -179.85795593 134.58424377 C-179.21994899 133.94661386 -178.58194204 133.30898394 -177.92460155 132.6520319 C-175.48314574 130.40249383 -174.34772014 130.17922322 -170.94873047 129.86450195 C-167.32373047 130.17700195 -167.32373047 130.17700195 -164.88623047 131.73950195 C-162.62213089 135.2714973 -162.56498976 137.0384163 -163.32373047 141.17700195 C-164.66737366 143.03503418 -164.66737366 143.03503418 -166.41381836 144.95239258 C-167.04949738 145.65178955 -167.68517639 146.35118652 -168.34011841 147.07177734 C-171.36183405 150.27875025 -174.4412045 153.41817336 -177.56982422 156.52075195 C-178.22580093 157.17531372 -178.88177765 157.82987549 -179.55763245 158.50427246 C-181.62313192 160.56424019 -183.69210642 162.62067562 -185.76123047 164.67700195 C-187.17487481 166.08562245 -188.58828833 167.49447462 -190.00146484 168.90356445 C-193.43956196 172.33072328 -196.88077703 175.75472214 -200.32373047 179.17700195 C-198.93025671 182.32905177 -197.29887967 184.43871968 -194.84716797 186.84887695 C-194.17685547 187.51274414 -193.50654297 188.17661133 -192.81591797 188.8605957 C-192.11724609 189.54250977 -191.41857422 190.22442383 -190.69873047 190.92700195 C-189.99232422 191.62438477 -189.28591797 192.32176758 -188.55810547 193.0402832 C-186.81774343 194.75712683 -185.07288066 196.46912028 -183.32373047 198.17700195 C-182.74929199 197.93989502 -182.17485352 197.70278809 -181.58300781 197.45849609 C-178.95751567 196.37904481 -176.32820571 195.30921198 -173.69873047 194.23950195 C-172.79509766 193.86631836 -171.89146484 193.49313477 -170.96044922 193.10864258 C-170.07744141 192.75092773 -169.19443359 192.39321289 -168.28466797 192.0246582 C-167.47819824 191.69473877 -166.67172852 191.36481934 -165.84082031 191.02490234 C-163.02124298 190.0751068 -160.26493354 189.59744077 -157.32373047 189.17700195 C-157.36038818 188.0374707 -157.3970459 186.89793945 -157.43481445 185.72387695 C-157.56218822 181.4676003 -157.64211618 177.21148943 -157.70825195 172.95385742 C-157.74330321 171.11665453 -157.79096073 169.27964479 -157.85180664 167.44311523 C-157.93741465 164.79142509 -157.97656866 162.14232898 -158.00732422 159.48950195 C-158.04345322 158.67771484 -158.07958221 157.86592773 -158.11680603 157.02954102 C-158.11990533 152.456041 -157.46231725 149.86538334 -154.33435059 146.46386719 C-153.69799148 145.76948044 -153.06163237 145.07509369 -152.40598965 144.35966492 C-148.77479071 140.55337437 -145.08716935 136.81030762 -141.35913086 133.09887695 C-140.49004089 132.22964096 -139.62095093 131.36040497 -138.7255249 130.46482849 C-136.36624483 128.10612143 -134.00478417 125.74963993 -131.64228368 123.39416122 C-129.16477782 120.92295094 -126.69014606 118.44886582 -124.2151947 115.97509766 C-119.53898638 111.30198448 -114.86023721 106.63142399 -110.18054622 101.96179867 C-104.84838428 96.64085455 -99.51909696 91.31703522 -94.19003689 85.99298477 C-83.23777366 75.05114476 -72.28194596 64.11288099 -61.32373047 53.17700195 C-62.97373047 51.19700195 -64.62373047 49.21700195 -66.32373047 47.17700195 C-69.20330827 48.48221181 -71.26157816 49.86755263 -73.48672485 52.10621643 C-74.08673813 52.70492554 -74.6867514 53.30363464 -75.3049469 53.92048645 C-75.95132614 54.57562729 -76.59770538 55.23076813 -77.26367188 55.90576172 C-77.95354691 56.59695099 -78.64342194 57.28814026 -79.35420227 58.00027466 C-81.63252993 60.28509152 -83.90380348 62.57679472 -86.17529297 64.8684082 C-87.75611355 66.45549858 -89.33744997 68.0420753 -90.91928101 69.62815857 C-95.08201654 73.8041996 -99.23914932 77.9857702 -103.39471436 82.16894531 C-110.05251531 88.86986406 -116.71705009 95.56406923 -123.38480759 102.25507927 C-125.71714642 104.59767089 -128.04605937 106.94362972 -130.37466431 109.28993225 C-131.79718778 110.719281 -133.21981976 112.14852177 -134.64257812 113.57763672 C-135.61821968 114.56338432 -135.61821968 114.56338432 -136.61357117 115.56904602 C-137.20794479 116.1649353 -137.80231842 116.76082458 -138.41470337 117.37477112 C-138.93124292 117.8948301 -139.44778248 118.41488909 -139.97997475 118.95070744 C-142.03428514 120.82544518 -143.34981554 121.18047996 -146.13623047 121.55200195 C-149.32373047 121.17700195 -149.32373047 121.17700195 -152.19873047 119.05200195 C-154.32373047 116.17700195 -154.32373047 116.17700195 -155.07373047 113.36450195 C-153.30572359 105.85047274 -145.02609809 99.73388315 -139.67602539 94.39990234 C-138.946698 93.66882263 -138.21737061 92.93774292 -137.46594238 92.18450928 C-135.08118496 89.79538948 -132.69283518 87.40989976 -130.30419922 85.0246582 C-128.63733048 83.35711525 -126.97061016 81.68942392 -125.30403137 80.02159119 C-121.82499661 76.54108745 -118.3441726 73.06238587 -114.86206055 69.58496094 C-110.39179976 65.12042366 -105.92607905 60.65137617 -101.46166515 56.18099308 C-98.02778779 52.74351117 -94.59154344 49.30840339 -91.15456581 45.87402153 C-89.50593916 44.22606306 -87.85805807 42.57735839 -86.21092796 40.92790413 C-83.9178447 38.63229326 -81.62160128 36.3398919 -79.32446289 34.04833984 C-78.64134537 33.36319809 -77.95822784 32.67805634 -77.25440979 31.97215271 C-76.63071503 31.35127777 -76.00702026 30.73040283 -75.36442566 30.0907135 C-74.82228518 29.54895005 -74.28014471 29.0071866 -73.72157574 28.44900608 C-71.74399778 26.64945975 -70.34059356 26.18021397 -67.69873047 25.67700195 C-62.55000852 26.43977558 -59.92509223 29.5963774 -56.32373047 33.17700195 C-55.64181641 33.84473633 -54.95990234 34.5124707 -54.25732422 35.20043945 C-52.59656337 36.84442494 -50.95671933 38.50556602 -49.32373047 40.17700195 C-44.11008838 35.82250517 -39.26409556 31.23815542 -34.49169922 26.4074707 C-33.77387772 25.68586258 -33.05605621 24.96425446 -32.31648254 24.22077942 C-30.04560675 21.93778017 -27.77802615 19.65155195 -25.51123047 17.36450195 C-22.50756833 14.33431183 -19.50065379 11.30740447 -16.49169922 8.2824707 C-15.80214645 7.5846196 -15.11259369 6.88676849 -14.40214539 6.16777039 C-13.76420547 5.52652725 -13.12626556 4.88528412 -12.46899414 4.22460938 C-11.90830734 3.65868576 -11.34762054 3.09276215 -10.76994324 2.50968933 C-7.54926161 -0.45817393 -4.13629819 0.01553621 0 0 Z M-61.68068314 73.02013552 C-69.09189675 80.96861688 -76.64894582 88.77219823 -84.21775436 96.5702666 C-95.95493299 108.66980976 -107.61332629 120.84069637 -119.15185547 133.12988281 C-119.73234776 133.74668915 -120.31284004 134.36349548 -120.910923 134.99899292 C-122.51401447 136.70376695 -124.11347339 138.41185442 -125.71142578 140.1214447 C-126.60774719 141.07918761 -127.5040686 142.03693052 -128.42755127 143.02369595 C-130.43387668 144.82388679 -130.43387668 144.82388679 -130.32373047 146.17700195 C-114.95641463 150.93664972 -97.37837333 153.17165424 -82.32373047 146.17700195 C-58.60588911 132.57137179 -39.37546237 108.10362217 -20.9667778 88.33386838 C-13.55556419 80.38538702 -5.99851511 72.58180567 1.57029343 64.7837373 C13.30747205 52.68419415 24.96586536 40.51330754 36.50439453 28.22412109 C37.37513296 27.29891159 37.37513296 27.29891159 38.26346207 26.35501099 C39.86655353 24.65023695 41.46601246 22.94214949 43.06396484 21.2325592 C44.40844696 19.79594484 44.40844696 19.79594484 45.78009033 18.33030796 C47.78641575 16.53011712 47.78641575 16.53011712 47.67626953 15.17700195 C-2.51102167 -0.36727596 -30.86788657 39.92915615 -61.68068314 73.02013552 Z M52.65867615 32.95321655 C52.13104347 33.46729462 51.60341079 33.98137269 51.05978924 34.51102889 C49.27760454 36.24912514 47.49921355 37.99104984 45.72094727 39.7331543 C44.44997401 40.97496503 43.17890447 42.21667723 41.90774536 43.45829773 C30.27518136 54.83059109 18.69797654 66.25931379 7.1356039 77.7029171 C-0.63920424 85.39603547 -8.43002782 93.07135501 -16.26391602 100.7043457 C-23.09637604 107.36160966 -29.89628847 114.05017483 -36.65914959 120.77815783 C-40.23853799 124.3370036 -43.83167747 127.87873925 -47.46402168 131.38358688 C-50.88818345 134.68871306 -54.26671587 138.03458371 -57.61623764 141.41527748 C-58.84704731 142.64275461 -60.09316365 143.85511941 -61.35576057 145.04987526 C-67.65641899 151.02887142 -71.85372888 155.5594605 -72.11929888 164.55594027 C-72.03816355 168.13334212 -71.75199902 171.62383799 -71.32373047 175.17700195 C-64.62021809 169.63375516 -58.45067952 163.56799708 -52.23803711 157.49047852 C-51.02526012 156.30692726 -49.8124186 155.12344211 -48.59951782 153.9400177 C-37.57102965 143.17018472 -26.59646653 132.34540981 -15.6371851 121.50520706 C-8.27989818 114.22972799 -0.906478 106.97225834 6.50952148 99.7565918 C12.99704554 93.44428816 19.45196273 87.10068903 25.86990839 80.71762633 C29.26144242 77.34661004 32.66655849 73.99272718 36.11112785 70.67584991 C39.353211 67.55283528 42.5494892 64.38918017 45.71694565 61.19055748 C46.88003892 60.03079422 48.05842185 58.8861134 49.25330162 57.75912666 C55.40141831 51.94295504 59.18389974 47.58341046 59.42834431 38.84155726 C59.35156731 35.25385107 59.07997746 31.74325764 58.67626953 28.17700195 C56.45529119 28.17700195 54.22434566 31.41693064 52.65867615 32.95321655 Z M128.27842426 47.34551144 C127.73628379 47.89728841 127.19414331 48.44906538 126.63557434 49.01756287 C126.01187958 49.64717926 125.38818481 50.27679565 124.74559021 50.92549133 C124.06247269 51.62522568 123.37935516 52.32496002 122.67553711 53.04589844 C121.59468842 54.14076569 121.59468842 54.14076569 120.49200439 55.25775146 C118.92229923 56.84851348 117.35474984 58.44140488 115.78907204 60.03613091 C113.31046188 62.55861763 110.82412215 65.07322503 108.33512878 67.58546448 C101.2570589 74.73088094 94.18696008 81.88402105 87.13793945 89.05810547 C82.83023652 93.4411043 78.50803931 97.80935048 74.1761837 102.1684742 C72.52681545 103.83396027 70.88302117 105.50498548 69.24494362 107.18157768 C66.95157446 109.52789957 64.64024233 111.85502297 62.32397461 114.17871094 C61.31448006 115.22527611 61.31448006 115.22527611 60.28459167 116.29298401 C57.1222995 119.42871195 55.2567832 121.01429604 50.88578796 122.23939514 C47.67626953 122.17700195 47.67626953 122.17700195 44.67626953 120.17700195 C42.65180696 117.1403081 42.13326334 115.82188994 42.78585815 112.2628479 C44.92759364 107.24569471 49.52629767 103.65936446 53.39892578 99.9387207 C54.38543603 98.96849648 55.3704774 97.99677666 56.35411072 97.02363586 C58.93726483 94.47460601 61.53705149 91.94327797 64.1416626 89.41619873 C68.31810697 85.35850219 72.46908744 81.2747882 76.61919975 77.19019508 C78.07195886 75.76540906 79.53204634 74.34848006 80.99342346 72.93254089 C81.87110886 72.07437271 82.74879425 71.21620453 83.65307617 70.33203125 C84.43171524 69.57593063 85.21035431 68.81983002 86.0125885 68.04081726 C87.89824214 66.34471489 87.89824214 66.34471489 87.67626953 64.17700195 C85.28636852 63.1398751 82.89100079 62.12232176 80.48876953 61.11450195 C79.81523437 60.81995117 79.14169922 60.52540039 78.44775391 60.22192383 C74.3523582 58.52383293 71.88441914 57.73670226 67.67626953 59.17700195 C65.6594348 60.82080934 63.90864161 62.42109341 62.10173035 64.27052307 C61.56251286 64.80632286 61.02329538 65.34212264 60.46773797 65.89415878 C58.66326709 67.69204085 56.87346494 69.50384664 55.08325195 71.31591797 C53.79274968 72.60754849 52.50136604 73.89829893 51.20916748 75.18823242 C47.70262805 78.69362294 44.20856887 82.2112207 40.71658874 85.731107 C37.06554767 89.40713183 33.40319644 93.07185257 29.74201965 96.73777771 C22.81032066 103.68191533 15.88888218 110.6361876 8.97105438 117.59414095 C1.09506087 125.51482442 -6.79227669 133.42416982 -14.68059695 141.33257401 C-30.90764656 157.60144804 -47.12036776 173.8845387 -63.32373047 190.17700195 C-60.28824306 193.50506646 -56.77404631 194.79978168 -52.63623047 196.36450195 C-51.93433594 196.63713867 -51.23244141 196.90977539 -50.50927734 197.19067383 C-48.78348812 197.8598574 -47.05396088 198.5193867 -45.32373047 199.17700195 C-44.51686295 198.35014893 -43.70999542 197.5232959 -42.87867737 196.67138672 C-35.26754583 188.87772031 -27.63269072 181.1079972 -19.97404575 173.36100769 C-16.03747594 169.37749142 -12.10970333 165.38605174 -8.20092773 161.37524414 C-4.42756667 157.50401155 -0.63256483 153.65525955 3.17836189 149.8210144 C4.62753632 148.35522509 6.06877251 146.88154294 7.50176811 145.39993286 C9.51263005 143.32361681 11.55005372 141.2773209 13.59594727 139.2355957 C14.18073853 138.61844696 14.76552979 138.00129822 15.36804199 137.365448 C18.64413872 134.16074701 20.82552261 132.79369053 25.48597717 132.66552734 C28.78964079 132.79831628 29.37164738 132.87237981 31.80126953 135.30200195 C32.92001338 138.9778746 32.82967474 140.47537594 31.67626953 144.17700195 C29.35398986 147.19092165 26.65513676 149.77915818 23.92236328 152.41918945 C23.14691666 153.18756134 22.37147003 153.95593323 21.57252502 154.74758911 C19.09777605 157.19439302 16.60619841 159.62322285 14.11376953 162.05200195 C12.4309892 163.70969997 10.74933447 165.36854144 9.06884766 167.02856445 C4.95094802 171.0913929 0.81910076 175.13960757 -3.32373047 179.17700195 C-1.93292522 182.3143835 -0.31350843 184.43175477 2.11621094 186.84399414 C2.81678619 187.54441833 3.51736145 188.24484253 4.23916626 188.9664917 C4.99442596 189.71142883 5.74968567 190.45636597 6.52783203 191.22387695 C7.68887955 192.38067963 7.68887955 192.38067963 8.87338257 193.56085205 C11.34468877 196.02097051 13.82286136 198.47404043 16.30126953 200.92700195 C17.97881006 202.59451089 19.65589898 204.26247427 21.33251953 205.9309082 C25.44187873 210.01822565 29.55689601 214.09977891 33.67626953 218.17700195 C37.58513323 216.58872752 40.21609276 213.91177728 43.1305542 210.96322632 C43.93809879 210.15824501 43.93809879 210.15824501 44.76195741 209.33700144 C46.56467929 207.53757378 48.36015988 205.7310911 50.15576172 203.92456055 C51.44654612 202.63321202 52.73777105 201.34230369 54.02940369 200.05180359 C57.53561382 196.54616791 61.03561793 193.03439445 64.53455639 189.52150297 C68.19184865 185.85171881 71.85479525 182.18758747 75.51715088 178.52285767 C82.45193688 171.58185238 89.38160832 164.63576401 96.30946565 157.68784392 C104.19663832 149.77832625 112.08948228 141.87447837 119.9828124 133.97110629 C136.22029196 117.71271457 152.45062125 101.44720053 168.67626953 85.17700195 C167.19725524 82.08567373 165.69617296 79.9444366 163.26806641 77.51000977 C162.2268866 76.45937347 162.2268866 76.45937347 161.16467285 75.38751221 C160.04119446 74.27010651 160.04119446 74.27010651 158.89501953 73.13012695 C158.1257312 72.35892517 157.35644287 71.58772339 156.56384277 70.79315186 C154.93890126 69.16685066 153.31143654 67.5430672 151.68164062 65.92163086 C149.17881778 63.42953928 146.68686391 60.92693603 144.19580078 58.4230957 C142.61701485 56.84563083 141.03760892 55.26878619 139.45751953 53.69262695 C138.33404114 52.56307587 138.33404114 52.56307587 137.18786621 51.41070557 C136.1466864 50.37898224 136.1466864 50.37898224 135.08447266 49.32641602 C134.47317505 48.71670959 133.86187744 48.10700317 133.23205566 47.4788208 C131.19805443 45.77685092 130.34041836 45.62181589 128.27842426 47.34551144 Z M144.93708265 130.65802622 C144.42541221 131.17552234 143.91374177 131.69301847 143.38656616 132.22619629 C142.84174485 132.76930875 142.29692353 133.31242122 141.73559248 133.87199163 C139.89901166 135.70526069 138.06970096 137.5456197 136.24023438 139.38598633 C134.9300406 140.69674385 133.61940706 142.00706191 132.30836487 143.31697083 C128.74005438 146.88470538 125.17796173 150.45859111 121.61691236 154.03357124 C117.89820312 157.76474794 114.17386309 161.49029523 110.45010376 165.21643066 C103.39484064 172.27792031 96.34469298 179.3444946 89.29634631 186.4128871 C81.27378208 194.45777392 73.24556616 202.4970105 65.21685863 210.53576565 C48.69700981 227.076543 32.18451131 243.62464109 15.67626953 260.17700195 C17.98626953 265.78700195 20.29626953 271.39700195 22.67626953 277.17700195 C26.25775736 277.17700195 27.0248679 276.19470181 29.49685359 273.78095859 C29.99851141 273.2760192 30.50016923 272.77107982 31.01702881 272.25083923 C31.82435011 271.45582964 31.82435011 271.45582964 32.64798093 270.64475924 C34.45860311 268.85790577 36.25825236 267.06039114 38.05810547 265.26269531 C39.35020815 263.98283675 40.64291163 262.70358449 41.93617249 261.42489624 C45.45374296 257.94245896 48.96129419 254.4500968 52.46609402 250.95481181 C54.65449494 248.77297685 56.84477092 246.59304219 59.03568268 244.41372871 C66.67432281 236.81485344 74.30404314 229.20713416 81.92675781 221.59228516 C89.03948675 214.48742999 96.1726322 207.40353031 103.31531119 200.32879728 C109.44071095 194.25964694 115.55069419 188.1752597 121.6490519 182.07893854 C125.29428073 178.43555387 128.94568153 174.79890911 132.61302948 171.17777824 C136.06163697 167.77171224 139.49073415 164.34716089 142.90566826 160.90734482 C144.16333852 159.64708113 145.427898 158.39365016 146.69967079 157.14761925 C148.43334496 155.44695212 150.14062262 153.72352758 151.84344482 151.99205017 C152.35402553 151.50272583 152.86460624 151.0134015 153.39065909 150.50924915 C154.98280534 148.94142437 154.98280534 148.94142437 156.67626953 146.17700195 C156.50864283 141.21324176 155.09576883 137.26252601 153.11376953 132.73950195 C152.65873047 131.68891602 152.20369141 130.63833008 151.73486328 129.5559082 C151.38552734 128.77086914 151.03619141 127.98583008 150.67626953 127.17700195 C147.83254229 127.17700195 146.86827759 128.74328888 144.93708265 130.65802622 Z M154.79101562 168.00292969 C153.52130254 169.27608998 152.24760415 170.54528611 150.97029114 171.81082153 C147.53943155 175.23230698 144.16667739 178.70618591 140.80232573 182.19292331 C137.26728328 185.83733774 133.6810498 189.43068201 130.10025024 193.03004456 C123.33837115 199.84256013 116.62406097 206.70002417 109.92557204 213.57481486 C102.29439967 221.40182669 94.60838034 229.17403157 86.91871142 236.94350898 C75.60559866 248.37771845 64.3121354 259.83135902 53.07277489 271.33810806 C51.85449142 272.58500154 50.63539405 273.83110035 49.41544914 275.07636833 C47.75860179 276.76827191 46.10502275 278.46329774 44.45248413 280.15940857 C43.96282996 280.65842806 43.47317578 281.15744755 42.9686836 281.67158884 C40.66675544 283.60223946 40.66675544 283.60223946 39.67626953 286.17700195 C50.9578119 287.68102688 50.9578119 287.68102688 61.39751053 284.11895943 C65.10395981 281.18558224 68.3189769 277.77774023 71.56152344 274.35107422 C72.83123652 273.07791393 74.10493492 271.8087178 75.38224792 270.54318237 C78.81310751 267.12169692 82.18586167 263.64781799 85.55021334 260.1610806 C89.08525578 256.51666617 92.67148927 252.9233219 96.25228882 249.32395935 C103.01416791 242.51144377 109.7284781 235.65397974 116.42696702 228.77918905 C124.05813939 220.95217722 131.74415872 213.17997233 139.43382764 205.41049492 C150.7469404 193.97628546 162.04040366 182.52264489 173.27976418 171.01589584 C174.49804764 169.76900237 175.71714501 168.52290356 176.93708992 167.27763557 C178.59393727 165.585732 180.24751631 163.89070616 181.90005493 162.19459534 C182.38970911 161.69557585 182.87936328 161.19655636 183.38385546 160.68241507 C185.68578363 158.75176444 185.68578363 158.75176444 186.67626953 156.17700195 C171.69083516 154.37078351 165.00169979 157.2124587 154.79101562 168.00292969 Z M-141.32373047 162.17700195 C-141.53352996 173.14097321 -141.53352996 173.14097321 -141.71166992 184.10546875 C-141.74397717 185.48741319 -141.77735334 186.86933323 -141.81201172 188.2512207 C-141.81825562 188.95976196 -141.82449951 189.66830322 -141.83093262 190.39831543 C-141.95801357 194.7937759 -142.51730163 197.73809368 -145.32373047 201.17700195 C-147.24633789 202.26025391 -147.24633789 202.26025391 -149.42919922 202.9152832 C-150.24042236 203.1743042 -151.05164551 203.4333252 -151.88745117 203.70019531 C-152.75329834 203.9606665 -153.61914551 204.2211377 -154.51123047 204.48950195 C-162.10159634 206.9261448 -169.09019077 209.75934347 -176.03344727 213.68798828 C-180.38047921 216.05413882 -183.40802511 216.74498208 -188.32373047 216.17700195 C-190.64403671 214.47177812 -192.33010422 212.99665768 -194.25732422 210.92700195 C-194.78012466 210.39429688 -195.30292511 209.8615918 -195.84156799 209.31274414 C-197.49868399 207.61661252 -199.12973692 205.89775727 -200.76123047 204.17700195 C-201.8839411 203.01916108 -203.00827465 201.86289154 -204.13427734 200.70825195 C-206.8832223 197.8823532 -209.6090555 195.03582176 -212.32373047 192.17700195 C-215.46111201 193.5678072 -217.57848328 195.18722399 -219.99072266 197.61694336 C-221.04135895 198.66780624 -221.04135895 198.66780624 -222.11322021 199.73989868 C-223.23062592 200.87278824 -223.23062592 200.87278824 -224.37060547 202.02856445 C-225.52740814 203.18961197 -225.52740814 203.18961197 -226.70758057 204.37411499 C-229.16769902 206.84542119 -231.62076895 209.32359378 -234.07373047 211.80200195 C-235.7412394 213.47954248 -237.40920279 215.1566314 -239.07763672 216.83325195 C-243.16495417 220.94261115 -247.24650743 225.05762843 -251.32373047 229.17700195 C-249.60172286 232.87036326 -247.54835545 235.10471321 -244.56982422 237.9152832 C-243.16506836 239.26976562 -243.16506836 239.26976562 -241.73193359 240.65161133 C-240.24812783 242.07358163 -238.76031489 243.4903609 -237.26147461 244.89648438 C-235.80918118 246.26364419 -234.37673683 247.65179179 -232.94482422 249.0402832 C-232.08300537 249.85795166 -231.22118652 250.67562012 -230.33325195 251.51806641 C-227.83380632 254.82525416 -227.45213113 257.06292808 -227.32373047 261.17700195 C-227.94116211 263.43017578 -227.94116211 263.43017578 -228.98388672 265.3840332 C-229.36262939 266.12717773 -229.74137207 266.87032227 -230.1315918 267.63598633 C-230.54562256 268.41264648 -230.95965332 269.18930664 -231.38623047 269.98950195 C-235.11005818 277.3228452 -238.03049055 284.56792678 -240.29467773 292.47705078 C-241.57035863 296.72204744 -242.38405298 299.05417563 -246.32373047 301.17700195 C-249.14555635 301.50159624 -251.76476531 301.66541798 -254.58935547 301.6887207 C-255.29302246 301.70535767 -255.99668945 301.72199463 -256.72167969 301.73913574 C-259.33872899 301.79676945 -261.9562854 301.82914654 -264.57373047 301.86450195 C-270.43123047 301.96762695 -276.28873047 302.07075195 -282.32373047 302.17700195 C-282.32373047 319.99700195 -282.32373047 337.81700195 -282.32373047 356.17700195 C-271.35971361 356.42629505 -271.35971361 356.42629505 -260.39526367 356.6550293 C-259.01332728 356.690259 -257.63140834 356.72618287 -256.24951172 356.76293945 C-255.18669983 356.77997925 -255.18669983 356.77997925 -254.10241699 356.79736328 C-250.11402907 356.91337386 -246.87214064 357.2909965 -243.32373047 359.17700195 C-242.17138672 361.2512207 -242.17138672 361.2512207 -241.38623047 363.86450195 C-239.87289276 368.50783532 -238.2570545 373.07804291 -236.44873047 377.61450195 C-236.19865234 378.24960693 -235.94857422 378.88471191 -235.69091797 379.5390625 C-233.61462064 384.70675049 -231.09882888 389.56179269 -228.32763672 394.39575195 C-226.97816677 398.13436132 -227.39867617 400.31954086 -228.32373047 404.17700195 C-229.99373412 406.35828731 -231.48015635 408.04203822 -233.45263672 409.8918457 C-233.9617308 410.3924501 -234.47082489 410.8930545 -234.99534607 411.40882874 C-236.61202113 412.99212812 -238.24833706 414.55319289 -239.88623047 416.11450195 C-240.99111592 417.18926741 -242.09464739 418.26542666 -243.19677734 419.34301758 C-245.89036377 421.97073099 -248.60176046 424.57871461 -251.32373047 427.17700195 C-249.93292522 430.3143835 -248.31350843 432.43175477 -245.88378906 434.84399414 C-244.83292618 435.89463043 -244.83292618 435.89463043 -243.76083374 436.9664917 C-243.00557404 437.71142883 -242.25031433 438.45636597 -241.47216797 439.22387695 C-240.31112045 440.38067963 -240.31112045 440.38067963 -239.12661743 441.56085205 C-236.65531123 444.02097051 -234.17713864 446.47404043 -231.69873047 448.92700195 C-230.02118994 450.59451089 -228.34410102 452.26247427 -226.66748047 453.9309082 C-222.55812127 458.01822565 -218.44310399 462.09977891 -214.32373047 466.17700195 C-210.63036916 464.45499435 -208.39601921 462.40162693 -205.58544922 459.4230957 C-204.68246094 458.4865918 -203.77947266 457.55008789 -202.84912109 456.58520508 C-201.4271508 455.10139932 -200.01037152 453.61358637 -198.60424805 452.11474609 C-197.23708824 450.66245267 -195.84894064 449.23000832 -194.46044922 447.7980957 C-193.64278076 446.93627686 -192.8251123 446.07445801 -191.98266602 445.18652344 C-188.66334527 442.67790816 -186.45677557 442.28586561 -182.32373047 442.17700195 C-179.83935547 442.90209961 -179.83935547 442.90209961 -177.57373047 444.09106445 C-176.30021729 444.73495117 -176.30021729 444.73495117 -175.00097656 445.3918457 C-174.11748535 445.85719727 -173.23399414 446.32254883 -172.32373047 446.80200195 C-164.71828605 450.63475092 -157.31162612 453.79211496 -149.15966797 456.23950195 C-146.32373047 457.17700195 -146.32373047 457.17700195 -143.32373047 459.17700195 C-141.81089132 462.883043 -142.09856233 467.05311155 -142.00732422 471.00512695 C-141.9886731 471.66947754 -141.97002197 472.33382813 -141.95080566 473.01831055 C-141.88277365 475.48774575 -141.82245582 477.95738862 -141.76123047 480.42700195 C-141.54466797 488.71825195 -141.54466797 488.71825195 -141.32373047 497.17700195 C-123.50373047 497.17700195 -105.68373047 497.17700195 -87.32373047 497.17700195 C-87.11382647 485.50976937 -87.11382647 485.50976937 -86.93579102 473.84204102 C-86.90349523 472.37554385 -86.87012067 470.90906987 -86.83544922 469.44262695 C-86.82920532 468.68578613 -86.82296143 467.92894531 -86.81652832 467.14916992 C-86.72959046 463.96460969 -86.53894821 461.57641687 -85.0144043 458.74707031 C-82.27253128 456.20079084 -78.8421085 455.49672683 -75.32373047 454.48950195 C-67.38019034 452.07176154 -60.1089229 448.89040096 -52.78271484 444.98486328 C-52.03957031 444.60612061 -51.29642578 444.22737793 -50.53076172 443.8371582 C-49.88598877 443.49305908 -49.24121582 443.14895996 -48.5769043 442.79443359 C-45.14333029 441.85353982 -42.75843645 442.29371185 -39.32373047 443.17700195 C-37.14244511 444.84700561 -35.4586942 446.33342783 -33.60888672 448.3059082 C-33.10828232 448.81500229 -32.60767792 449.32409637 -32.09190369 449.84861755 C-30.50860431 451.46529261 -28.94753953 453.10160855 -27.38623047 454.73950195 C-26.31146501 455.8443874 -25.23530577 456.94791887 -24.15771484 458.05004883 C-21.53000144 460.74363525 -18.92201781 463.45503195 -16.32373047 466.17700195 C-13.18634893 464.7861967 -11.06897766 463.16677992 -8.65673828 460.73706055 C-7.95631409 460.03648529 -7.25588989 459.33591003 -6.53424072 458.61410522 C-5.78930359 457.85884552 -5.04436646 457.10358582 -4.27685547 456.32543945 C-3.50565369 455.55140778 -2.7344519 454.7773761 -1.93988037 453.97988892 C0.52023809 451.50858272 2.97330801 449.03041013 5.42626953 446.55200195 C7.09377847 444.87446143 8.76174185 443.19737251 10.43017578 441.52075195 C14.51749323 437.41139276 18.59904649 433.29637548 22.67626953 429.17700195 C20.91223434 425.37565548 18.7371079 423.1033087 15.66845703 420.2199707 C14.67163485 419.26304664 13.67556363 418.30533979 12.68017578 417.34692383 C11.11628757 415.85108416 9.54790448 414.36136127 7.96582031 412.88476562 C6.43385773 411.44995305 4.9252566 409.99362728 3.41845703 408.5324707 C2.50950684 407.67290771 1.60055664 406.81334473 0.6640625 405.92773438 C-1.87193152 402.41839458 -1.81347039 400.42080208 -1.32373047 396.17700195 C-0.22748724 393.63998191 0.88777617 391.37716841 2.23876953 388.98950195 C6.10105889 381.82209185 8.8089517 374.53296073 11.15307617 366.74072266 C11.41209717 365.92949951 11.67111816 365.11827637 11.93798828 364.2824707 C12.15414795 363.56212646 12.37030762 362.84178223 12.59301758 362.09960938 C14.1758928 359.29024666 15.73277189 358.47747824 18.67626953 357.17700195 C21.38793886 356.85915389 23.88977827 356.68918463 26.60205078 356.6652832 C27.26539429 356.64864624 27.92873779 356.63200928 28.61218262 356.61486816 C31.07072825 356.55739202 33.52980688 356.52489672 35.98876953 356.48950195 C41.49564453 356.38637695 47.00251953 356.28325195 52.67626953 356.17700195 C52.67626953 338.35700195 52.67626953 320.53700195 52.67626953 302.17700195 C41.33801139 301.88805826 41.33801139 301.88805826 29.99951172 301.60888672 C28.5740465 301.57074692 27.14859008 301.53227636 25.72314453 301.4934082 C24.98789551 301.47693237 24.25264648 301.46045654 23.49511719 301.44348145 C20.10093105 301.34701632 16.92564105 301.21932318 13.67626953 300.17700195 C13.52931641 299.55696289 13.38236328 298.93692383 13.23095703 298.2980957 C10.2447967 286.50791093 5.65719667 275.48867793 -0.22216797 264.8605957 C-1.60806295 261.48431963 -2.01299473 259.79787721 -1.32373047 256.17700195 C0.6998046 253.20607918 3.14929683 250.72317569 5.67626953 248.17700195 C6.75110596 247.07291992 6.75110596 247.07291992 7.84765625 245.9465332 C10.08468525 243.670825 12.34472964 241.42076547 14.61376953 239.17700195 C15.39300781 238.40227539 16.17224609 237.62754883 16.97509766 236.8293457 C18.87319374 234.94289438 20.77360102 233.0588395 22.67626953 231.17700195 C21.28546428 228.03962041 19.6660475 225.92224914 17.23632812 223.51000977 C16.53575287 222.80958557 15.83517761 222.10916138 15.1133728 221.38751221 C14.3581131 220.64257507 13.60285339 219.89763794 12.82470703 219.13012695 C12.05067535 218.35892517 11.27664368 217.58772339 10.47915649 216.79315186 C8.0078503 214.3330334 5.52967771 211.87996347 3.05126953 209.42700195 C1.37372901 207.75949302 -0.30335992 206.09152963 -1.97998047 204.4230957 C-6.08933966 200.33577825 -10.20435694 196.25422499 -14.32373047 192.17700195 C-18.02394545 193.90682184 -20.3647912 196.00073091 -23.23779297 198.9309082 C-24.62611328 200.33566406 -24.62611328 200.33566406 -26.04248047 201.76879883 C-27.01158149 202.75868968 -27.9803276 203.7489281 -28.94873047 204.73950195 C-30.85438418 206.68151104 -32.76408678 208.61934383 -34.67529297 210.5559082 C-35.51914551 211.41772705 -36.36299805 212.2795459 -37.23242188 213.16748047 C-39.58135358 215.42454992 -40.62331811 216.07756744 -43.82763672 216.5324707 C-48.89041291 216.01770798 -52.77163782 213.78925715 -57.26123047 211.48950195 C-70.69166658 204.31495773 -70.69166658 204.31495773 -85.32373047 201.17700195 C-86.58851334 197.23412011 -86.5482792 193.22935294 -86.64013672 189.13012695 C-86.65878784 188.44611816 -86.67743896 187.76210937 -86.69665527 187.05737305 C-86.76470475 184.51404135 -86.8250115 181.97050723 -86.88623047 179.42700195 C-87.10279297 170.88825195 -87.10279297 170.88825195 -87.32373047 162.17700195 C-105.14373047 162.17700195 -122.96373047 162.17700195 -141.32373047 162.17700195 Z M193.62071228 171.78930664 C193.08899605 172.28630129 192.55727982 172.78329594 192.00945097 173.29535103 C190.21314844 174.97682774 188.42093252 176.66258477 186.62915039 178.34887695 C185.68955317 179.23108099 185.68955317 179.23108099 184.7309742 180.13110733 C172.28932102 191.81689226 159.9926508 203.65159677 147.74445248 215.53970337 C139.94768521 223.10145256 132.11237122 230.61213486 124.16333008 238.01391602 C84.56053658 270.95863168 84.56053658 270.95863168 64.3336916 315.61801147 C64.09210005 325.752835 65.68491564 335.51891749 68.67626953 345.17700195 C75.28476664 339.64292821 81.56611805 333.76668243 87.85375977 327.87475586 C88.4504138 327.31636395 89.04706783 326.75797203 89.66180229 326.18265915 C101.46909573 315.12530131 113.13648645 303.9247784 124.75396633 292.66842079 C132.13344504 285.52423928 139.5515323 278.43185103 147.08227539 271.44702148 C184.90914889 239.9008626 184.90914889 239.9008626 203.79076099 196.9640789 C204.02325392 186.78393386 202.49613848 176.93513586 199.67626953 167.17700195 C197.49713079 167.17700195 195.03246682 170.46809005 193.62071228 171.78930664 Z M-248.32373047 264.17700195 C-251.31761923 267.14624498 -254.30826592 270.11870341 -257.29589844 273.09423828 C-258.31355835 274.10685705 -259.33211226 275.11857818 -260.3515625 276.12939453 C-261.81337454 277.57913135 -263.27198289 279.03202403 -264.72998047 280.4855957 C-265.60976563 281.36014404 -266.48955078 282.23469238 -267.39599609 283.13574219 C-269.43816389 284.83023268 -269.43816389 284.83023268 -269.32373047 286.17700195 C-264.70373047 286.17700195 -260.08373047 286.17700195 -255.32373047 286.17700195 C-254.37509507 283.80541345 -253.42727293 281.4334959 -252.48388672 279.05981445 C-251.71618523 277.15219258 -250.93251539 275.25091248 -250.13232422 273.35668945 C-249.76236328 272.47239258 -249.39240234 271.5880957 -249.01123047 270.67700195 C-248.66447266 269.86231445 -248.31771484 269.04762695 -247.96044922 268.20825195 C-247.05359412 266.13871444 -247.05359412 266.13871444 -248.32373047 264.17700195 Z M-53.27905273 462.69018555 C-54.05821045 462.98231934 -54.83736816 463.27445312 -55.64013672 463.57543945 C-56.48640625 463.8899707 -57.33267578 464.20450195 -58.20458984 464.52856445 C-59.53200195 465.03516602 -59.53200195 465.03516602 -60.88623047 465.55200195 C-61.77503906 465.88200195 -62.66384766 466.21200195 -63.57958984 466.55200195 C-67.75527227 467.85327896 -67.75527227 467.85327896 -71.32373047 470.17700195 C-71.39644788 472.5301375 -71.40743915 474.88533864 -71.38623047 477.23950195 C-71.37720703 478.52985352 -71.36818359 479.82020508 -71.35888672 481.1496582 C-71.34728516 482.14868164 -71.33568359 483.14770508 -71.32373047 484.17700195 C-66.07198121 479.79257669 -61.19150574 475.16858103 -56.38623047 470.30200195 C-55.70238281 469.61364258 -55.01853516 468.9252832 -54.31396484 468.21606445 C-52.64821583 466.53866684 -50.98486827 464.85896405 -49.32373047 463.17700195 C-51.26461484 461.93171793 -51.26461484 461.93171793 -53.27905273 462.69018555 Z " fill="#000000" transform="translate(297.32373046875,-0.177001953125)"/>
<path d="M0 0 C1.14210937 0.350625 2.28421875 0.70125 3.4609375 1.0625 C17.82972376 6.07244 29.28887562 14.41563449 40 25 C40.72703125 25.65484375 41.4540625 26.3096875 42.203125 26.984375 C57.5914351 41.16100714 67.85877619 65.06153583 69.17700195 85.78222656 C69.87122663 118.16462707 62.40046801 143.7597241 40 168 C26.30013417 182.1113459 5.73770983 193.25136557 -13.9375 195.4375 C-17 195 -17 195 -19.375 193.375 C-21.38506043 190.43721938 -21.92733979 188.5603504 -22 185 C-20.93807718 182.17844474 -19.9836456 180.46379283 -17.1965332 179.1496582 C-14.87700904 178.39103365 -12.54762635 177.7457588 -10.1875 177.125 C2.27720963 173.51044704 13.07275814 168.53394476 23 160 C23.65097656 159.50371094 24.30195313 159.00742187 24.97265625 158.49609375 C39.62969175 146.86953875 49.67166553 126.34758149 52 108 C54.10084192 82.81288206 48.40098236 60.55969007 32 41 C19.03318385 26.03828905 -0.11596858 14.9754129 -20 13 C-44.92947315 11.27314143 -67.53613518 16.6082261 -86.84375 33.08203125 C-99.30762582 44.29725607 -107.09093069 58.0984657 -112 74 C-112.23589844 74.75539063 -112.47179687 75.51078125 -112.71484375 76.2890625 C-118.09977351 96.64959986 -114.43947513 119.15801229 -104.1875 137.3125 C-92.34472372 157.35989387 -75.54862397 170.32250998 -53.40234375 176.9296875 C-44.1641541 179.8358459 -44.1641541 179.8358459 -41 183 C-40.21751281 189.93060084 -40.21751281 189.93060084 -42.875 193.5625 C-50.54545665 197.09091006 -59.41851842 193.37654516 -66.93359375 190.6328125 C-79.98969999 185.55773155 -90.8011126 178.52753207 -101 169 C-101.73476562 168.35675781 -102.46953125 167.71351563 -103.2265625 167.05078125 C-122.19344799 149.63298401 -130.4386819 123.24878288 -132.1875 98.328125 C-132.95090721 69.89120628 -120.81265794 44.12431178 -101.6875 23.62890625 C-75.15451624 -2.32559676 -35.23828612 -10.95415585 0 0 Z " fill="#000000" transform="translate(214,233)"/>
</svg>
