<?xml version="1.0" encoding="UTF-8" standalone="no"?>
<!-- Created with Inkscape (http://www.inkscape.org/) -->

<svg
   width="48"
   height="48"
   viewBox="0 0 48 48"
   version="1.1"
   id="svg1"
   xml:space="preserve"
   xmlns="http://www.w3.org/2000/svg"
   xmlns:svg="http://www.w3.org/2000/svg"><defs
     id="defs1" /><path
     style="fill:#070707;stroke:none"
     d="M 17.790189,8.9079628 C 17.257265,8.7700248 16.048312,8.2600998 15.545936,8.5734542 15.195739,8.7918903 15.051384,9.424258 14.898289,9.784296 c -0.128324,0.301785 -0.389655,0.709953 -0.289474,1.050316 0.19422,0.659858 1.155812,0.779669 1.551096,1.273524 0.288741,0.360741 0.120855,1.750853 0.10251,2.232756 -0.02943,0.773082 -1.282935,0.912357 -1.6461,1.498284 -0.304901,0.491927 0.33354,1.63027 0.573267,2.091166 0.552854,1.062909 1.90107,-0.36712 2.650706,0.367437 0.352072,0.34499 1.417643,1.180518 1.473132,1.659827 0.07135,0.616303 -0.738754,1.707494 -0.101021,2.176498 0.437715,0.321907 1.844458,1.040266 2.329856,0.666041 0.46574,-0.359073 0.713267,-1.477208 1.338841,-1.558468 0.473168,-0.06146 2.001874,-0.169549 2.354403,0.152954 0.453226,0.414625 0.609932,1.356215 1.2339,1.565903 0.312945,0.105166 0.676457,-0.09338 0.96045,-0.206506 0.37633,-0.149908 1.081349,-0.28982 1.312066,-0.647919 0.412107,-0.639642 -0.405537,-1.493144 -0.145041,-2.148503 0.277697,-0.698633 1.265866,-1.128437 1.637241,-1.848144 0.525262,0.147665 1.746061,0.645255 2.244251,0.334509 0.350199,-0.218437 0.494553,-0.850804 0.647649,-1.210842 0.127345,-0.29948 0.390905,-0.710379 0.289472,-1.04815 -0.192869,-0.64225 -1.161069,-0.787652 -1.551095,-1.27569 -0.28871,-0.36126 -0.120867,-1.75046 -0.102508,-2.232756 0.02943,-0.773085 1.282932,-0.912355 1.646099,-1.498285 C 33.71289,10.686322 33.074448,9.5479818 32.834722,9.0870832 32.282954,8.0262567 30.942729,9.4501672 30.197268,8.7196452 29.845855,8.3752736 28.766217,7.537657 28.710882,7.059819 28.639512,6.4435054 29.449655,5.3523411 28.811903,4.8833204 28.329554,4.5285883 26.929017,3.82274 26.40679,4.2912552 26.000167,4.6560535 25.733644,5.6990501 25.143207,5.7757479 24.672443,5.8368998 23.138323,5.9454894 22.789075,5.6227934 22.340342,5.2081745 22.182552,4.2634205 21.554905,4.0571607 c -0.311634,-0.1024091 -0.678652,0.1111329 -0.96045,0.2237474 -0.368193,0.1471405 -1.083437,0.2866884 -1.312065,0.632571 -0.41757,0.6317286 0.411054,1.492366 0.14504,2.1392395 -0.292409,0.7110607 -1.288866,1.0946972 -1.637241,1.8552442 m 9.113866,-3.8558664 c 0.182228,0.052094 0.35153,0.1140212 0.526137,0.1887909 1.199799,0.513768 0.02403,1.3743439 0.318887,2.2636585 0.1403,0.4231582 0.684759,0.6840738 0.995209,0.9731611 0.429285,0.3997468 0.787033,1.1326703 1.31585,1.3905051 0.507358,0.247373 1.482824,-0.1561183 2.014283,-0.2591826 l 0.438166,1.2268666 c -0.483007,0.228494 -1.502047,0.691308 -1.679774,1.230383 -0.156359,0.474263 0.110414,1.081901 0.07391,1.573883 -0.03317,0.44704 -0.268623,1.160254 -0.0564,1.573883 0.364376,0.710173 2.329255,1.167119 1.152691,2.225659 -0.523755,0.471214 -1.568032,-0.553295 -2.191847,-0.07749 -0.439135,0.334942 -0.738117,0.882829 -1.154448,1.258106 -0.30416,0.274167 -0.844931,0.532453 -1.028068,0.907438 -0.420331,0.860654 0.920674,1.956958 -0.461632,2.340068 -0.850162,0.235624 -0.984663,-1.146122 -1.586597,-1.477462 -0.369457,-0.203371 -0.905903,-0.0075 -1.305369,-0.0028 -0.540424,0.0064 -1.33607,-0.247605 -1.839015,-0.107177 -0.568777,0.158811 -1.046628,1.201457 -1.315785,1.684914 -0.182229,-0.05209 -0.351532,-0.114021 -0.526138,-0.188791 -1.199798,-0.513768 -0.02403,-1.374344 -0.318888,-2.263658 -0.140301,-0.423164 -0.684753,-0.684071 -0.995207,-0.973161 -0.415554,-0.386958 -0.753527,-1.106636 -1.243095,-1.378198 -0.512346,-0.284198 -1.543059,0.141383 -2.087038,0.246875 L 15.51172,16.181502 c 0.491731,-0.232568 1.497913,-0.678573 1.679774,-1.230384 0.157214,-0.477019 -0.122428,-1.078044 -0.07607,-1.573883 0.04131,-0.441819 0.268528,-1.164645 0.05856,-1.573883 -0.288277,-0.561855 -1.362562,-0.706552 -1.492944,-1.326197 -0.06838,-0.32498 0.22235,-0.7600123 0.356484,-1.0434193 0.537454,0.104225 1.490352,0.5385379 2.012118,0.3199012 0.512855,-0.2149033 0.910409,-0.9853427 1.317948,-1.3635904 0.304548,-0.2826581 0.931779,-0.5644524 1.059241,-0.9800582 0.214934,-0.7008125 -0.752307,-1.7763426 0.169316,-2.1643971 1.15041,-0.4843876 1.068524,0.9525203 1.847739,1.3814444 0.369457,0.2033715 0.905902,0.00752 1.305371,0.00277 0.541605,-0.00644 1.334116,0.2428824 1.839016,0.095004 0.577653,-0.1691852 1.04152,-1.1801162 1.315784,-1.6727407 m -3.4177,3.7181289 c -1.007965,0.1443993 -1.954297,0.50889 -2.715348,1.2045518 -3.237867,2.9596634 -0.793366,8.8341554 3.679314,8.2848634 1.006543,-0.123614 1.935293,-0.483967 2.716297,-1.14268 3.44639,-2.906748 0.832957,-8.993285 -3.680263,-8.3467352 m 0.350533,0.8651064 c 2.42277,-0.2304012 4.405811,2.2226828 3.990427,4.5306308 -0.329901,1.832991 -1.828897,3.043908 -3.639894,3.216131 -2.425538,0.230663 -4.406874,-2.21674 -3.990426,-4.530631 C 20.52749,11.015131 22.02563,9.8075515 23.83689,9.6353042 M 9.9031892,28.713094 c -1.003205,-2.946199 -4.016878,-0.839017 -5.871433,0.0662 -1.063132,0.518919 -2.375798,1.120237 -1.880195,2.562801 1.074332,3.127083 2.786305,6.223023 4.223643,9.2015 0.475338,0.985005 0.859797,2.66129 1.863019,3.234589 0.982184,0.561275 2.1899588,-0.247285 3.0670988,-0.670571 1.794523,-0.865992 4.821647,-1.576189 3.330067,-4.141418 1.805978,-1.98e-4 3.627781,-0.15345 5.433266,-0.17493 3.040977,-0.03617 6.140489,0.08811 9.113866,-0.655423 3.180324,-0.795285 5.992576,-2.427897 8.412799,-4.617788 1.566673,-1.417575 2.69418,-3.237692 3.855867,-4.980225 1.265794,-1.898692 2.536328,-3.794319 3.797378,-5.696166 0.668937,-1.008856 1.098318,-2.191483 0.187368,-3.226206 -1.004742,-1.141257 -3.126492,-0.883992 -4.422913,-0.528706 -2.762027,0.756933 -5.126951,3.534226 -7.273566,5.325278 -0.624468,0.521034 -1.35085,1.381343 -2.1032,1.696275 -0.513832,0.215088 -1.822927,-0.287108 -2.453733,-0.287108 -1.692015,0 -3.784255,0.335781 -5.433266,-0.03449 -0.521517,-0.117102 -1.003079,-0.507649 -1.489767,-0.726898 -0.884979,-0.398672 -1.919707,-0.682363 -2.8919,-0.724933 -2.052066,-0.08986 -4.055424,0.300646 -5.783799,1.464339 -1.28977,0.868388 -2.336174,2.137645 -3.6805998,2.913877 M 32.424954,26.872795 c 0.409869,-0.841193 1.566748,-1.502336 2.278467,-2.096167 1.915101,-1.59789 3.98876,-3.987821 6.397232,-4.781359 1.002162,-0.33019 3.340235,-0.695635 3.855057,0.567993 0.333222,0.817893 -0.336336,1.557254 -0.758678,2.190766 l -3.271645,4.907467 c -1.315324,1.972988 -2.542792,3.882417 -4.294033,5.513055 -4.434803,4.129397 -10.096516,4.740044 -15.861632,4.740044 -1.640621,0 -3.267055,0.08763 -4.907467,0.08763 -0.421153,0 -1.377882,0.185852 -1.695799,-0.123336 -0.418542,-0.407048 -0.630394,-1.277005 -0.872614,-1.804597 -0.683933,-1.489708 -1.35725,-2.986981 -2.056949,-4.4693 -0.203577,-0.431283 -0.966357,-1.533971 -0.786806,-2.000691 0.213883,-0.555962 1.19276,-1.084367 1.643935,-1.454198 1.751262,-1.435512 3.31453,-2.576323 5.608533,-2.904817 1.295082,-0.185451 2.736486,0.03901 3.9435,0.527966 0.677532,0.274461 1.36372,0.894262 2.1032,0.922651 1.543232,0.05924 3.100082,0.0016 4.644566,0.0016 1.135626,0 2.252777,-0.03505 3.242433,0.622628 0.577022,0.38346 2.289087,2.104874 0.87498,2.562601 -0.78246,0.253272 -1.896269,0.0572 -2.71528,0.0572 h -5.871433 c -0.734286,0 -1.552799,-0.102032 -2.278061,0.01298 -0.310033,0.04917 -0.620368,0.336814 -0.371832,0.650083 0.204436,0.257685 0.606653,0.212783 0.897227,0.213269 h 2.3661 5.433266 c 0.846343,0 1.899465,0.167014 2.716633,-0.06918 2.210131,-0.638791 0.994059,-2.988805 -0.2629,-3.874324 M 7.8876222,28.046514 c 0.771549,-0.153308 0.993456,0.53743 1.253914,1.104747 0.643876,1.40246 1.3208678,2.79189 1.9380758,4.2064 0.718473,1.646585 1.483129,3.289477 2.263929,4.907466 0.271262,0.562115 0.95862,1.547292 0.812163,2.190496 -0.115013,0.505106 -0.690447,0.656421 -1.097715,0.855236 -1.17021,0.571261 -2.576159,1.472741 -3.8558668,1.726364 -0.698016,0.138336 -0.961852,-0.573241 -1.199819,-1.091496 -0.616694,-1.343062 -1.21729,-2.694661 -1.848144,-4.031133 -0.836754,-1.772674 -1.695024,-3.546393 -2.472936,-5.345633 -0.247172,-0.571687 -0.838021,-1.360117 -0.662727,-2.014213 0.138576,-0.517093 0.763357,-0.657791 1.188527,-0.858485 1.134694,-0.53561 2.447411,-1.404711 3.680599,-1.649749 m -1.5774,1.940171 c -2.170763,0.524331 -1.213091,3.930457 0.963967,3.411952 2.273527,-0.541482 1.314485,-3.962295 -0.963967,-3.411952 m 0.263238,0.867679 c 1.123747,-0.305725 1.569348,1.392235 0.437762,1.660906 -1.010763,0.239987 -1.472151,-1.379492 -0.437762,-1.660906 z"
     id="path1" /></svg>
