<!-- Generated by IcoMoon.io -->
<svg version="1.1" xmlns="http://www.w3.org/2000/svg" width="768" height="768" viewBox="0 0 768 768">
<title></title>
<g id="icomoon-ignore">
</g>
<path d="M512 608c-25.664 0-49.76-9.984-67.904-28.128l-60.096-60.128-60.128 60.128c-36.256 36.256-99.488 36.256-135.776 0-18.112-18.112-28.096-42.24-28.096-67.872s9.984-49.76 28.128-67.904l60.096-60.096-60.096-60.128c-18.144-18.112-28.128-42.24-28.128-67.872s9.984-49.76 28.128-67.904c36.256-36.224 99.488-36.256 135.776 0.032l60.096 60.128 60.128-60.128c36.256-36.256 99.488-36.256 135.776 0 18.112 18.112 28.096 42.24 28.096 67.872s-9.984 49.76-28.128 67.904l-60.096 60.096 60.096 60.128c18.144 18.112 28.128 42.24 28.128 67.872s-9.984 49.76-28.128 67.904c-18.112 18.112-42.208 28.096-67.872 28.096zM384 429.248l105.376 105.376c12.096 12.096 33.184 12.064 45.248 0 6.048-6.048 9.376-14.048 9.376-22.624s-3.328-16.576-9.376-22.624l-105.344-105.376 105.344-105.376c6.048-6.048 9.376-14.080 9.376-22.624s-3.328-16.576-9.376-22.624c-12.096-12.128-33.184-12.096-45.248-0.032l-105.376 105.408-105.376-105.376c-12.096-12.096-33.184-12.064-45.248 0-6.048 6.048-9.376 14.080-9.376 22.624s3.328 16.576 9.376 22.624l105.344 105.376-105.344 105.376c-6.048 6.048-9.376 14.048-9.376 22.624s3.328 16.576 9.376 22.624c12.096 12.128 33.184 12.096 45.248 0.032l105.376-105.408z"></path>
</svg>
